<?xml version="1.0" standalone="no"?>
<!DOCTYPE svg PUBLIC "-//W3C//DTD SVG 20010904//EN"
 "http://www.w3.org/TR/2001/REC-SVG-20010904/DTD/svg10.dtd">
<svg version="1.0" xmlns="http://www.w3.org/2000/svg"
 width="1636.000000pt" height="1622.000000pt" viewBox="0 0 1636.000000 1622.000000"
 preserveAspectRatio="xMidYMid meet">

<g transform="translate(0.000000,1622.000000) scale(0.100000,-0.100000)"
fill="#352e66" stroke="none">
<path  d="M6628 15093 c7 -3 16 -2 19 1 4 3 -2 6 -13 5 -11 0 -14 -3 -6 -6z"/>
<path d="M7043 15093 c9 -2 23 -2 30 0 6 3 -1 5 -18 5 -16 0 -22 -2 -12 -5z"/>
<path d="M7098 15093 c7 -3 16 -2 19 1 4 3 -2 6 -13 5 -11 0 -14 -3 -6 -6z"/>
<path d="M11978 15093 c7 -3 16 -2 19 1 4 3 -2 6 -13 5 -11 0 -14 -3 -6 -6z"/>
<path d="M12315 15089 c4 -5 24 -12 46 -15 23 -4 36 -10 29 -14 -8 -5 -7 -9 3
-13 9 -3 21 1 28 9 7 8 8 14 3 13 -5 -1 -16 1 -24 4 -36 14 -90 25 -85 16z"/>
<path d="M13292 15080 c-12 -12 -22 -23 -22 -26 0 -8 49 30 50 39 0 11 -4 9
-28 -13z"/>
<path d="M13340 15090 c-8 -5 -12 -12 -9 -15 4 -3 12 1 19 10 14 17 11 19 -10
5z"/>
<path d="M13688 15093 c7 -3 16 -2 19 1 4 3 -2 6 -13 5 -11 0 -14 -3 -6 -6z"/>
<path d="M7153 15075 c18 -13 18 -14 -5 -18 -12 -2 -5 -3 17 -1 30 3 36 2 25
-6 -13 -10 -13 -11 0 -9 8 1 22 1 30 0 13 -1 13 -2 0 -12 -12 -8 -11 -9 6 -4
16 4 28 -1 43 -21 12 -15 21 -22 21 -15 0 6 -10 19 -21 29 -12 9 -27 23 -35
30 -8 7 -14 11 -14 8 0 -3 -15 3 -32 14 -37 23 -62 27 -35 5z"/>
<path d="M13730 15080 c0 -5 5 -10 11 -10 5 0 7 5 4 10 -3 6 -8 10 -11 10 -2
0 -4 -4 -4 -10z"/>
<path d="M2620 15068 c0 -9 610 -15 629 -7 9 4 10 8 2 13 -6 4 -11 2 -11 -3 0
-6 -10 -11 -22 -11 -14 0 -18 3 -11 8 6 4 -123 7 -288 7 -164 0 -299 -3 -299
-7z"/>
<path d="M4057 15068 c-7 -4 142 -9 330 -10 187 -2 339 1 336 5 -2 4 8 5 24 1
15 -4 25 -3 21 1 -9 9 -696 12 -711 3z"/>
<path d="M5563 15072 c-14 -2 -23 -10 -23 -20 0 -11 3 -13 8 -6 10 16 233 19
242 4 5 -8 9 -7 13 4 5 13 -11 15 -106 18 -62 2 -122 2 -134 0z"/>
<path d="M6541 15071 c-9 -6 -10 -11 -2 -15 6 -4 9 -11 7 -15 -3 -4 10 -7 27
-8 29 -1 30 -1 7 6 -16 5 -24 13 -22 24 3 19 2 20 -17 8z"/>
<path d="M6570 15071 c0 -6 5 -13 10 -16 6 -3 10 1 10 9 0 9 -4 16 -10 16 -5
0 -10 -4 -10 -9z"/>
<path d="M8268 15072 c-208 -1 -378 -6 -377 -10 0 -4 4 -16 9 -27 8 -19 9 -19
9 3 l1 22 374 0 375 0 4 -27 c4 -27 4 -27 6 3 0 18 -4 33 -11 35 -7 2 -183 3
-390 1z"/>
<path d="M10435 14045 c0 -572 1 -805 2 -517 2 288 2 756 0 1040 -1 284 -2 49
-2 -523z"/>
<path d="M11835 15070 c-4 -6 -12 -7 -18 -3 -7 3 -3 -3 7 -15 11 -12 24 -22
30 -22 6 0 2 7 -8 15 -15 11 -16 15 -5 19 41 13 43 14 22 15 -12 1 -25 -4 -28
-9z"/>
<path d="M13208 15057 c-38 -23 -105 -100 -105 -120 0 -7 -3 -25 -7 -40 -3
-15 -2 -27 3 -27 4 0 11 18 15 41 8 49 70 130 95 122 12 -4 13 -3 3 5 -10 7
-4 13 25 25 21 9 31 16 23 16 -8 1 -32 -9 -52 -22z"/>
<path d="M13790 15070 c-8 -5 -10 -10 -5 -10 6 0 17 5 25 10 8 5 11 10 5 10
-5 0 -17 -5 -25 -10z"/>
<path d="M2581 15038 c-1 -20 4 -40 9 -43 12 -7 12 32 0 60 -7 16 -9 13 -9
-17z"/>
<path d="M9190 15063 c0 -5 39 -7 87 -5 163 5 179 8 46 10 -73 1 -133 -1 -133
-5z"/>
<path d="M10643 15063 c103 -2 271 -2 375 0 103 1 18 2 -188 2 -206 0 -291 -1
-187 -2z"/>
<path d="M11900 15060 c-9 -6 -10 -10 -3 -10 6 0 15 5 18 10 8 12 4 12 -15 0z"/>
<path d="M13833 15055 c0 -8 11 -16 24 -20 13 -3 23 -10 23 -16 0 -6 11 -20
25 -31 14 -11 25 -25 24 -31 -1 -7 -1 -21 1 -32 l1 -20 9 20 c5 13 3 28 -7 43
-37 59 -100 113 -100 87z"/>
<path d="M3270 15050 c-11 -8 -7 -9 15 -4 24 4 27 3 15 -6 -13 -10 -12 -11 3
-6 10 3 24 6 30 7 13 0 -22 17 -38 18 -5 0 -17 -4 -25 -9z"/>
<path d="M4790 15048 c-13 -8 -12 -9 1 -5 9 3 27 -1 38 -10 12 -8 24 -13 26
-11 3 2 -8 11 -23 20 -20 12 -32 14 -42 6z"/>
<path d="M6513 15053 c4 -6 -7 -16 -24 -22 -22 -8 -29 -15 -25 -26 4 -11 0
-15 -11 -13 -11 2 -20 -7 -26 -27 -6 -16 -12 -37 -15 -45 -9 -29 -9 -51 2 -47
6 2 11 10 12 18 0 8 2 24 2 36 2 21 16 25 38 11 6 -4 11 -1 11 6 0 7 -7 13
-16 12 -16 -1 -21 5 -21 25 0 8 4 8 14 0 11 -9 15 -8 20 5 3 9 4 20 0 25 -3 5
1 9 8 9 8 0 22 6 33 13 14 11 15 16 5 22 -8 5 -11 4 -7 -2z"/>
<path d="M12435 15051 c-6 -11 13 -26 22 -17 4 3 1 6 -6 6 -7 0 -9 5 -6 10 3
6 4 10 1 10 -3 0 -7 -4 -11 -9z"/>
<path d="M13345 15050 c3 -5 8 -10 11 -10 2 0 4 5 4 10 0 6 -5 10 -11 10 -5 0
-7 -4 -4 -10z"/>
<path d="M4062 15041 c-9 -6 -12 -228 -10 -1017 l3 -1009 55 -3 c30 -2 52 -1
50 2 -3 3 -27 6 -53 7 l-47 3 0 1002 c0 793 3 1003 13 1007 6 2 10 7 7 10 -3
3 -11 3 -18 -2z"/>
<path d="M8641 15034 c0 -11 3 -14 6 -6 3 7 2 16 -1 19 -3 4 -6 -2 -5 -13z"/>
<path d="M2611 15035 c1 -19 18 -51 18 -35 0 8 -4 22 -9 30 -5 8 -9 11 -9 5z"/>
<path d="M3340 15030 c-12 -7 -10 -9 7 -7 12 0 19 5 17 9 -6 10 -6 10 -24 -2z"/>
<path d="M11775 15030 c-3 -6 1 -7 9 -4 18 7 21 14 7 14 -6 0 -13 -4 -16 -10z"/>
<path d="M13758 15033 c7 -3 16 -2 19 1 4 3 -2 6 -13 5 -11 0 -14 -3 -6 -6z"/>
<path d="M4688 15023 c6 -2 18 -2 25 0 6 3 1 5 -13 5 -14 0 -19 -2 -12 -5z"/>
<path d="M4788 15023 c7 -3 16 -2 19 1 4 3 -2 6 -13 5 -11 0 -14 -3 -6 -6z"/>
<path d="M5542 14023 c-1 -557 1 -1013 6 -1013 6 0 6 720 -1 1665 -1 198 -3
-96 -5 -652z"/>
<path d="M5798 14024 c1 -675 -1 -1003 -8 -999 -5 3 -10 1 -10 -5 0 -7 6 -10
13 -8 9 4 13 215 15 1003 1 550 -1 1002 -5 1006 -5 5 -7 -444 -5 -997z"/>
<path d="M10461 15014 c0 -11 3 -14 6 -6 3 7 2 16 -1 19 -3 4 -6 -2 -5 -13z"/>
<path d="M11747 15011 c-3 -13 -10 -20 -16 -16 -7 4 -8 0 -4 -11 4 -11 3 -15
-5 -10 -17 10 -23 -10 -7 -24 10 -8 13 -21 9 -33 -4 -14 -3 -17 6 -12 6 4 10
16 7 26 -3 10 -1 22 4 25 5 3 7 10 3 15 -3 5 0 16 6 24 7 8 10 20 8 27 -3 7
-7 2 -11 -11z m-7 -47 c0 -8 -19 -13 -24 -6 -3 5 1 9 9 9 8 0 15 -2 15 -3z"/>
<path d="M3375 15010 c-3 -4 0 -10 7 -12 7 -3 8 -10 4 -17 -7 -11 -10 -11 -17
0 -5 8 -9 9 -9 3 0 -21 14 -24 32 -7 21 19 25 1 3 -20 -12 -13 -10 -15 20 -14
27 1 32 4 25 17 -13 24 -59 60 -65 50z m55 -50 c0 -5 -5 -10 -11 -10 -5 0 -7
5 -4 10 3 6 8 10 11 10 2 0 4 -4 4 -10z"/>
<path d="M11191 15004 c0 -11 3 -14 6 -6 3 7 2 16 -1 19 -3 4 -6 -2 -5 -13z"/>
<path d="M7902 14985 c0 -16 2 -22 5 -12 2 9 2 23 0 30 -3 6 -5 -1 -5 -18z"/>
<path d="M12480 14999 c0 -5 4 -8 10 -4 5 3 8 -19 5 -57 -2 -38 -1 -50 3 -30
4 18 11 31 16 30 5 -2 11 7 13 20 1 13 -1 21 -6 18 -5 -3 -11 3 -14 14 -5 21
-27 28 -27 9z m34 -45 c3 -8 2 -12 -4 -9 -6 3 -10 10 -10 16 0 14 7 11 14 -7z"/>
<path d="M13840 15000 c0 -5 4 -10 9 -10 6 0 13 5 16 10 3 6 -1 10 -9 10 -9 0
-16 -4 -16 -10z"/>
<path d="M4880 14989 c0 -5 5 -7 10 -4 13 8 13 -1 -1 -27 -8 -16 -8 -19 1 -13
9 5 10 1 6 -16 -3 -13 -3 -18 0 -11 3 6 10 10 15 6 5 -3 9 -1 9 5 0 5 -4 13
-10 16 -5 3 -10 11 -10 17 0 27 28 -16 34 -52 3 -22 11 -40 16 -40 7 0 7 6 0
19 -5 11 -10 27 -10 36 0 18 -39 75 -52 75 -4 0 -8 -5 -8 -11z"/>
<path d="M8659 14983 c-1 -10 0 -26 1 -37 1 -10 -4 -23 -12 -27 -7 -5 -106 -9
-220 -9 -128 0 -208 -4 -208 -10 0 -6 85 -9 222 -9 141 0 217 3 208 9 -13 8
-12 10 3 10 14 0 17 9 17 45 0 43 -9 64 -11 28z"/>
<path d="M2590 14968 c-3 -339 1 -1953 5 -1956 3 -3 5 439 5 981 0 543 -2 987
-5 987 -3 0 -5 -6 -5 -12z"/>
<path d="M2620 13997 l-5 -987 25 1 c17 1 19 3 8 6 -17 4 -18 62 -20 986 l-3
982 -5 -988z"/>
<path d="M13140 14953 c-13 -15 -12 -16 4 -10 10 4 20 7 22 7 2 0 4 5 4 10 0
15 -13 12 -30 -7z"/>
<path d="M2860 14935 c0 -5 5 -17 10 -25 5 -8 10 -10 10 -5 0 6 -5 17 -10 25
-5 8 -10 11 -10 5z"/>
<path d="M6660 14925 c0 -8 2 -15 4 -15 2 0 6 7 10 15 3 8 1 15 -4 15 -6 0
-10 -7 -10 -15z"/>
<path d="M7898 13979 c-2 -528 0 -963 5 -966 4 -2 7 430 7 961 0 531 -2 966
-5 966 -3 0 -6 -432 -7 -961z"/>
<path d="M8170 14930 c0 -5 5 -10 11 -10 5 0 7 5 4 10 -3 6 -8 10 -11 10 -2 0
-4 -4 -4 -10z"/>
<path d="M10700 14928 c0 -10 5 -18 11 -18 5 0 7 -4 4 -10 -4 -7 78 -10 239
-10 157 0 246 4 246 10 0 6 -87 10 -240 10 -217 0 -240 2 -249 18 -10 16 -10
16 -11 0z"/>
<path d="M11961 14924 c9 -11 37 -13 118 -12 l106 2 -98 3 c-54 2 -96 7 -93
11 2 4 -7 8 -20 8 -20 2 -23 -1 -13 -12z"/>
<path d="M12243 14924 c0 -8 6 -14 14 -14 7 0 13 4 13 9 0 5 -6 11 -13 14 -8
3 -14 -1 -14 -9z"/>
<path d="M12285 14929 c-4 -6 -5 -12 -2 -15 2 -3 7 2 10 11 7 17 1 20 -8 4z"/>
<path d="M13701 14940 c-8 -15 -7 -80 1 -72 5 5 8 25 5 43 -2 19 -5 32 -6 29z"/>
<path d="M3440 14921 c0 -6 5 -13 10 -16 6 -3 10 1 10 9 0 9 -4 16 -10 16 -5
0 -10 -4 -10 -9z"/>
<path d="M4387 14911 c-4 -17 -3 -21 5 -13 5 5 8 16 6 23 -3 8 -7 3 -11 -10z"/>
<path d="M12535 14920 c-3 -5 -1 -10 4 -10 6 0 11 5 11 10 0 6 -2 10 -4 10 -3
0 -8 -4 -11 -10z"/>
<path d="M13405 14920 c3 -5 8 -10 11 -10 2 0 4 5 4 10 0 6 -5 10 -11 10 -5 0
-7 -4 -4 -10z"/>
<path d="M4645 14911 c-3 -5 -1 -12 5 -16 5 -3 10 1 10 9 0 18 -6 21 -15 7z"/>
<path d="M4698 14913 c7 -3 16 -2 19 1 4 3 -2 6 -13 5 -11 0 -14 -3 -6 -6z"/>
<path d="M6788 14913 c57 -2 147 -2 200 0 53 1 7 3 -103 3 -110 0 -154 -2 -97
-3z"/>
<path d="M13483 14913 c20 -2 54 -2 75 0 20 2 3 4 -38 4 -41 0 -58 -2 -37 -4z"/>
<path d="M13638 14913 c6 -2 18 -2 25 0 6 3 1 5 -13 5 -14 0 -19 -2 -12 -5z"/>
<path d="M2847 14903 c-4 -3 -7 -11 -7 -17 0 -6 5 -5 12 2 6 6 9 14 7 17 -3 3
-9 2 -12 -2z"/>
<path d="M4350 14900 c0 -5 5 -10 10 -10 6 0 10 5 10 10 0 6 -4 10 -10 10 -5
0 -10 -4 -10 -10z"/>
<path d="M8190 14899 c0 -5 5 -7 10 -4 6 3 10 8 10 11 0 2 -4 4 -10 4 -5 0
-10 -5 -10 -11z"/>
<path d="M11927 14888 c-8 -29 -4 -32 11 -8 6 10 8 21 3 24 -5 3 -11 -4 -14
-16z"/>
<path d="M12290 14900 c-8 -5 -12 -11 -10 -14 3 -2 14 2 24 10 22 15 10 19
-14 4z"/>
<path d="M13738 14884 c3 -17 7 -22 12 -13 9 13 2 39 -10 39 -4 0 -5 -12 -2
-26z"/>
<path d="M13951 14894 c0 -11 3 -14 6 -6 3 7 2 16 -1 19 -3 4 -6 -2 -5 -13z"/>
<path d="M4688 14893 c6 -2 18 -2 25 0 6 3 1 5 -13 5 -14 0 -19 -2 -12 -5z"/>
<path d="M4892 14880 c0 -14 2 -19 5 -12 2 6 2 18 0 25 -3 6 -5 1 -5 -13z"/>
<path d="M7072 14880 c0 -14 2 -19 5 -12 2 6 2 18 0 25 -3 6 -5 1 -5 -13z"/>
<path d="M10678 14893 c7 -3 16 -2 19 1 4 3 -2 6 -13 5 -11 0 -14 -3 -6 -6z"/>
<path d="M11742 14880 c-7 -11 -8 -20 -3 -20 9 0 24 30 18 36 -1 2 -8 -6 -15
-16z"/>
<path d="M3455 14395 c0 -275 1 -386 2 -247 2 139 2 364 0 500 -1 136 -2 22
-2 -253z"/>
<path d="M6441 14874 c0 -11 3 -14 6 -6 3 7 2 16 -1 19 -3 4 -6 -2 -5 -13z"/>
<path d="M6648 14883 c7 -3 16 -2 19 1 4 3 -2 6 -13 5 -11 0 -14 -3 -6 -6z"/>
<path d="M11684 14755 c0 -77 2 -107 3 -67 2 40 2 103 0 140 -2 37 -3 4 -3
-73z"/>
<path d="M13354 14715 c0 -99 2 -138 3 -87 2 51 2 132 0 180 -1 48 -3 6 -3
-93z"/>
<path d="M4697 14873 c-4 -3 -6 -189 -5 -412 l3 -406 2 399 c2 274 7 403 14
413 11 13 -2 19 -14 6z"/>
<path d="M10670 14519 c0 -213 4 -358 9 -355 13 8 14 716 1 716 -6 0 -10 -127
-10 -361z"/>
<path d="M3202 14850 c0 -14 2 -19 5 -12 2 6 2 18 0 25 -3 6 -5 1 -5 -13z"/>
<path d="M7294 14750 c0 -69 1 -97 3 -62 2 34 2 90 0 125 -2 34 -3 6 -3 -63z"/>
<path d="M7320 14820 c0 -32 4 -49 10 -45 6 3 10 24 10 45 0 21 -4 42 -10 45
-6 4 -10 -13 -10 -45z"/>
<path d="M10652 14845 c0 -16 2 -22 5 -12 2 9 2 23 0 30 -3 6 -5 -1 -5 -18z"/>
<path d="M7111 14844 c0 -11 3 -14 6 -6 3 7 2 16 -1 19 -3 4 -6 -2 -5 -13z"/>
<path d="M11938 14695 c-2 -91 0 -165 5 -165 4 0 7 74 7 165 0 91 -2 165 -5
165 -2 0 -5 -74 -7 -165z"/>
<path d="M12554 14740 c0 -69 1 -97 3 -62 2 34 2 90 0 125 -2 34 -3 6 -3 -63z"/>
<path d="M13952 14750 c-1 -63 -5 -126 -8 -140 -5 -19 -4 -22 5 -14 8 7 11 51
8 140 l-3 129 -2 -115z"/>
<path d="M4954 14480 c0 -190 2 -267 3 -172 2 94 2 250 0 345 -1 94 -3 17 -3
-173z"/>
<path d="M12282 14730 c-1 -52 1 -105 4 -117 7 -26 24 -31 24 -8 0 8 -4 15
-10 15 -5 0 -11 46 -13 103 l-3 102 -2 -95z"/>
<path d="M6655 14075 c0 -407 1 -572 2 -367 2 206 2 539 0 740 -1 202 -2 34
-2 -373z"/>
<path d="M7113 14710 c0 -47 2 -66 4 -42 2 23 2 61 0 85 -2 23 -4 4 -4 -43z"/>
<path d="M2805 14380 c0 -223 1 -314 2 -202 2 111 2 293 0 405 -1 111 -2 20
-2 -203z"/>
<path d="M10654 14500 c0 -157 2 -221 3 -142 2 78 2 206 0 285 -1 78 -3 14 -3
-143z"/>
<path d="M7311 14604 c0 -11 3 -14 6 -6 3 7 2 16 -1 19 -3 4 -6 -2 -5 -13z"/>
<path d="M7331 14604 c0 -11 3 -14 6 -6 3 7 2 16 -1 19 -3 4 -6 -2 -5 -13z"/>
<path d="M13696 14605 c4 -8 12 -15 20 -15 19 0 18 16 -2 24 -22 9 -24 8 -18
-9z"/>
<path d="M13741 14604 c0 -11 3 -14 6 -6 3 7 2 16 -1 19 -3 4 -6 -2 -5 -13z"/>
<path d="M13921 14604 c0 -11 3 -14 6 -6 3 7 2 16 -1 19 -3 4 -6 -2 -5 -13z"/>
<path d="M12530 14600 c0 -5 7 -10 15 -10 8 0 15 5 15 10 0 6 -7 10 -15 10 -8
0 -15 -4 -15 -10z"/>
<path d="M7076 14584 c-11 -29 5 -34 107 -32 l102 2 -88 3 c-53 2 -85 8 -82
13 4 6 1 10 -4 10 -6 0 -11 -5 -11 -11 0 -5 -4 -8 -10 -4 -5 3 -7 12 -3 20 3
8 3 15 0 15 -3 0 -8 -7 -11 -16z"/>
<path d="M7225 14580 c-4 -6 6 -10 22 -10 22 0 25 2 13 10 -19 12 -27 12 -35
0z"/>
<path d="M7148 14573 c6 -2 18 -2 25 0 6 3 1 5 -13 5 -14 0 -19 -2 -12 -5z"/>
<path d="M7306 14565 c-19 -15 -19 -15 1 -15 11 0 23 7 27 15 7 19 -3 19 -28
0z"/>
<path d="M13102 14520 c0 -14 2 -19 5 -12 2 6 2 18 0 25 -3 6 -5 1 -5 -13z"/>
<path d="M11691 14513 c-2 -18 10 -43 20 -43 5 0 9 7 9 16 0 8 -4 13 -9 9 -5
-3 -12 3 -14 12 -3 10 -5 13 -6 6z"/>
<path d="M11924 14493 c-2 -23 -1 -23 13 -6 14 17 14 17 9 0 -3 -10 -2 -15 3
-12 5 3 12 1 16 -5 8 -13 25 -13 25 0 0 6 -6 9 -12 8 -7 -2 -12 3 -10 10 1 6
-3 12 -9 12 -5 0 -8 4 -4 9 3 6 -3 9 -12 8 -11 0 -19 -10 -19 -24z"/>
<path d="M13363 14465 c0 -32 2 -43 7 -30 4 11 5 27 2 35 -5 13 -3 13 11 1 15
-12 15 -16 1 -43 -12 -24 -13 -33 -3 -42 9 -8 10 -8 5 1 -4 7 -1 22 7 34 11
15 16 17 20 7 2 -7 7 -11 9 -8 3 3 -9 25 -26 50 l-32 46 -1 -51z"/>
<path d="M11735 14461 c-3 -12 -11 -18 -17 -15 -14 9 7 -29 24 -43 10 -9 13
-5 14 18 1 26 0 27 -12 11 -16 -21 -18 -8 -3 20 6 11 8 22 6 25 -3 2 -8 -5
-12 -16z"/>
<path d="M13133 14425 c12 -18 24 -32 26 -29 7 7 -21 52 -35 58 -8 3 -5 -8 9
-29z"/>
<path d="M13165 14449 c-4 -6 -5 -12 -2 -15 2 -3 7 2 10 11 7 17 1 20 -8 4z"/>
<path d="M12000 14431 c0 -5 6 -14 13 -18 6 -4 20 -25 30 -47 10 -21 20 -36
22 -34 6 6 -29 73 -49 93 -9 9 -16 12 -16 6z"/>
<path d="M13180 14397 c0 -9 -6 -17 -12 -17 -9 0 -10 -3 -2 -8 6 -4 16 -17 23
-29 6 -13 17 -23 24 -23 8 0 8 3 -2 9 -7 5 -15 23 -17 41 -4 36 -14 54 -14 27z"/>
<path d="M13436 14401 c4 -7 8 -23 9 -35 1 -11 3 -25 4 -30 0 -5 7 -3 15 3 10
8 16 9 19 1 3 -6 4 -5 3 2 -2 7 -11 12 -20 11 -11 0 -15 4 -12 12 2 7 -2 21
-10 32 -9 10 -12 12 -8 4z"/>
<path d="M11761 14374 c-1 -6 10 -23 23 -37 13 -14 21 -28 18 -31 -3 -3 0 -6
7 -6 8 0 10 8 6 23 -5 18 -3 17 10 -5 9 -16 18 -28 21 -28 3 0 -4 16 -16 37
-17 29 -18 38 -8 45 9 6 7 7 -7 5 -11 -1 -25 -6 -32 -10 -6 -4 -14 -1 -16 5
-3 8 -6 8 -6 2z m42 -19 c4 -8 3 -16 -1 -19 -4 -3 -9 4 -9 15 -2 23 3 25 10 4z"/>
<path d="M12080 14324 c0 -5 7 -18 15 -28 8 -11 15 -16 15 -10 0 5 -7 18 -15
28 -8 11 -15 16 -15 10z"/>
<path d="M13445 14311 c3 -3 17 -6 31 -7 13 0 22 2 19 5 -3 3 -17 6 -31 7 -13
0 -22 -2 -19 -5z"/>
<path d="M13220 14289 c0 -15 15 -17 33 -4 16 11 15 13 -8 13 -14 0 -25 -4
-25 -9z"/>
<path d="M11826 14280 c47 -78 77 -119 85 -114 5 3 9 11 8 17 0 8 -2 8 -6 -1
-4 -10 -8 -9 -18 5 -9 12 -10 22 -3 30 5 7 8 18 5 25 -4 8 -6 7 -6 -4 -1 -21
-21 -25 -21 -5 0 8 -12 24 -26 38 -15 13 -23 17 -18 9z"/>
<path d="M11865 14280 c3 -5 8 -10 11 -10 2 0 4 5 4 10 0 6 -5 10 -11 10 -5 0
-7 -4 -4 -10z"/>
<path d="M12116 14272 c-3 -6 0 -12 6 -15 10 -3 10 -8 -2 -23 -14 -17 -13 -18
1 -7 12 10 18 10 29 0 10 -9 -1 12 -26 51 -1 2 -5 -1 -8 -6z"/>
<path d="M13259 14259 c-8 -15 -8 -19 0 -15 7 4 11 -1 11 -13 0 -24 16 -36 26
-20 4 8 3 9 -4 5 -11 -7 -16 12 -15 52 1 18 -5 15 -18 -9z"/>
<path d="M13520 14277 c0 -5 9 -20 20 -34 11 -14 20 -31 20 -37 0 -6 14 -24
32 -41 22 -21 28 -24 20 -9 -6 11 -18 26 -26 34 -9 7 -16 18 -16 24 -1 13 -50
75 -50 63z"/>
<path d="M12090 14261 c0 -6 4 -13 10 -16 6 -3 7 1 4 9 -7 18 -14 21 -14 7z"/>
<path d="M13312 14208 c-18 -18 -15 -29 28 -86 22 -29 40 -57 40 -62 0 -15 18
-21 26 -9 4 8 3 9 -4 5 -7 -4 -12 -2 -12 4 0 7 -14 31 -31 55 -26 36 -29 46
-19 64 17 33 -3 54 -28 29z m28 -7 c0 -5 -7 -14 -15 -21 -16 -14 -18 -10 -9
14 6 17 24 22 24 7z"/>
<path d="M12160 14191 c0 -25 6 -27 13 -6 4 8 2 17 -3 20 -6 4 -10 -3 -10 -14z"/>
<path d="M12180 14166 c0 -20 17 -29 26 -15 5 8 3 9 -6 4 -10 -6 -12 -4 -7 8
3 10 2 17 -3 17 -6 0 -10 -6 -10 -14z"/>
<path d="M11931 14123 c12 -18 26 -33 31 -33 4 0 8 -4 8 -10 0 -10 98 -160
105 -160 9 0 -47 96 -69 120 -16 18 -22 36 -21 61 1 23 -3 36 -11 36 -10 0
-10 -5 -3 -20 18 -32 3 -30 -31 5 l-32 33 23 -32z"/>
<path d="M8574 14045 c0 -55 1 -76 3 -47 2 29 2 74 0 100 -2 26 -3 2 -3 -53z"/>
<path d="M11053 14060 c0 -47 2 -66 4 -42 2 23 2 61 0 85 -2 23 -4 4 -4 -43z"/>
<path d="M11098 14060 c2 -51 0 -80 -7 -80 -6 0 -7 -8 -4 -17 6 -15 7 -15 14
3 10 25 11 174 2 174 -5 0 -7 -36 -5 -80z"/>
<path d="M12210 14134 c1 -12 39 -61 40 -51 0 5 -9 20 -20 34 -11 14 -20 22
-20 17z"/>
<path d="M13392 14120 c0 -14 2 -19 5 -12 2 6 2 18 0 25 -3 6 -5 1 -5 -13z"/>
<path d="M13616 14123 c-9 -10 -7 -25 3 -19 5 3 12 -1 15 -10 8 -22 8 -26 -3
-19 -5 3 -12 1 -15 -3 -3 -5 7 -8 22 -7 15 1 34 -2 42 -8 8 -5 3 2 -12 16 -15
14 -25 27 -23 28 6 7 -23 28 -29 22z"/>
<path d="M12202 14080 c0 -14 2 -19 5 -12 2 6 2 18 0 25 -3 6 -5 1 -5 -13z"/>
<path d="M12255 14070 c-4 -6 -12 -7 -18 -3 -7 4 -7 0 1 -10 8 -9 10 -22 6
-28 -5 -8 -3 -9 5 -5 7 5 10 14 7 21 -2 7 1 18 7 24 6 6 8 11 5 11 -4 0 -10
-5 -13 -10z"/>
<path d="M4926 14045 c-3 -8 -3 -22 1 -30 3 -9 -3 -25 -12 -35 -10 -11 -14
-20 -9 -20 5 0 2 -5 -6 -11 -10 -7 -11 -9 -2 -7 8 2 12 7 10 10 -2 4 4 13 13
20 21 16 38 65 19 53 -9 -5 -10 -2 -5 14 7 24 0 29 -9 6z"/>
<path d="M4695 14029 c-11 -16 -1 -19 13 -3 7 8 8 14 3 14 -5 0 -13 -5 -16
-11z"/>
<path d="M4887 14026 c-4 -10 -3 -15 3 -11 6 3 10 1 10 -6 0 -7 3 -10 6 -6 3
3 2 13 -4 22 -8 16 -9 16 -15 1z"/>
<path d="M12268 14023 c-26 -31 -27 -39 -5 -40 12 0 16 1 10 4 -21 8 -14 25 7
18 12 -4 20 -2 20 5 0 6 -5 8 -12 4 -8 -5 -9 -2 -5 9 8 22 4 21 -15 0z"/>
<path d="M13685 14029 c-4 -5 -4 -13 -1 -16 3 -4 6 -1 6 6 0 7 5 9 10 6 8 -5
7 -11 0 -20 -9 -10 -9 -19 0 -32 10 -16 11 -16 6 -1 -3 10 -1 20 4 23 5 3 12
-5 16 -19 3 -14 12 -30 20 -37 8 -6 11 -15 8 -20 -3 -5 1 -17 8 -28 11 -16 15
-17 27 -4 11 12 10 14 -4 11 -10 -2 -20 3 -23 11 -3 8 0 11 7 7 17 -11 13 10
-5 25 -8 7 -24 30 -35 50 -21 43 -35 54 -44 38z"/>
<path d="M4522 14013 c129 -3 147 -6 151 -21 3 -12 5 -11 6 6 1 22 1 22 -151
20 l-153 -2 147 -3z"/>
<path d="M12306 13992 c-3 -5 1 -9 9 -9 8 0 12 4 9 9 -3 4 -7 8 -9 8 -2 0 -6
-4 -9 -8z"/>
<path d="M8211 13964 c0 -11 3 -14 6 -6 3 7 2 16 -1 19 -3 4 -6 -2 -5 -13z"/>
<path d="M10700 13972 c0 -19 37 -23 210 -20 l165 4 -175 2 c-121 1 -180 6
-188 14 -9 9 -12 9 -12 0z"/>
<path d="M13457 13967 c-9 -23 8 -30 24 -10 8 9 9 14 2 10 -6 -4 -13 -2 -15 5
-3 8 -7 6 -11 -5z"/>
<path d="M13507 13960 c4 -15 2 -21 -4 -17 -6 4 -16 0 -23 -8 -7 -8 -8 -15 -4
-15 5 0 24 -25 42 -55 18 -30 34 -55 36 -55 2 0 1 11 -2 25 -2 14 -8 25 -13
25 -5 0 -9 9 -9 21 0 13 -4 18 -12 13 -8 -5 -9 -2 -5 9 4 10 2 16 -5 14 -6 -1
-13 4 -16 12 -3 8 0 11 7 7 15 -10 27 22 13 36 -8 8 -9 4 -5 -12z"/>
<path d="M4850 13960 c0 -5 5 -10 11 -10 5 0 7 5 4 10 -3 6 -8 10 -11 10 -2 0
-4 -4 -4 -10z"/>
<path d="M8230 13958 c0 -5 75 -7 168 -6 169 2 149 6 -56 10 -61 2 -112 0
-112 -4z"/>
<path d="M12324 13933 c0 -23 4 -39 8 -37 4 3 5 12 2 22 -3 9 9 0 26 -20 18
-21 37 -38 43 -38 7 0 5 6 -4 13 -9 7 -19 21 -21 32 -2 11 -10 19 -16 18 -11
-3 -16 10 -13 30 1 5 -3 6 -8 3 -5 -4 -11 0 -13 6 -3 7 -4 -6 -4 -29z"/>
<path d="M3202 13910 c0 -14 2 -19 5 -12 2 6 2 18 0 25 -3 6 -5 1 -5 -13z"/>
<path d="M4850 13921 c0 -5 9 -7 20 -4 11 3 20 7 20 9 0 2 -9 4 -20 4 -11 0
-20 -4 -20 -9z"/>
<path d="M10670 13879 c0 -24 4 -38 10 -34 6 3 10 22 10 41 0 19 -4 34 -10 34
-5 0 -10 -18 -10 -41z"/>
<path d="M4800 13902 c0 -17 21 -25 31 -13 5 6 6 9 3 6 -4 -3 -13 0 -21 6 -9
8 -13 8 -13 1z"/>
<path d="M4330 13889 c0 -5 5 -7 10 -4 6 3 10 8 10 11 0 2 -4 4 -10 4 -5 0
-10 -5 -10 -11z"/>
<path d="M4360 13890 c0 -5 5 -10 10 -10 6 0 10 5 10 10 0 6 -4 10 -10 10 -5
0 -10 -4 -10 -10z"/>
<path d="M4397 13888 c2 -5 24 -8 49 -8 32 0 44 -4 44 -15 0 -17 14 -18 45 -5
18 8 17 9 -7 9 -16 1 -28 5 -28 10 0 5 -24 11 -54 13 -30 1 -52 0 -49 -4z"/>
<path d="M10654 13580 c0 -179 2 -252 3 -162 2 89 2 235 0 325 -1 89 -3 16 -3
-163z"/>
<path d="M12107 13891 c6 -7 9 -20 6 -29 -4 -10 -2 -13 5 -8 7 4 12 2 12 -4 0
-6 5 -8 12 -4 8 5 9 2 5 -10 -5 -11 10 -40 43 -88 28 -39 50 -66 50 -61 0 6
-9 21 -19 34 -17 22 -18 26 -4 53 12 22 12 31 2 40 -9 8 -10 8 -5 -1 4 -7 1
-21 -5 -31 -12 -19 -13 -19 -34 7 -16 19 -22 36 -20 63 3 38 -8 58 -20 38 -5
-8 -12 -7 -23 2 -14 10 -15 10 -5 -1z m35 -23 c-7 -7 -12 -8 -12 -2 0 14 12
26 19 19 2 -3 -1 -11 -7 -17z"/>
<path d="M13581 13884 c0 -11 3 -14 6 -6 3 7 2 16 -1 19 -3 4 -6 -2 -5 -13z"/>
<path d="M3455 13873 c4 -15 2 -23 -5 -23 -7 0 -10 -6 -7 -14 3 -8 1 -16 -6
-19 -8 -2 -8 -5 0 -10 17 -11 39 61 23 76 -10 9 -11 7 -5 -10z"/>
<path d="M2840 13871 c0 -5 5 -13 10 -16 6 -3 10 -2 10 4 0 5 -4 13 -10 16 -5
3 -10 2 -10 -4z"/>
<path d="M4355 13860 c-3 -6 1 -7 9 -4 18 7 21 14 7 14 -6 0 -13 -4 -16 -10z"/>
<path d="M2866 13845 c-9 -26 -7 -32 5 -12 6 10 9 21 6 23 -2 3 -7 -2 -11 -11z"/>
<path d="M13810 13850 c0 -5 0 -13 0 -17 0 -5 9 -9 20 -9 11 -1 17 2 14 7 -2
4 -11 6 -19 2 -11 -4 -13 -1 -9 11 3 9 3 16 0 16 -3 0 -6 -4 -6 -10z"/>
<path d="M12356 13833 c-6 -14 -5 -15 5 -6 7 7 10 15 7 18 -3 3 -9 -2 -12 -12z"/>
<path d="M12396 13833 c-6 -14 -5 -15 5 -6 7 7 10 15 7 18 -3 3 -9 -2 -12 -12z"/>
<path d="M4805 13830 c3 -5 8 -10 11 -10 2 0 4 5 4 10 0 6 -5 10 -11 10 -5 0
-7 -4 -4 -10z"/>
<path d="M13570 13831 c0 -6 4 -13 10 -16 6 -3 7 1 4 9 -7 18 -14 21 -14 7z"/>
<path d="M4550 13821 c0 -5 5 -13 10 -16 6 -3 10 -2 10 4 0 5 -4 13 -10 16 -5
3 -10 2 -10 -4z"/>
<path d="M12415 13819 c-4 -8 -5 -11 0 -7 10 9 50 -41 40 -50 -4 -4 -13 2 -21
12 -8 11 -14 16 -14 10 0 -5 6 -17 14 -26 10 -13 15 -15 24 -6 9 9 12 9 12 0
0 -7 5 -12 10 -12 17 0 11 13 -23 54 -26 31 -36 36 -42 25z"/>
<path d="M10670 13575 c0 -162 3 -244 10 -240 6 4 10 95 10 240 0 145 -4 236
-10 240 -7 4 -10 -78 -10 -240z"/>
<path d="M12170 13816 c0 -2 7 -9 15 -16 9 -7 15 -8 15 -2 0 5 -7 12 -15 16
-8 3 -15 4 -15 2z"/>
<path d="M13844 13788 c0 -14 3 -26 6 -26 19 1 23 -4 10 -13 -13 -8 -13 -9 2
-7 9 2 16 -1 15 -5 -1 -5 9 -15 23 -22 19 -11 21 -14 8 -15 -10 0 -18 -5 -18
-11 0 -6 9 -8 20 -4 21 7 28 -10 8 -18 -7 -3 -3 -4 9 -4 21 1 21 2 5 30 -37
65 -42 72 -52 70 -9 -3 -14 11 -11 30 1 5 -3 6 -8 3 -5 -4 -11 0 -14 6 -2 7
-4 1 -3 -14z"/>
<path d="M3410 13781 c-6 -12 -7 -21 -1 -21 10 0 24 30 17 37 -2 3 -9 -5 -16
-16z"/>
<path d="M4610 13780 c0 -5 5 -10 10 -10 6 0 10 5 10 10 0 6 -4 10 -10 10 -5
0 -10 -4 -10 -10z"/>
<path d="M4817 13783 c-7 -13 -1 -67 10 -87 9 -16 11 -17 16 -2 4 11 3 15 -4
11 -6 -4 -8 2 -4 18 4 14 2 28 -4 31 -5 4 -8 13 -4 21 5 15 -2 21 -10 8z"/>
<path d="M4569 13766 c6 -7 9 -22 5 -32 -5 -16 -4 -17 6 -4 10 13 11 11 7 -7
-3 -13 -1 -23 4 -23 14 0 10 43 -5 63 -7 9 -17 17 -21 17 -4 0 -2 -6 4 -14z"/>
<path d="M12227 13755 c-4 -8 -3 -16 1 -19 4 -3 9 4 9 15 2 23 -3 25 -10 4z"/>
<path d="M13590 13764 c0 -19 51 -79 70 -80 12 -1 16 4 13 13 -4 10 -9 11 -19
2 -8 -7 -14 -7 -14 -1 0 15 26 33 35 24 5 -4 5 -1 1 6 -6 9 -12 10 -20 3 -9
-7 -16 -7 -24 1 -7 7 -12 8 -12 3 -1 -6 -7 1 -15 15 -8 14 -14 20 -15 14z"/>
<path d="M3330 13716 c-45 -24 -45 -24 -265 -16 -121 4 -229 10 -240 12 -11 3
-5 0 13 -5 17 -6 32 -13 32 -16 0 -3 75 -5 167 -3 111 1 163 -1 153 -7 -20
-13 82 -4 112 10 47 21 93 48 83 49 -6 0 -30 -11 -55 -24z"/>
<path d="M12487 13724 c7 -3 9 -21 7 -47 -2 -27 -1 -37 5 -28 7 11 10 9 14
-10 4 -23 4 -23 6 -1 0 12 5 22 11 22 6 0 6 10 -1 27 -11 28 -26 43 -44 42 -5
0 -5 -3 2 -5z m33 -57 c0 -5 -4 -5 -10 -2 -5 3 -10 14 -10 23 0 15 2 15 10 2
5 -8 10 -19 10 -23z"/>
<path d="M3268 13713 c7 -3 16 -2 19 1 4 3 -2 6 -13 5 -11 0 -14 -3 -6 -6z"/>
<path d="M4617 13706 c-4 -10 -5 -21 -2 -24 9 -9 17 6 13 25 -3 17 -4 17 -11
-1z"/>
<path d="M3218 13703 c6 -2 18 -2 25 0 6 3 1 5 -13 5 -14 0 -19 -2 -12 -5z"/>
<path d="M2815 13680 c28 -12 37 -12 30 0 -3 6 -16 10 -28 9 -21 0 -21 -1 -2
-9z"/>
<path d="M4811 13664 c0 -11 3 -14 6 -6 3 7 2 16 -1 19 -3 4 -6 -2 -5 -13z"/>
<path d="M2802 13343 c-1 -183 1 -333 6 -333 4 0 6 98 4 217 -4 410 -8 448
-10 116z"/>
<path d="M4591 13660 c0 -8 4 -24 9 -35 5 -13 9 -14 9 -5 0 8 -4 24 -9 35 -5
13 -9 14 -9 5z"/>
<path d="M4844 13645 c-1 -15 2 -22 9 -18 6 4 8 -3 3 -21 -4 -18 -3 -25 4 -21
5 3 10 -2 10 -11 0 -10 2 -15 5 -12 7 6 -16 108 -24 108 -3 0 -7 -11 -7 -25z"/>
<path d="M13672 13641 c27 -33 29 -33 21 -3 -3 12 -9 19 -14 16 -5 -3 -9 0 -9
5 0 6 -5 11 -11 11 -6 0 0 -13 13 -29z"/>
<path d="M12260 13655 c0 -5 4 -16 9 -23 6 -11 10 -10 15 4 3 9 4 19 1 22 -3
3 -5 -1 -5 -9 0 -11 -2 -11 -10 1 -5 8 -10 11 -10 5z"/>
<path d="M12295 13629 c-9 -17 -14 -33 -11 -37 3 -3 6 -2 6 3 0 4 8 1 18 -6
15 -13 16 -12 3 4 -11 14 -11 23 -3 42 16 36 6 31 -13 -6z"/>
<path d="M4621 13634 c0 -11 3 -14 6 -6 3 7 2 16 -1 19 -3 4 -6 -2 -5 -13z"/>
<path d="M13940 13636 c0 -8 4 -17 9 -20 5 -4 7 3 4 14 -6 23 -13 26 -13 6z"/>
<path d="M12530 13630 c0 -5 5 -10 10 -10 6 0 10 5 10 10 0 6 -4 10 -10 10 -5
0 -10 -4 -10 -10z"/>
<path d="M13742 13605 c0 -16 2 -22 5 -12 2 9 2 23 0 30 -3 6 -5 -1 -5 -18z"/>
<path d="M4610 13566 c0 -31 6 -34 13 -6 3 11 1 23 -4 26 -5 3 -9 -6 -9 -20z"/>
<path d="M12552 13414 c-1 -137 -6 -189 -17 -210 -9 -18 -11 -30 -4 -34 5 -4
7 -15 3 -26 -5 -15 -4 -16 5 -4 5 8 8 25 4 38 -3 12 0 28 6 36 8 9 11 71 8
197 l-2 184 -3 -181z"/>
<path d="M7070 13570 c0 -5 5 -10 10 -10 6 0 10 5 10 10 0 6 -4 10 -10 10 -5
0 -10 -4 -10 -10z"/>
<path d="M7163 13573 c20 -2 54 -2 75 0 20 2 3 4 -38 4 -41 0 -58 -2 -37 -4z"/>
<path d="M7318 13535 c5 -54 22 -50 22 6 0 25 -5 39 -13 39 -8 0 -11 -14 -9
-45z"/>
<path d="M12282 13413 c-2 -154 0 -172 14 -166 10 3 12 8 5 12 -6 4 -12 68
-14 166 l-3 160 -2 -172z"/>
<path d="M13692 13560 c0 -14 2 -19 5 -12 2 6 2 18 0 25 -3 6 -5 1 -5 -13z"/>
<path d="M13952 13374 c-2 -167 -5 -214 -17 -230 -8 -10 -14 -26 -14 -34 0 -8
9 2 20 22 18 35 19 55 16 245 l-2 208 -3 -211z"/>
<path d="M4880 13526 c0 -8 4 -17 9 -20 5 -4 7 3 4 14 -6 23 -13 26 -13 6z"/>
<path d="M7070 13519 c0 -11 5 -17 10 -14 6 3 10 13 10 21 0 8 -4 14 -10 14
-5 0 -10 -9 -10 -21z"/>
<path d="M11684 13340 c0 -91 2 -128 3 -82 2 45 2 119 0 165 -1 45 -3 8 -3
-83z"/>
<path d="M11944 13340 c0 -91 2 -128 3 -82 2 45 2 119 0 165 -1 45 -3 8 -3
-83z"/>
<path d="M13348 13393 c4 -193 8 -211 10 -50 1 86 -1 157 -5 157 -5 0 -7 -48
-5 -107z"/>
<path d="M7114 13375 c0 -66 1 -92 3 -57 2 34 2 88 0 120 -2 31 -3 3 -3 -63z"/>
<path d="M7294 13375 c0 -66 1 -92 3 -57 2 34 2 88 0 120 -2 31 -3 3 -3 -63z"/>
<path d="M4881 13464 c0 -11 3 -14 6 -6 3 7 2 16 -1 19 -3 4 -6 -2 -5 -13z"/>
<path d="M4896 13443 c-5 -16 -3 -29 4 -33 7 -4 9 -16 5 -29 -4 -13 -2 -21 5
-21 6 0 10 15 8 34 -1 19 -6 32 -10 30 -5 -3 -6 6 -2 20 3 14 4 26 1 26 -3 0
-8 -12 -11 -27z"/>
<path d="M4661 13394 c0 -11 3 -14 6 -6 3 7 2 16 -1 19 -3 4 -6 -2 -5 -13z"/>
<path d="M4682 13355 c0 -16 2 -22 5 -12 2 9 2 23 0 30 -3 6 -5 -1 -5 -18z"/>
<path d="M4701 13354 c0 -11 3 -14 6 -6 3 7 2 16 -1 19 -3 4 -6 -2 -5 -13z"/>
<path d="M4910 13332 c0 -5 7 -9 15 -9 8 0 15 4 15 9 0 4 -7 8 -15 8 -8 0 -15
-4 -15 -8z"/>
<path d="M4671 13304 c0 -11 3 -14 6 -6 3 7 2 16 -1 19 -3 4 -6 -2 -5 -13z"/>
<path d="M10670 13293 c0 -16 5 -35 10 -43 7 -11 10 -4 10 28 0 23 -4 42 -10
42 -5 0 -10 -12 -10 -27z"/>
<path d="M4922 13291 c4 -13 18 -16 19 -4 0 4 -5 9 -11 12 -7 2 -11 -2 -8 -8z"/>
<path d="M4680 13275 c0 -5 5 -17 10 -25 5 -8 10 -10 10 -5 0 6 -5 17 -10 25
-5 8 -10 11 -10 5z"/>
<path d="M13092 13230 c0 -19 2 -27 5 -17 2 9 2 25 0 35 -3 9 -5 1 -5 -18z"/>
<path d="M13690 13240 c0 -12 4 -19 9 -16 5 4 12 0 14 -6 4 -10 6 -10 6 0 1 7
-6 20 -14 28 -13 14 -15 13 -15 -6z"/>
<path d="M7077 13230 c-3 -11 -1 -20 4 -20 5 0 9 9 9 20 0 11 -2 20 -4 20 -2
0 -6 -9 -9 -20z"/>
<path d="M7290 13236 c0 -2 7 -6 15 -10 8 -3 15 -1 15 4 0 6 -7 10 -15 10 -8
0 -15 -2 -15 -4z"/>
<path d="M9440 13229 c0 -5 5 -7 10 -4 6 3 10 8 10 11 0 2 -4 4 -10 4 -5 0
-10 -5 -10 -11z"/>
<path d="M4693 13205 c-3 -9 -3 -18 -1 -21 3 -3 8 4 11 16 6 23 -1 27 -10 5z"/>
<path d="M6650 13209 c0 -5 5 -7 10 -4 6 3 10 8 10 11 0 2 -4 4 -10 4 -5 0
-10 -5 -10 -11z"/>
<path d="M4961 13194 c0 -11 3 -14 6 -6 3 7 2 16 -1 19 -3 4 -6 -2 -5 -13z"/>
<path d="M9440 13206 c0 -2 8 -10 18 -17 15 -13 16 -12 3 4 -13 16 -21 21 -21
13z"/>
<path d="M8230 13193 c0 -5 90 -7 201 -5 149 2 205 0 216 -10 12 -9 14 -30 11
-89 -1 -42 0 -75 4 -72 5 2 8 46 8 96 0 63 -3 87 -10 77 -6 -10 -10 -11 -10
-2 0 9 -49 12 -210 12 -115 0 -210 -3 -210 -7z"/>
<path d="M9490 13193 c0 -5 62 -7 137 -5 223 4 241 8 46 10 -101 1 -183 -1
-183 -5z"/>
<path d="M9865 13190 c3 -5 8 -10 11 -10 2 0 4 5 4 10 0 6 -5 10 -11 10 -5 0
-7 -4 -4 -10z"/>
<path d="M10672 13194 c7 -6 520 -6 527 1 2 3 -116 5 -264 5 -148 0 -266 -3
-263 -6z"/>
<path d="M9888 13100 c-2 -50 0 -90 5 -90 4 0 7 41 7 90 0 50 -2 90 -4 90 -3
0 -6 -41 -8 -90z"/>
<path d="M6698 13173 c7 -3 16 -2 19 1 4 3 -2 6 -13 5 -11 0 -14 -3 -6 -6z"/>
<path d="M11978 13173 c7 -3 16 -2 19 1 4 3 -2 6 -13 5 -11 0 -14 -3 -6 -6z"/>
<path d="M12248 13173 c7 -3 16 -2 19 1 4 3 -2 6 -13 5 -11 0 -14 -3 -6 -6z"/>
<path d="M12486 13165 c-9 -26 -7 -32 5 -12 6 10 9 21 6 23 -2 3 -7 -2 -11
-11z"/>
<path d="M13408 13173 c7 -3 16 -2 19 1 4 3 -2 6 -13 5 -11 0 -14 -3 -6 -6z"/>
<path d="M13628 13173 c6 -2 18 -2 25 0 6 3 1 5 -13 5 -14 0 -19 -2 -12 -5z"/>
<path d="M4706 13140 c13 -83 17 -100 25 -100 5 0 9 -7 9 -15 0 -8 5 -15 10
-15 13 0 13 17 -1 26 -6 3 -9 15 -6 25 3 11 1 19 -3 19 -5 0 -16 21 -24 48
-13 37 -15 40 -10 12z"/>
<path d="M6426 13135 c5 -29 44 -77 44 -55 0 6 -6 13 -14 16 -8 3 -12 13 -9
25 5 16 8 18 14 7 5 -7 9 -8 9 -3 0 6 -4 16 -9 23 -6 11 -10 10 -16 -5 -7 -17
-8 -17 -16 2 -7 15 -8 13 -3 -10z"/>
<path d="M11700 13142 c18 -36 80 -102 96 -102 11 0 12 4 2 19 -6 10 -18 17
-25 14 -7 -3 -13 -1 -13 3 -1 5 -17 27 -36 49 -21 24 -31 30 -24 17z"/>
<path d="M4971 13140 c0 -8 4 -24 9 -35 5 -13 9 -14 9 -5 0 8 -4 24 -9 35 -5
13 -9 14 -9 5z"/>
<path d="M11741 13134 c0 -11 3 -14 6 -6 3 7 2 16 -1 19 -3 4 -6 -2 -5 -13z"/>
<path d="M12500 13106 c0 -7 -7 -19 -15 -26 -11 -10 -15 -10 -15 0 0 6 -6 10
-12 8 -7 -3 -13 -9 -13 -15 0 -5 -8 -17 -17 -27 -29 -28 -21 -28 25 1 56 37
85 73 57 73 -5 0 -10 -6 -10 -14z"/>
<path d="M6485 13090 c-3 -6 1 -7 9 -4 18 7 21 14 7 14 -6 0 -13 -4 -16 -10z"/>
<path d="M6515 13082 c-16 -10 -32 -18 -35 -20 -6 -4 22 -22 35 -22 6 0 3 5
-5 10 -13 8 -12 10 3 10 9 0 17 -5 17 -11 0 -5 5 -7 11 -3 8 4 7 9 -2 14 -10
7 -10 11 0 24 16 19 15 19 -24 -2z"/>
<path d="M7255 13089 c8 -13 -23 -42 -38 -36 -7 3 -13 -3 -13 -13 0 -16 5 -15
38 8 44 32 53 47 27 49 -11 1 -17 -2 -14 -8z"/>
<path d="M13140 13092 c0 -12 52 -52 69 -52 6 0 11 -4 11 -9 0 -12 66 -34 83
-28 6 2 -5 8 -26 12 -21 4 -41 14 -44 21 -3 8 -12 14 -20 14 -10 0 -14 7 -10
20 3 11 1 18 -3 15 -5 -3 -11 1 -14 7 -3 7 -3 2 0 -12 l6 -25 -26 24 c-14 14
-26 20 -26 13z"/>
<path d="M13238 13093 c7 -3 16 -2 19 1 4 3 -2 6 -13 5 -11 0 -14 -3 -6 -6z"/>
<path d="M13883 13087 c1 -5 -4 -12 -12 -15 -9 -3 -11 0 -6 9 6 11 5 12 -5 2
-8 -7 -15 -20 -16 -28 -4 -25 23 -17 45 13 15 22 17 29 6 29 -8 0 -13 -5 -12
-10z"/>
<path d="M4775 13060 c-3 -5 -1 -10 4 -10 6 0 11 5 11 10 0 6 -2 10 -4 10 -3
0 -8 -4 -11 -10z"/>
<path d="M4984 13032 c1 -17 19 -17 24 0 3 10 1 10 -6 -1 -9 -12 -11 -12 -14
0 -3 9 -5 10 -4 1z"/>
<path d="M2830 13019 c0 -5 5 -7 10 -4 6 3 10 8 10 11 0 2 -4 4 -10 4 -5 0
-10 -5 -10 -11z"/>
<path d="M4775 13020 c-3 -5 -2 -10 4 -10 5 0 13 5 16 10 3 6 2 10 -4 10 -5 0
-13 -4 -16 -10z"/>
<path d="M6530 13026 c0 -2 7 -7 16 -10 8 -3 12 -2 9 4 -6 10 -25 14 -25 6z"/>
<path d="M9195 13020 c3 -5 18 -10 32 -10 32 0 28 5 -10 14 -19 4 -26 3 -22
-4z"/>
<path d="M10460 13020 c0 -5 5 -10 11 -10 5 0 7 5 4 10 -3 6 -8 10 -11 10 -2
0 -4 -4 -4 -10z"/>
<path d="M5578 13013 c7 -3 16 -2 19 1 4 3 -2 6 -13 5 -11 0 -14 -3 -6 -6z"/>
<path d="M7150 13010 c-8 -5 -10 -10 -5 -10 6 0 17 5 25 10 8 5 11 10 5 10 -5
0 -17 -5 -25 -10z"/>
<path d="M7953 13013 c9 -2 25 -2 35 0 9 3 1 5 -18 5 -19 0 -27 -2 -17 -5z"/>
<path d="M9848 13013 c7 -3 16 -2 19 1 4 3 -2 6 -13 5 -11 0 -14 -3 -6 -6z"/>
<path d="M11855 13010 c11 -5 27 -9 35 -9 9 0 8 4 -5 9 -11 5 -27 9 -35 9 -9
0 -8 -4 5 -9z"/>
<path d="M12295 13005 l-30 -13 31 1 c17 1 31 8 31 15 0 6 -1 12 -1 12 -1 -1
-14 -7 -31 -15z"/>
<path d="M12355 13010 c-13 -5 -14 -9 -5 -9 8 0 24 4 35 9 13 5 14 9 5 9 -8 0
-24 -4 -35 -9z"/>
<path d="M13770 13011 c0 -5 9 -7 20 -4 11 3 20 7 20 9 0 2 -9 4 -20 4 -11 0
-20 -4 -20 -9z"/>
<path d="M6625 13000 c3 -5 17 -10 30 -10 13 0 27 5 30 10 4 6 -8 10 -30 10
-22 0 -34 -4 -30 -10z"/>
<path d="M6710 12998 c0 -5 83 -8 185 -8 102 0 185 3 185 8 0 4 -83 7 -185 7
-102 0 -185 -3 -185 -7z"/>
<path d="M11967 12998 c2 -5 66 -7 141 -7 75 1 130 3 122 5 -32 7 -268 9 -263
2z"/>
<path d="M13334 12999 c-2 -4 85 -7 194 -6 215 0 194 5 -41 9 -82 2 -151 0
-153 -3z"/>
<path fill="352e66" d="M6710 11850 l0 -600 -1295 0 -1295 0 -15 -32 c-8 -18 -64 -188 -125
-378 -164 -507 -178 -552 -424 -1310 -123 -382 -272 -843 -331 -1025 -58 -181
-113 -350 -121 -374 -8 -24 -13 -49 -11 -55 3 -7 64 -11 185 -10 160 0 179 -1
175 -15 -4 -14 -4 -14 6 -1 6 8 52 141 102 295 49 154 117 361 149 460 150
464 185 570 275 850 53 165 123 381 155 480 32 99 100 307 150 463 l91 282
1165 0 1164 0 0 -427 0 -428 76 -76 77 -77 86 73 c141 119 267 202 426 280
301 147 562 208 900 208 280 0 503 -43 761 -147 605 -242 1061 -772 1214
-1410 52 -220 66 -535 34 -759 -56 -388 -224 -754 -483 -1052 l-61 -70 87 -87
88 -88 1217 0 1218 0 -2 1603 -3 1602 -1212 3 -1213 2 0 425 0 425 2025 0
c1516 0 2025 -3 2025 -11 0 -13 -14 -56 -171 -544 -61 -187 -179 -554 -264
-815 -84 -261 -178 -551 -208 -645 -31 -93 -81 -248 -111 -343 -76 -235 -146
-452 -146 -455 0 -1 81 -1 180 1 146 2 181 0 186 -11 5 -15 -30 -118 -54 -155
-8 -12 -12 -25 -9 -29 4 -3 0 -18 -8 -34 -8 -15 -15 -38 -15 -51 0 -13 -7 -36
-15 -52 -8 -15 -15 -36 -16 -45 0 -12 -2 -12 -9 4 -6 13 -9 15 -9 5 0 -8 3
-21 8 -28 5 -9 -2 -43 -20 -92 -15 -43 -24 -81 -21 -86 4 -4 -2 -5 -14 -2 -17
4 -20 1 -17 -26 3 -27 2 -28 -7 -11 -9 18 -10 17 -4 -5 6 -29 6 -34 -2 -79 -4
-20 -9 -28 -14 -21 -4 7 -11 -9 -15 -36 -5 -27 -9 -52 -11 -56 -1 -5 -2 -14
-3 -20 -2 -7 -7 -4 -12 7 -7 15 -8 12 -3 -12 3 -19 1 -33 -4 -33 -6 0 -14 -25
-17 -55 -4 -30 -11 -55 -16 -55 -5 0 -9 -7 -9 -17 0 -23 -33 -127 -43 -134 -4
-3 -5 -13 -1 -22 3 -10 1 -17 -5 -17 -6 0 -11 -12 -12 -27 0 -24 -2 -25 -8 -8
-6 14 -10 5 -14 -35 -9 -67 -41 -173 -50 -164 -4 4 -7 -2 -7 -14 0 -11 -5 -24
-11 -28 -6 -3 -8 -17 -5 -29 3 -13 1 -27 -5 -30 -6 -4 -8 -14 -5 -22 3 -8 1
-11 -4 -8 -6 4 -10 -6 -10 -22 0 -15 -7 -41 -15 -57 -8 -15 -15 -35 -15 -42 0
-8 -4 -14 -10 -14 -5 0 -12 -17 -15 -37 -3 -21 -10 -46 -16 -55 -5 -10 -9 -27
-9 -39 0 -11 -5 -29 -11 -40 -5 -11 -19 -55 -30 -97 -24 -93 -51 -155 -57
-129 -2 9 -8 17 -13 17 -14 0 -11 -16 6 -30 16 -13 20 -36 8 -42 -5 -1 -15
-30 -25 -63 -9 -33 -21 -73 -27 -90 -6 -16 -13 -43 -16 -59 -6 -27 -7 -28 -21
-10 -14 18 -15 18 -8 -6 4 -14 9 -31 11 -37 3 -7 0 -13 -6 -13 -6 0 -11 -10
-11 -22 0 -13 -7 -36 -15 -52 -8 -15 -13 -32 -10 -36 3 -4 -2 -21 -10 -36 -8
-16 -18 -44 -21 -62 -4 -23 -11 -32 -20 -28 -8 3 -14 1 -14 -4 0 -6 5 -10 12
-10 9 0 9 -3 0 -12 -7 -7 -12 -22 -12 -35 0 -27 -30 -105 -43 -114 -5 -4 -7
-11 -3 -17 3 -5 3 -25 -1 -42 -6 -31 -7 -32 -20 -15 -16 23 -17 12 -1 -14 9
-15 7 -26 -10 -56 -12 -20 -23 -51 -25 -70 -1 -18 -5 -31 -10 -28 -4 2 -10
-10 -13 -27 -4 -17 -10 -33 -15 -36 -4 -2 -6 -11 -2 -19 4 -13 -156 -15 -1291
-15 -1284 0 -1295 0 -1306 -20 -7 -13 -10 -109 -8 -280 l3 -260 -1595 1 c-877
0 -1590 2 -1585 5 6 3 8 97 5 269 -5 287 -5 287 -60 284 -14 -1 -1034 -1
-2267 0 -1965 1 -2243 3 -2243 16 0 9 6 12 15 9 20 -8 28 17 15 47 -10 22 -10
21 -6 -8 3 -18 1 -33 -4 -33 -6 0 -10 5 -10 11 0 5 -5 7 -12 3 -19 -12 -4 41
97 351 96 296 704 2178 821 2539 35 110 64 203 64 208 0 4 -659 8 -1465 8
l-1465 0 0 -4035 0 -4035 8115 0 8115 0 0 4035 0 4035 -1450 0 c-797 0 -1450
3 -1450 6 0 4 50 160 111 348 61 187 139 429 174 536 87 269 146 451 270 835
59 182 131 404 160 495 30 91 104 320 165 510 61 190 118 364 126 388 8 23 14
47 14 52 0 7 -822 10 -2280 10 l-2280 0 0 600 0 600 -1605 0 -1605 0 0 -600z
m-2746 -8000 c57 -22 128 -87 146 -136 6 -14 10 -111 10 -215 l0 -189 -140 0
-140 0 0 180 0 180 -190 0 -190 0 0 -865 0 -865 190 0 190 0 0 200 0 200 140
0 140 0 0 -210 c0 -238 -5 -260 -77 -319 -68 -56 -99 -61 -388 -61 -291 0
-332 6 -398 61 -21 17 -46 48 -57 70 -19 37 -20 62 -20 923 0 599 3 894 11
913 12 34 74 99 111 119 52 27 104 32 355 33 231 1 257 -1 307 -19z m7836 -7
c25 -11 59 -36 77 -54 56 -59 63 -90 63 -274 l0 -165 -140 0 -140 0 0 160 0
160 -160 0 -160 0 0 -191 0 -191 183 -261 c101 -144 214 -307 252 -362 37 -55
83 -121 102 -146 59 -82 63 -107 63 -359 0 -241 -4 -264 -50 -323 -12 -15 -45
-40 -73 -55 -52 -27 -53 -27 -292 -30 -151 -2 -255 1 -283 8 -59 14 -114 53
-149 102 -28 41 -28 42 -31 225 l-3 183 140 0 141 0 2 -162 3 -163 158 -3 157
-3 0 216 0 215 -67 94 c-38 52 -120 170 -183 262 -63 93 -162 236 -219 319
-57 82 -110 167 -117 189 -21 58 -20 433 2 484 27 66 97 122 179 143 17 4 136
7 265 5 215 -2 239 -4 280 -23z m-6760 -453 l0 -460 210 0 210 0 0 460 0 460
145 0 145 0 0 -1040 0 -1040 -145 0 -145 0 0 480 0 480 -210 0 -210 0 0 -480
0 -480 -140 0 -140 0 0 1040 0 1040 140 0 140 0 0 -460z m2190 360 l0 -100
-255 0 -255 0 0 -370 0 -370 210 0 210 0 0 -100 0 -100 -210 0 -210 0 0 -375
0 -375 255 0 255 0 0 -95 0 -95 -395 0 -395 0 0 1040 0 1040 395 0 395 0 0
-100z m890 49 l0 -51 25 30 c41 49 94 65 236 70 157 5 224 -11 281 -67 l37
-38 28 34 c48 59 107 72 321 73 212 0 268 -13 335 -77 71 -70 67 -3 67 -1054
l0 -949 -140 0 -140 0 0 940 0 940 -190 0 -190 0 0 -940 0 -940 -145 0 -145 0
0 940 0 940 -190 0 -190 0 0 -940 0 -940 -140 0 -140 0 0 1040 0 1040 140 0
140 0 0 -51z m2298 -990 l-3 -1040 -137 -2 -138 -2 -2 1038 c-2 571 -1 1041 1
1043 2 2 67 4 143 4 l138 0 -2 -1041z m2952 941 l0 -100 -150 0 -150 0 0 -940
0 -940 -140 0 -140 0 0 940 0 940 -150 0 -150 0 0 100 0 100 440 0 440 0 0
-100z"/>
<path d="M4205 9978 c-3 -7 -4 -713 -3 -1568 l3 -1555 5 1568 c3 862 4 1567 2
1567 -1 0 -5 -6 -7 -12z"/>
<path d="M4812 9983 c322 -2 853 -2 1180 0 326 1 62 2 -587 2 -649 0 -916 -1
-593 -2z"/>
<path d="M6660 9935 c24 -25 16 -35 -10 -12 -12 10 -12 9 -1 -5 11 -15 51 -21
51 -8 0 9 -45 50 -55 50 -5 0 2 -11 15 -25z"/>
<path d="M6741 9853 c19 -21 20 -25 6 -20 -11 4 -16 3 -12 -4 4 -6 13 -8 19
-6 22 9 35 -7 20 -21 -8 -7 -14 -8 -14 -2 0 5 -4 10 -9 10 -10 0 -25 -36 -26
-60 0 -8 -5 -15 -12 -15 -7 0 -18 -7 -25 -15 -11 -12 -11 -12 5 -1 9 7 17 10
17 6 0 -4 6 -2 14 5 8 6 12 19 9 27 -4 11 -2 14 5 9 7 -4 22 5 36 21 l25 28
-32 33 c-37 38 -61 44 -26 5z m19 -67 c0 -3 -4 -8 -10 -11 -5 -3 -10 -1 -10 4
0 6 5 11 10 11 6 0 10 -2 10 -4z"/>
<path d="M6646 9724 c-9 -24 -2 -26 12 -4 7 11 8 20 3 20 -5 0 -12 -7 -15 -16z"/>
<path d="M6660 9706 c0 -2 8 -10 18 -17 15 -13 16 -12 3 4 -13 16 -21 21 -21
13z"/>
<path d="M6657 9674 c5 -13 3 -15 -7 -9 -8 5 -11 4 -7 -2 9 -14 -36 -61 -53
-55 -13 5 -13 3 -1 -11 12 -15 17 -13 47 26 36 45 39 53 24 62 -6 4 -7 -1 -3
-11z"/>
<path d="M6583 9648 c-15 -20 -25 -38 -20 -38 3 0 12 11 21 25 17 26 16 35 -1
13z"/>
<path d="M6574 9556 c-10 -8 -17 -16 -14 -19 3 -2 14 4 24 14 23 22 18 25 -10
5z"/>
<path d="M6532 9494 c-17 -12 -22 -12 -22 -2 0 9 -3 9 -10 -2 -5 -8 -7 -23 -4
-34 4 -12 2 -16 -5 -12 -6 4 -11 2 -11 -3 0 -16 20 -13 26 4 4 8 10 12 15 9 5
-3 6 3 2 12 -5 13 -3 15 8 9 8 -4 11 -5 7 0 -4 4 0 14 10 21 24 19 11 17 -16
-2z"/>
<path d="M7905 9456 c-33 -7 -154 -43 -270 -81 -451 -145 -525 -167 -667 -196
-94 -19 -181 -30 -238 -30 -116 -1 -120 -19 -12 -47 216 -58 291 -57 579 13
125 31 282 72 348 91 186 55 245 65 456 71 299 9 472 -17 769 -117 276 -92
388 -113 605 -114 172 -1 184 0 260 27 117 40 122 47 38 47 -164 0 -453 59
-688 140 -291 100 -450 145 -639 181 -140 27 -449 35 -541 15z"/>
<path d="M6470 9398 c0 -16 -4 -28 -9 -28 -10 0 -24 -38 -22 -60 1 -11 -2 -11
-13 3 -13 17 -14 16 -12 -17 2 -25 -1 -36 -13 -40 -10 -3 -8 -4 4 -3 13 2 19
9 17 21 -2 10 1 15 7 12 5 -4 14 10 20 30 6 20 17 45 26 54 13 14 14 23 6 37
-9 16 -10 15 -11 -9z"/>
<path d="M6356 9247 c3 -10 9 -15 12 -12 3 3 0 11 -7 18 -10 9 -11 8 -5 -6z"/>
<path d="M6375 9200 c-24 -25 -30 -41 -32 -83 -1 -38 1 -47 8 -34 6 9 8 21 5
26 -8 13 4 42 15 35 5 -3 6 2 3 10 -3 9 -1 16 5 16 6 0 8 7 5 15 -4 8 -2 15 4
15 5 0 12 7 16 15 8 21 4 19 -29 -15z m-12 -35 c-3 -9 -8 -14 -10 -11 -3 3 -2
9 2 15 9 16 15 13 8 -4z"/>
<path fill="#352e66" d="M7925 9165 c-131 -21 -235 -49 -520 -140 -234 -75 -282 -87 -362 -92
-110 -7 -127 -18 -100 -65 23 -40 22 -42 -19 -57 -55 -20 -114 -79 -146 -146
-31 -66 -36 -113 -14 -121 8 -3 46 13 84 35 77 46 168 81 209 81 51 0 153 -30
191 -55 56 -37 85 -95 85 -166 -1 -114 -71 -185 -191 -196 -50 -5 -197 15
-250 34 -10 3 -2 -10 19 -33 150 -161 394 -510 488 -699 l59 -116 6 44 c19
126 25 301 20 572 -3 165 -2 329 3 364 l8 64 80 -61 c128 -96 200 -167 327
-319 170 -204 407 -421 593 -544 251 -167 486 -235 718 -209 233 27 351 90
417 224 77 155 55 327 -55 445 -67 71 -111 86 -260 86 -137 0 -175 -13 -235
-81 -101 -116 -108 -273 -17 -368 70 -72 158 -85 244 -36 95 55 117 147 61
259 -20 40 -29 47 -68 57 -44 11 -44 11 -17 19 43 12 125 0 155 -22 15 -11 38
-35 50 -54 21 -30 23 -43 20 -109 -5 -80 -32 -151 -72 -189 -39 -36 -143 -81
-212 -90 -167 -24 -421 53 -635 192 -98 63 -291 237 -537 485 -231 233 -241
244 -205 239 212 -34 548 -39 728 -12 225 34 481 108 683 199 107 48 247 94
421 137 63 15 139 41 170 56 l56 28 -123 7 c-157 8 -174 12 -497 113 -537 166
-687 207 -879 235 -157 23 -356 25 -481 5z m586 -161 c46 -8 140 -30 209 -49
169 -46 588 -183 595 -196 9 -14 -139 -80 -274 -123 -172 -54 -488 -112 -718
-132 -48 -4 -83 -3 -83 2 0 5 16 18 35 28 49 27 122 108 148 164 32 68 29 176
-6 260 -30 73 -35 71 94 46z m-191 -40 c68 -108 63 -217 -16 -325 -63 -84
-121 -111 -260 -117 -125 -6 -161 5 -212 63 -44 50 -82 151 -82 218 0 53 43
144 76 159 39 18 71 3 78 -36 9 -49 -13 -95 -65 -139 l-44 -36 23 -43 c55
-104 230 -168 336 -124 90 38 161 149 161 251 -1 54 -10 84 -53 168 -2 4 4 7
12 7 9 0 30 -21 46 -46z m-647 -26 c-4 -18 -8 -76 -7 -128 0 -84 4 -102 28
-150 16 -30 40 -68 55 -84 l26 -28 -25 7 c-39 12 -294 109 -420 161 -85 35
-133 49 -185 53 -50 4 -70 10 -70 20 0 21 21 28 116 41 54 7 159 36 275 75
104 35 195 64 202 64 10 1 12 -7 5 -31z"/>
<path d="M6327 9053 c-4 -3 -7 -11 -7 -17 0 -6 5 -5 12 2 6 6 9 14 7 17 -3 3
-9 2 -12 -2z"/>
<path d="M6268 9013 c7 -3 16 -2 19 1 4 3 -2 6 -13 5 -11 0 -14 -3 -6 -6z"/>
<path d="M6285 8990 c-3 -5 -1 -10 4 -10 6 0 11 5 11 10 0 6 -2 10 -4 10 -3 0
-8 -4 -11 -10z"/>
<path d="M6257 8983 c-4 -3 -7 -13 -7 -22 1 -13 3 -13 11 2 11 19 8 33 -4 20z"/>
<path d="M6291 8956 c-9 -10 -8 -15 2 -19 8 -3 13 3 13 14 0 23 0 23 -15 5z"/>
<path d="M6277 8892 c4 -24 2 -31 -8 -29 -8 2 -10 2 -6 -1 4 -2 5 -20 2 -40
-5 -37 -5 -37 6 -7 18 51 27 95 19 90 -5 -3 -11 1 -13 7 -3 7 -3 -2 0 -20z"/>
<path d="M6250 8775 c0 -5 5 -17 10 -25 5 -8 10 -10 10 -5 0 6 -5 17 -10 25
-5 8 -10 11 -10 5z"/>
<path d="M6242 8600 c0 -14 2 -19 5 -12 2 6 2 18 0 25 -3 6 -5 1 -5 -13z"/>
<path d="M6240 8164 c0 -10 5 -26 10 -34 8 -11 9 -7 4 15 -8 37 -14 45 -14 19z"/>
<path d="M6257 8063 c-10 -10 -8 -43 2 -43 5 0 8 11 7 25 0 14 -1 25 -2 25 0
0 -4 -3 -7 -7z"/>
<path d="M3072 8024 c-9 -30 -8 -39 4 -51 7 -8 14 -10 14 -4 0 5 -4 12 -9 16
-6 3 -6 17 1 36 6 16 8 32 6 35 -3 2 -10 -12 -16 -32z"/>
<path d="M13066 8031 c-4 -5 -2 -20 3 -32 8 -22 8 -22 13 9 4 30 -4 43 -16 23z"/>
<path d="M13101 8028 c0 -9 -4 -25 -7 -35 -5 -17 -5 -17 6 0 6 10 9 25 7 35
-4 15 -5 15 -6 0z"/>
<path d="M6271 7994 c0 -11 3 -14 6 -6 3 7 2 16 -1 19 -3 4 -6 -2 -5 -13z"/>
<path d="M13046 7985 c-9 -26 -7 -32 5 -12 6 10 9 21 6 23 -2 3 -7 -2 -11 -11z"/>
<path d="M13392 7980 c0 -14 2 -19 5 -12 2 6 2 18 0 25 -3 6 -5 1 -5 -13z"/>
<path d="M3102 7960 c0 -19 2 -27 5 -17 2 9 2 25 0 35 -3 9 -5 1 -5 -18z"/>
<path d="M3370 7955 c0 -8 4 -15 10 -15 5 0 7 7 4 15 -4 8 -8 15 -10 15 -2 0
-4 -7 -4 -15z"/>
<path d="M3412 7944 c-7 -8 -10 -19 -6 -26 5 -7 10 -3 16 12 10 28 7 33 -10
14z"/>
<path d="M3050 7940 c0 -5 5 -10 11 -10 5 0 7 5 4 10 -3 6 -8 10 -11 10 -2 0
-4 -4 -4 -10z"/>
<path d="M6251 7934 c0 -11 3 -14 6 -6 3 7 2 16 -1 19 -3 4 -6 -2 -5 -13z"/>
<path d="M6277 7936 c-10 -27 -8 -66 3 -66 6 0 15 -12 21 -26 5 -15 12 -24 15
-22 7 7 -17 58 -28 58 -4 0 -8 10 -8 23 0 18 2 19 10 7 11 -18 12 -4 1 24 -7
18 -8 18 -14 2z"/>
<path d="M3035 7910 c-3 -5 -1 -10 4 -10 6 0 11 5 11 10 0 6 -2 10 -4 10 -3 0
-8 -4 -11 -10z"/>
<path d="M13021 7904 c0 -11 3 -14 6 -6 3 7 2 16 -1 19 -3 4 -6 -2 -5 -13z"/>
<path d="M3026 7875 c-9 -26 -7 -32 5 -12 6 10 9 21 6 23 -2 3 -7 -2 -11 -11z"/>
<path d="M12996 7836 c-3 -13 -9 -31 -12 -40 -3 -9 -2 -16 4 -16 5 0 12 17 15
37 7 43 2 56 -7 19z"/>
<path d="M3007 7826 c-5 -13 -3 -17 10 -14 9 2 18 10 20 18 4 12 3 12 -5 1 -8
-11 -10 -11 -14 0 -3 9 -6 8 -11 -5z"/>
<path d="M3373 7815 c-3 -9 -3 -18 -1 -21 3 -3 8 4 11 16 6 23 -1 27 -10 5z"/>
<path d="M13010 7803 c0 -4 5 -15 10 -23 8 -13 10 -13 10 2 0 9 -4 20 -10 23
-5 3 -10 3 -10 -2z"/>
<path d="M2996 7785 c-9 -26 -7 -32 5 -12 6 10 9 21 6 23 -2 3 -7 -2 -11 -11z"/>
<path d="M3026 7785 c-9 -26 -7 -32 5 -12 6 10 9 21 6 23 -2 3 -7 -2 -11 -11z"/>
<path d="M6333 7743 c1 -18 6 -28 10 -24 4 4 3 18 -2 32 -9 23 -9 22 -8 -8z"/>
<path d="M12970 7761 c0 -6 4 -13 10 -16 6 -3 7 1 4 9 -7 18 -14 21 -14 7z"/>
<path d="M12996 7755 c4 -8 8 -15 10 -15 2 0 4 7 4 15 0 8 -4 15 -10 15 -5 0
-7 -7 -4 -15z"/>
<path d="M3010 7740 c18 -12 30 -13 30 -2 0 4 -10 9 -22 9 -18 2 -20 0 -8 -7z"/>
<path d="M3323 7724 c-8 -8 -9 -15 -3 -19 6 -3 10 0 10 7 0 11 2 10 9 0 6 -11
10 -10 15 4 3 9 4 19 1 22 -3 3 -5 -1 -5 -9 0 -10 -3 -10 -8 -3 -5 9 -10 8
-19 -2z"/>
<path d="M2980 7714 c0 -8 5 -12 10 -9 6 4 8 11 5 16 -9 14 -15 11 -15 -7z"/>
<path d="M3022 7685 c0 -16 2 -22 5 -12 2 9 2 23 0 30 -3 6 -5 -1 -5 -18z"/>
<path d="M6340 7691 c-14 -27 -3 -56 16 -40 8 6 14 19 14 27 0 13 -3 12 -15
-4 -17 -22 -20 -12 -5 17 6 10 8 19 6 19 -3 0 -10 -9 -16 -19z"/>
<path d="M12947 7680 c-3 -11 -1 -20 4 -20 5 0 9 9 9 20 0 11 -2 20 -4 20 -2
0 -6 -9 -9 -20z"/>
<path d="M2965 7680 c-3 -5 -1 -10 4 -10 6 0 11 5 11 10 0 6 -2 10 -4 10 -3 0
-8 -4 -11 -10z"/>
<path d="M3308 7655 c-3 -11 -2 -28 1 -38 5 -14 9 -12 18 13 6 16 8 28 3 25
-5 -3 -10 0 -12 7 -3 7 -7 4 -10 -7z"/>
<path d="M6370 7633 c0 -13 5 -23 10 -23 6 0 10 -6 10 -13 0 -7 7 -22 15 -33
14 -18 15 -18 6 6 -5 14 -16 39 -25 55 -14 27 -16 28 -16 8z"/>
<path d="M2945 7630 c-3 -5 -1 -10 4 -10 6 0 11 5 11 10 0 6 -2 10 -4 10 -3 0
-8 -4 -11 -10z"/>
<path d="M12940 7610 c6 -11 13 -20 16 -20 2 0 0 9 -6 20 -6 11 -13 20 -16 20
-2 0 0 -9 6 -20z"/>
<path d="M3291 7610 c0 -8 4 -22 9 -30 12 -18 12 -2 0 25 -6 13 -9 15 -9 5z"/>
<path d="M12917 7587 c-3 -7 3 -13 14 -13 13 0 15 3 7 13 -6 7 -12 13 -13 13
-2 0 -5 -6 -8 -13z"/>
<path d="M2938 7568 c-16 -14 -34 -53 -19 -43 5 3 12 -1 15 -7 3 -7 3 -3 0 10
-3 12 -1 22 4 22 6 0 12 7 16 15 7 18 4 19 -16 3z"/>
<path d="M3286 7545 c-3 -9 -6 -22 -5 -28 0 -7 5 -1 10 12 5 13 8 26 5 28 -2
2 -6 -3 -10 -12z"/>
<path d="M12900 7541 c0 -6 4 -13 10 -16 6 -3 7 1 4 9 -7 18 -14 21 -14 7z"/>
<path d="M6420 7531 c0 -5 5 -13 10 -16 6 -3 10 -2 10 4 0 5 -4 13 -10 16 -5
3 -10 2 -10 -4z"/>
<path d="M12890 7510 c0 -5 5 -10 11 -10 5 0 7 5 4 10 -3 6 -8 10 -11 10 -2 0
-4 -4 -4 -10z"/>
<path d="M2897 7478 c-9 -31 -2 -33 11 -3 6 14 8 25 3 25 -5 0 -11 -10 -14
-22z"/>
<path d="M3212 7475 c0 -16 2 -22 5 -12 2 9 2 23 0 30 -3 6 -5 -1 -5 -18z"/>
<path d="M6440 7487 c0 -9 5 -19 11 -23 6 -3 9 -14 6 -23 -3 -11 2 -17 14 -18
16 -2 16 1 -4 35 -27 48 -27 48 -27 29z"/>
<path d="M3260 7479 c0 -5 5 -7 10 -4 6 3 10 8 10 11 0 2 -4 4 -10 4 -5 0 -10
-5 -10 -11z"/>
<path d="M6412 7470 c0 -14 2 -19 5 -12 2 6 2 18 0 25 -3 6 -5 1 -5 -13z"/>
<path d="M12895 7480 c-3 -5 -1 -10 4 -10 6 0 11 5 11 10 0 6 -2 10 -4 10 -3
0 -8 -4 -11 -10z"/>
<path d="M2906 7445 c-9 -26 -7 -32 5 -12 6 10 9 21 6 23 -2 3 -7 -2 -11 -11z"/>
<path d="M3240 7451 c0 -6 5 -13 10 -16 6 -3 10 1 10 9 0 9 -4 16 -10 16 -5 0
-10 -4 -10 -9z"/>
<path d="M6426 7445 c-9 -26 -7 -32 5 -12 6 10 9 21 6 23 -2 3 -7 -2 -11 -11z"/>
<path d="M12874 7432 c-6 -4 -14 -20 -18 -37 -4 -16 -6 -28 -3 -25 5 6 36 70
34 70 -1 0 -7 -4 -13 -8z"/>
<path d="M6483 7388 c1 -15 6 -23 11 -18 4 4 4 16 -2 26 -9 16 -10 14 -9 -8z"/>
<path d="M2865 7373 c-5 -15 -9 -31 -9 -35 -1 -3 -4 -10 -8 -14 -5 -4 -8 -11
-8 -16 0 -5 7 -3 15 6 9 8 14 19 13 23 -1 4 2 18 6 31 4 13 6 26 3 28 -2 3 -8
-8 -12 -23z"/>
<path d="M3220 7366 c0 -9 5 -16 10 -16 6 0 10 4 10 9 0 6 -4 13 -10 16 -5 3
-10 -1 -10 -9z"/>
<path d="M6512 7360 c2 -8 -3 -14 -10 -12 -8 1 -11 -2 -7 -7 3 -6 12 -8 20 -4
10 3 15 -1 15 -15 0 -11 7 -22 15 -26 9 -3 12 -12 9 -23 -5 -15 -4 -15 5 -3 7
11 4 24 -11 50 -27 45 -40 60 -36 40z"/>
<path d="M12842 7335 c0 -16 2 -22 5 -12 2 9 2 23 0 30 -3 6 -5 -1 -5 -18z"/>
<path d="M3215 7330 c3 -5 8 -10 11 -10 2 0 4 5 4 10 0 6 -5 10 -11 10 -5 0
-7 -4 -4 -10z"/>
<path d="M3200 7305 c0 -8 4 -15 10 -15 5 0 7 7 4 15 -4 8 -8 15 -10 15 -2 0
-4 -7 -4 -15z"/>
<path d="M12819 7283 c-1 -10 -1 -23 0 -30 1 -6 -3 -14 -8 -17 -5 -3 -7 -15
-4 -26 3 -11 9 -17 14 -14 5 3 7 8 5 12 -2 4 -1 26 4 50 4 23 3 42 -1 42 -5 0
-10 -8 -10 -17z"/>
<path d="M2858 7260 c2 -16 6 -30 8 -30 2 0 4 14 4 30 0 17 -4 30 -8 30 -5 0
-7 -13 -4 -30z"/>
<path d="M6491 7274 c0 -11 3 -14 6 -6 3 7 2 16 -1 19 -3 4 -6 -2 -5 -13z"/>
<path d="M6520 7275 c0 -8 4 -15 10 -15 5 0 7 7 4 15 -4 8 -8 15 -10 15 -2 0
-4 -7 -4 -15z"/>
<path d="M6575 7226 c0 -26 4 -43 11 -43 7 0 10 6 7 13 -2 6 0 15 6 19 6 3 11
2 11 -4 0 -5 12 -23 27 -38 27 -29 24 -21 -13 34 -12 18 -24 29 -28 26 -3 -4
-6 1 -6 10 0 9 -3 18 -7 20 -5 3 -8 -14 -8 -37z"/>
<path d="M2811 7208 c-6 -17 -9 -33 -7 -36 3 -2 8 7 12 22 3 14 10 23 15 20 5
-3 9 -1 9 5 0 25 -19 18 -29 -11z"/>
<path d="M3131 7208 c0 -15 4 -30 10 -34 6 -3 8 -17 4 -31 -5 -21 -4 -22 8
-11 8 7 12 19 10 25 -3 7 1 13 8 13 10 0 10 3 3 8 -6 4 -14 14 -17 22 -4 11
-6 10 -7 -5 -2 -14 -5 -11 -10 10 l-8 30 -1 -27z"/>
<path d="M3175 7220 c3 -5 8 -10 11 -10 2 0 4 5 4 10 0 6 -5 10 -11 10 -5 0
-7 -4 -4 -10z"/>
<path d="M12841 7194 c0 -11 3 -14 6 -6 3 7 2 16 -1 19 -3 4 -6 -2 -5 -13z"/>
<path d="M12770 7135 c0 -8 4 -15 10 -15 5 0 7 7 4 15 -4 8 -8 15 -10 15 -2 0
-4 -7 -4 -15z"/>
<path d="M6644 7120 c0 -21 33 -23 40 -3 6 14 4 14 -11 2 -15 -12 -16 -12 -11
2 3 9 1 16 -6 16 -6 0 -12 -8 -12 -17z"/>
<path d="M2772 7093 c-6 -21 -8 -41 -3 -47 5 -6 11 -20 13 -31 2 -11 4 10 3
47 0 38 0 68 -1 68 0 0 -6 -17 -12 -37z"/>
<path d="M3123 7097 c-3 -6 -1 -7 6 -3 8 6 10 0 6 -21 -3 -15 -2 -21 1 -13 4
8 10 22 15 31 9 18 -17 23 -28 6z"/>
<path d="M6690 7106 c0 -2 7 -7 16 -10 8 -3 12 -2 9 4 -6 10 -25 14 -25 6z"/>
<path d="M6720 7064 c0 -8 5 -12 10 -9 6 4 8 11 5 16 -9 14 -15 11 -15 -7z"/>
<path d="M12762 7050 c0 -19 2 -27 5 -17 2 9 2 25 0 35 -3 9 -5 1 -5 -18z"/>
<path d="M6729 7033 c-13 -17 -13 -17 6 -3 11 8 22 16 24 17 2 2 0 3 -6 3 -6
0 -17 -8 -24 -17z"/>
<path d="M12741 7030 c0 -15 -5 -30 -10 -35 -15 -17 -23 -55 -12 -55 6 0 11
11 11 24 0 13 5 26 11 28 6 2 9 17 6 33 -4 27 -4 28 -6 5z"/>
<path d="M2751 7010 c0 -33 1 -34 11 -12 8 17 8 26 0 34 -9 9 -12 4 -11 -22z"/>
<path d="M6760 7019 c0 -8 14 -23 30 -32 17 -10 30 -23 30 -28 0 -6 -5 -7 -12
-3 -7 4 -8 3 -4 -4 4 -6 13 -9 21 -5 9 3 15 -1 15 -8 1 -8 20 -27 43 -44 45
-32 76 -47 42 -20 -11 8 -53 47 -92 87 -40 39 -73 64 -73 57z"/>
<path d="M3106 6985 c-4 -19 -12 -37 -17 -41 -8 -4 -9 5 -5 27 6 34 6 34 -5 6
-8 -21 -8 -32 0 -40 14 -14 15 -30 1 -22 -5 3 -10 2 -10 -4 0 -5 4 -12 10 -16
5 -3 14 13 20 36 6 23 16 52 20 65 5 13 6 24 1 24 -5 0 -12 -16 -15 -35z"/>
<path d="M6725 7000 c4 -6 11 -8 16 -5 14 9 11 15 -7 15 -8 0 -12 -5 -9 -10z"/>
<path d="M13075 6989 c-4 -6 -5 -12 -2 -15 2 -3 7 2 10 11 7 17 1 20 -8 4z"/>
<path d="M3052 6970 c0 -14 2 -19 5 -12 2 6 2 18 0 25 -3 6 -5 1 -5 -13z"/>
<path d="M2727 6961 c-4 -17 -3 -21 5 -13 5 5 8 16 6 23 -3 8 -7 3 -11 -10z"/>
<path d="M6720 6961 c0 -10 19 -25 25 -20 1 2 -3 10 -11 17 -8 7 -14 8 -14 3z"/>
<path d="M12751 6954 c0 -11 3 -14 6 -6 3 7 2 16 -1 19 -3 4 -6 -2 -5 -13z"/>
<path d="M6805 6920 c4 -6 11 -8 16 -5 14 9 11 15 -7 15 -8 0 -12 -5 -9 -10z"/>
<path d="M9659 6904 c-13 -16 -23 -51 -11 -39 4 4 7 12 7 18 1 7 7 11 14 9 7
-1 10 2 6 8 -12 19 12 10 31 -12 18 -20 18 -21 1 -15 -10 4 -16 3 -12 -2 6
-11 45 -11 45 -1 0 10 -45 50 -57 50 -6 0 -17 -7 -24 -16z"/>
<path d="M12711 6904 c0 -11 3 -14 6 -6 3 7 2 16 -1 19 -3 4 -6 -2 -5 -13z"/>
<path d="M12688 6882 c-5 -18 -2 -22 15 -22 13 0 17 3 11 8 -6 4 -13 14 -16
22 -3 10 -6 8 -10 -8z"/>
<path d="M2704 6874 c-3 -10 -10 -29 -15 -42 -12 -30 -11 -35 2 -26 9 5 10 -1
5 -20 -5 -20 -3 -26 5 -21 6 4 9 19 5 36 -3 16 -1 41 5 55 5 15 7 29 5 32 -3
3 -8 -4 -12 -14z"/>
<path d="M9606 6865 c-11 -8 -15 -15 -9 -15 6 0 16 7 23 15 16 19 11 19 -14 0z"/>
<path d="M3062 6844 c-1 -13 0 -24 2 -24 7 0 14 40 7 44 -4 3 -8 -6 -9 -20z"/>
<path d="M9750 6854 c0 -6 11 -21 25 -34 13 -12 22 -27 19 -32 -3 -5 0 -7 8
-6 11 3 13 -129 13 -740 0 -409 3 -733 7 -720 3 13 6 346 7 741 l1 718 -40 42
c-22 23 -40 37 -40 31z"/>
<path d="M12700 6839 c0 -5 5 -7 10 -4 6 3 10 8 10 11 0 2 -4 4 -10 4 -5 0
-10 -5 -10 -11z"/>
<path d="M4201 6823 c-1 -18 4 -23 22 -22 15 1 17 3 5 6 -9 2 -19 12 -21 21
-3 12 -5 10 -6 -5z"/>
<path d="M6575 6830 c3 -5 10 -10 16 -10 5 0 9 5 9 10 0 6 -7 10 -16 10 -8 0
-12 -4 -9 -10z"/>
<path d="M6625 6830 c-3 -5 -1 -10 4 -10 6 0 11 5 11 10 0 6 -2 10 -4 10 -3 0
-8 -4 -11 -10z"/>
<path d="M6984 6812 c17 -18 34 -32 38 -32 15 0 0 18 -35 41 l-32 22 29 -31z"/>
<path d="M9559 6812 c-13 -15 -20 -24 -15 -20 5 4 15 3 23 -3 7 -6 14 -9 14
-5 1 3 2 9 3 14 1 4 5 12 9 19 16 25 -11 21 -34 -5z m22 5 c-6 -8 -7 -18 -3
-22 4 -5 1 -5 -6 -1 -10 6 -10 11 -1 22 6 8 14 14 16 14 3 0 0 -6 -6 -13z"/>
<path d="M6956 6803 c-11 -12 -6 -19 14 -20 11 -1 20 2 20 7 0 10 -26 20 -34
13z"/>
<path d="M12660 6783 c0 -21 3 -24 9 -14 5 8 7 20 4 28 -8 21 -13 15 -13 -14z"/>
<path d="M9511 6786 c-9 -11 -9 -16 1 -22 7 -4 10 -4 6 1 -4 4 -3 14 3 22 6 7
9 13 6 13 -2 0 -10 -6 -16 -14z"/>
<path d="M3000 6770 c0 -5 5 -10 10 -10 6 0 10 5 10 10 0 6 -4 10 -10 10 -5 0
-10 -4 -10 -10z"/>
<path d="M3030 6770 c0 -5 5 -10 10 -10 6 0 10 5 10 10 0 6 -4 10 -10 10 -5 0
-10 -4 -10 -10z"/>
<path   d="M7044 6752 c3 -41 14 -54 35 -42 10 5 21 6 25 3 4 -4 13 -8 22 -9 12
-2 13 0 3 12 -6 8 -14 12 -17 9 -3 -3 -12 1 -20 8 -13 10 -14 9 -8 -2 6 -9 5
-12 -5 -9 -8 3 -13 11 -11 17 1 7 -4 19 -12 26 -13 13 -14 11 -12 -13z"/>
<path d="M9775 6060 c0 -399 1 -562 2 -362 2 199 2 525 0 725 -1 199 -2 36 -2
-363z"/>
<path d="M12991 6743 c-7 -21 -15 -45 -18 -53 -5 -13 -4 -13 9 0 13 14 35 90
25 90 -2 0 -9 -17 -16 -37z"/>
<path d="M2656 6729 c-9 -23 -15 -43 -13 -46 3 -2 12 15 21 38 9 23 15 43 13
46 -3 2 -12 -15 -21 -38z"/>
<path d="M6632 6030 c-1 -409 1 -740 6 -735 4 6 5 341 2 745 l-5 735 -3 -745z"/>
<path d="M9440 6730 c-96 -64 -143 -95 -149 -95 -3 -1 -22 -9 -41 -20 -19 -10
-51 -26 -70 -36 l-35 -17 49 3 c27 2 54 9 60 15 8 9 6 11 -11 5 -13 -3 -23 -4
-23 -1 0 7 60 39 79 42 7 2 18 7 24 13 15 15 30 14 21 -1 -4 -7 -3 -8 5 -4 6
4 9 12 6 17 -4 5 5 13 18 18 13 5 27 17 31 26 3 10 12 15 21 11 22 -8 45 3 38
20 -5 12 7 19 30 15 4 0 7 4 7 9 0 16 -13 12 -60 -20z m10 -10 c0 -5 -5 -10
-11 -10 -5 0 -7 5 -4 10 3 6 8 10 11 10 2 0 4 -4 4 -10z"/>
<path d="M3010 6716 c-5 -15 -14 -25 -19 -22 -5 4 -7 -3 -4 -14 8 -28 22 -35
16 -8 -4 19 -3 20 7 8 10 -13 11 -13 7 0 -2 8 0 23 5 33 5 10 7 21 4 24 -3 3
-10 -6 -16 -21z"/>
<path d="M12637 6720 c-3 -11 -1 -20 4 -20 5 0 9 9 9 20 0 11 -2 20 -4 20 -2
0 -6 -9 -9 -20z"/>
<path d="M12660 6718 c0 -19 2 -20 10 -8 13 19 13 30 0 30 -5 0 -10 -10 -10
-22z"/>
<path d="M9486 6712 c-2 -4 4 -8 14 -8 10 0 16 4 14 8 -3 4 -9 8 -14 8 -5 0
-11 -4 -14 -8z"/>
<path d="M7155 6680 c3 -5 11 -10 16 -10 6 0 7 5 4 10 -3 6 -11 10 -16 10 -6
0 -7 -4 -4 -10z"/>
<path d="M12625 6670 c-3 -5 -1 -10 4 -10 6 0 11 5 11 10 0 6 -2 10 -4 10 -3
0 -8 -4 -11 -10z"/>
<path d="M7199 6661 c7 -5 11 -13 7 -19 -3 -6 -1 -14 5 -18 8 -4 9 -3 5 4 -4
7 -1 12 8 12 8 0 18 -4 21 -10 3 -5 14 -10 23 -10 9 0 -3 11 -27 25 -40 23
-73 36 -42 16z"/>
<path d="M2980 6636 c0 -8 4 -17 9 -20 5 -4 7 3 4 14 -6 23 -13 26 -13 6z"/>
<path d="M12610 6641 c0 -5 5 -13 10 -16 6 -3 10 -2 10 4 0 5 -4 13 -10 16 -5
3 -10 2 -10 -4z"/>
<path d="M2625 6620 c6 -30 16 -40 12 -12 -2 12 -6 24 -10 28 -3 4 -4 -4 -2
-16z"/>
<path d="M7286 6604 c-3 -8 0 -14 7 -14 18 0 67 -24 67 -32 0 -5 5 -8 11 -8
17 0 -7 26 -46 49 -28 16 -34 17 -39 5z"/>
<path d="M2610 6581 c0 -5 5 -13 10 -16 6 -3 10 -2 10 4 0 5 -4 13 -10 16 -5
3 -10 2 -10 -4z"/>
<path d="M12575 6526 c-12 -36 -19 -66 -18 -66 9 0 44 96 41 113 -2 10 -12
-11 -23 -47z"/>
<path d="M2595 6550 c-4 -6 -7 -27 -7 -47 0 -26 -3 -32 -10 -22 -8 12 -9 12
-6 0 9 -33 26 -19 31 26 5 51 4 62 -8 43z"/>
<path d="M9106 6545 c-11 -8 -42 -21 -70 -30 -46 -13 -108 -44 -66 -32 8 2 29
-2 47 -10 50 -20 63 -15 18 7 -22 11 -30 18 -17 16 12 -2 20 0 16 5 -3 5 8 9
24 9 18 0 37 10 52 25 26 28 25 32 -4 10z"/>
<path d="M12622 6530 c0 -14 2 -19 5 -12 2 6 2 18 0 25 -3 6 -5 1 -5 -13z"/>
<path d="M2941 6526 c-10 -12 -8 -13 8 -9 12 3 18 9 15 14 -7 12 -10 11 -23
-5z"/>
<path d="M7448 6533 c7 -3 16 -2 19 1 4 3 -2 6 -13 5 -11 0 -14 -3 -6 -6z"/>
<path d="M7440 6516 c0 -2 7 -7 16 -10 8 -3 12 -2 9 4 -6 10 -25 14 -25 6z"/>
<path d="M7495 6510 c4 -6 0 -10 -7 -10 -9 0 -9 -3 2 -10 20 -13 39 -12 20 1
-11 7 -6 8 20 3 42 -8 38 -1 -8 14 -19 6 -30 7 -27 2z"/>
<path d="M12601 6504 c0 -11 3 -14 6 -6 3 7 2 16 -1 19 -3 4 -6 -2 -5 -13z"/>
<path d="M12921 6504 c0 -11 3 -14 6 -6 3 7 2 16 -1 19 -3 4 -6 -2 -5 -13z"/>
<path d="M2890 6490 c0 -5 5 -10 10 -10 6 0 10 5 10 10 0 6 -4 10 -10 10 -5 0
-10 -4 -10 -10z"/>
<path d="M2931 6486 c-8 -9 -8 -21 -2 -37 9 -21 16 -11 12 15 -1 4 4 14 10 22
7 8 7 14 1 14 -5 0 -15 -6 -21 -14z"/>
<path d="M7560 6481 l-25 -7 27 -6 c16 -3 25 -1 21 5 -3 5 4 6 18 2 19 -5 21
-4 9 4 -17 12 -15 12 -50 2z"/>
<path d="M8925 6470 c-3 -5 -1 -10 4 -10 6 0 11 5 11 10 0 6 -2 10 -4 10 -3 0
-8 -4 -11 -10z"/>
<path d="M12900 6464 c0 -8 5 -12 10 -9 6 4 8 11 5 16 -9 14 -15 11 -15 -7z"/>
<path d="M8840 6448 c-14 -5 -34 -12 -45 -14 -11 -3 -36 -9 -55 -14 -31 -8
-30 -9 14 -4 33 4 46 2 41 -5 -3 -6 -1 -11 4 -11 6 0 11 6 11 14 0 7 17 20 38
29 20 8 33 15 27 15 -5 1 -21 -4 -35 -10z"/>
<path d="M7720 6430 c8 -5 22 -10 30 -10 13 0 13 1 0 10 -8 5 -22 10 -30 10
-13 0 -13 -1 0 -10z"/>
<path d="M8850 6425 c-15 -8 -19 -14 -10 -14 18 -1 46 16 40 23 -3 2 -16 -2
-30 -9z"/>
<path d="M2551 6408 c-17 -48 -23 -83 -11 -72 6 6 13 24 16 40 2 16 7 35 9 42
2 6 2 12 -1 12 -2 0 -8 -10 -13 -22z"/>
<path d="M2905 6382 c-4 -24 -5 -46 -2 -49 8 -7 20 63 14 79 -2 7 -7 -6 -12
-30z"/>
<path d="M2881 6394 c0 -11 3 -14 6 -6 3 7 2 16 -1 19 -3 4 -6 -2 -5 -13z"/>
<path d="M7830 6400 c0 -6 7 -10 15 -10 8 0 15 2 15 4 0 2 -7 6 -15 10 -8 3
-15 1 -15 -4z"/>
<path d="M12528 6383 c-3 -15 -8 -37 -12 -48 -7 -19 -7 -19 7 -2 11 14 16 15
21 5 3 -7 4 4 2 25 -5 48 -12 56 -18 20z"/>
<path d="M7708 6393 c7 -3 16 -2 19 1 4 3 -2 6 -13 5 -11 0 -14 -3 -6 -6z"/>
<path d="M7908 6393 c6 -2 18 -2 25 0 6 3 1 5 -13 5 -14 0 -19 -2 -12 -5z"/>
<path d="M8619 6389 c14 -6 35 -6 50 -1 22 7 18 9 -24 9 -41 1 -46 -1 -26 -8z"/>
<path d="M8828 6393 c7 -3 16 -2 19 1 4 3 -2 6 -13 5 -11 0 -14 -3 -6 -6z"/>
<path d="M8110 6366 c0 -9 5 -16 10 -16 6 0 10 4 10 9 0 6 -4 13 -10 16 -5 3
-10 -1 -10 -9z"/>
<path d="M8416 6365 c-3 -8 -1 -15 4 -15 6 0 10 7 10 15 0 8 -2 15 -4 15 -2 0
-6 -7 -10 -15z"/>
<path d="M8155 6360 c-3 -5 -1 -10 4 -10 6 0 11 5 11 10 0 6 -2 10 -4 10 -3 0
-8 -4 -11 -10z"/>
<path d="M8204 6358 c-3 -4 30 -8 73 -7 89 1 87 6 -5 11 -35 3 -65 1 -68 -4z"/>
<path d="M8085 6330 c3 -5 8 -10 11 -10 2 0 4 5 4 10 0 6 -5 10 -11 10 -5 0
-7 -4 -4 -10z"/>
<path d="M8363 6333 c9 -2 23 -2 30 0 6 3 -1 5 -18 5 -16 0 -22 -2 -12 -5z"/>
<path d="M2883 6302 c-1 -22 0 -24 9 -8 6 10 6 22 2 26 -5 5 -10 -3 -11 -18z"/>
<path d="M2516 6304 c-11 -28 -6 -44 12 -43 10 0 12 3 5 6 -21 8 -16 33 5 26
15 -6 15 -5 3 10 -17 21 -17 21 -25 1z"/>
<path d="M8168 6313 c7 -3 16 -2 19 1 4 3 -2 6 -13 5 -11 0 -14 -3 -6 -6z"/>
<path d="M12501 6288 c0 -15 -5 -30 -11 -33 -12 -8 -13 -25 -1 -25 5 0 11 8
14 18 4 9 14 28 23 42 11 17 11 19 1 7 -15 -18 -15 -18 -20 0 -3 12 -5 9 -6
-9z"/>
<path d="M12542 6240 c0 -14 2 -19 5 -12 2 6 2 18 0 25 -3 6 -5 1 -5 -13z"/>
<path d="M2850 6240 c0 -5 7 -7 15 -4 8 4 15 8 15 10 0 2 -7 4 -15 4 -8 0 -15
-4 -15 -10z"/>
<path d="M12823 6222 c-1 -22 0 -24 9 -8 6 10 6 22 2 26 -5 5 -10 -3 -11 -18z"/>
<path d="M2492 6210 c-16 -25 -15 -31 2 -24 14 5 30 44 17 44 -3 0 -12 -9 -19
-20z"/>
<path d="M2835 6208 c3 -8 2 -26 -4 -40 -5 -13 -6 -30 -2 -37 11 -17 23 13 14
36 -4 11 -3 14 5 9 18 -11 15 19 -3 34 -13 11 -14 10 -10 -2z"/>
<path d="M2530 6190 c0 -5 5 -10 11 -10 5 0 7 5 4 10 -3 6 -8 10 -11 10 -2 0
-4 -4 -4 -10z"/>
<path d="M12811 6174 c0 -11 3 -14 6 -6 3 7 2 16 -1 19 -3 4 -6 -2 -5 -13z"/>
<path d="M12455 6161 c-4 -13 -4 -25 -1 -28 3 -4 6 2 6 13 0 16 2 17 10 4 5
-8 10 -10 10 -5 0 6 -4 16 -9 24 -7 11 -10 9 -16 -8z"/>
<path d="M2455 6104 c-8 -20 -15 -40 -15 -45 0 -12 17 -11 25 1 3 6 1 10 -6
10 -8 0 -8 4 -2 13 11 13 24 57 17 57 -2 0 -11 -16 -19 -36z"/>
<path d="M2810 6116 c0 -8 4 -17 9 -20 5 -4 7 3 4 14 -6 23 -13 26 -13 6z"/>
<path d="M12427 6067 c-9 -22 -15 -42 -12 -45 2 -3 9 8 15 24 6 16 15 31 20
34 5 3 6 11 2 17 -4 7 -14 -5 -25 -30z"/>
<path d="M2800 6071 c0 -6 4 -13 10 -16 6 -3 7 1 4 9 -7 18 -14 21 -14 7z"/>
<path d="M2425 6020 c-12 -39 -13 -71 -1 -67 6 2 10 19 9 38 -3 32 -2 33 12
15 8 -11 15 -16 15 -10 0 5 -7 17 -14 27 -14 18 -15 17 -21 -3z"/>
<path d="M2461 6035 c1 -19 18 -51 18 -35 0 8 -4 22 -9 30 -5 8 -9 11 -9 5z"/>
<path d="M2796 6025 c-3 -9 -6 -24 -5 -33 0 -9 5 -4 10 12 9 32 6 48 -5 21z"/>
<path d="M12426 6004 c-4 -9 -4 -19 -1 -22 2 -3 7 3 11 12 4 9 4 19 1 22 -2 3
-7 -3 -11 -12z"/>
<path d="M2776 5967 c3 -10 9 -15 12 -12 3 3 0 11 -7 18 -10 9 -11 8 -5 -6z"/>
<path d="M2450 5950 c0 -5 5 -10 10 -10 6 0 10 5 10 10 0 6 -4 10 -10 10 -5 0
-10 -4 -10 -10z"/>
<path d="M2756 5928 c5 -31 4 -32 -8 -11 -12 20 -13 17 -14 -30 0 -29 1 -42 4
-29 2 12 7 20 11 18 4 -3 12 9 18 27 7 25 7 36 -3 45 -11 10 -13 6 -8 -20z"/>
<path d="M12731 5934 c0 -11 3 -14 6 -6 3 7 2 16 -1 19 -3 4 -6 -2 -5 -13z"/>
<path d="M12375 5910 c-3 -11 -2 -27 2 -35 7 -11 9 -5 10 20 1 39 -3 44 -12
15z"/>
<path d="M2392 5895 c-17 -37 -14 -45 4 -12 9 16 14 31 11 33 -2 2 -9 -7 -15
-21z"/>
<path d="M12721 5894 c0 -11 3 -14 6 -6 3 7 2 16 -1 19 -3 4 -6 -2 -5 -13z"/>
<path d="M12354 5828 c3 -10 2 -18 -3 -18 -14 0 -21 -42 -10 -59 8 -13 9 -11
4 7 -4 12 -2 22 3 22 14 0 21 36 10 51 -8 11 -9 10 -4 -3z"/>
<path d="M2360 5810 c-6 -12 -8 -30 -4 -42 4 -14 2 -18 -5 -14 -7 4 -11 -1
-11 -13 0 -11 -4 -23 -10 -26 -5 -3 -10 -11 -10 -17 0 -7 6 -6 15 2 8 7 15 19
15 27 0 9 6 13 14 10 9 -4 12 0 9 13 -3 10 0 21 6 24 6 4 11 15 10 24 0 14 -2
13 -9 -3 -8 -19 -9 -19 -9 2 -1 12 5 24 12 26 9 4 9 6 0 6 -7 1 -17 -8 -23
-19z"/>
<path d="M2685 5718 c3 -16 1 -28 -5 -28 -5 0 -10 -4 -10 -10 0 -5 4 -10 9
-10 16 0 23 38 11 57 -9 15 -10 14 -5 -9z"/>
<path d="M12651 5694 c0 -11 3 -14 6 -6 3 7 2 16 -1 19 -3 4 -6 -2 -5 -13z"/>
<path d="M2310 5670 c0 -5 5 -10 10 -10 6 0 10 5 10 10 0 6 -4 10 -10 10 -5 0
-10 -4 -10 -10z"/>
<path d="M12297 5668 c-2 -7 -1 -22 3 -33 6 -16 8 -13 7 13 0 35 -2 39 -10 20z"/>
<path d="M2643 5655 c-3 -9 -3 -18 -1 -21 3 -3 8 4 11 16 6 23 -1 27 -10 5z"/>
<path d="M2656 5619 c-12 -30 -14 -45 -6 -57 9 -14 10 -13 4 7 -4 17 -3 21 6
16 9 -5 10 -2 5 14 -3 11 -2 21 3 21 5 0 12 9 15 20 9 36 -10 21 -27 -21z"/>
<path d="M2292 5611 c-8 -23 -7 -31 3 -35 7 -2 16 2 19 10 9 24 7 31 -5 14 -8
-12 -9 -9 -5 13 8 36 1 35 -12 -2z"/>
<path d="M12290 5602 c6 -13 14 -21 18 -18 3 4 -2 14 -12 24 -18 16 -18 16 -6
-6z"/>
<path d="M2280 5556 c0 -9 5 -16 10 -16 6 0 10 4 10 9 0 6 -4 13 -10 16 -5 3
-10 -1 -10 -9z"/>
<path d="M12251 5528 c-13 -38 -14 -41 -1 -33 6 3 10 15 10 26 0 11 5 17 10
14 6 -3 10 -2 10 4 0 25 -19 18 -29 -11z"/>
<path d="M12594 5535 c-3 -8 -4 -20 -2 -27 3 -7 7 -1 10 15 6 29 1 36 -8 12z"/>
<path d="M12286 5515 c-3 -8 -1 -15 4 -15 6 0 10 7 10 15 0 8 -2 15 -4 15 -2
0 -6 -7 -10 -15z"/>
<path d="M2266 5503 c-6 -14 -5 -15 5 -6 7 7 10 15 7 18 -3 3 -9 -2 -12 -12z"/>
<path d="M2303 5495 c-3 -9 -3 -18 -1 -21 3 -3 8 4 11 16 6 23 -1 27 -10 5z"/>
<path d="M2627 5503 c-4 -3 -7 -16 -6 -27 0 -19 1 -19 10 3 10 24 8 36 -4 24z"/>
<path d="M2251 5464 c0 -11 3 -14 6 -6 3 7 2 16 -1 19 -3 4 -6 -2 -5 -13z"/>
<path d="M2277 5465 c-4 -11 -10 -27 -13 -35 -3 -8 1 -5 11 8 9 12 15 28 13
34 -3 7 -7 4 -11 -7z"/>
<path d="M12220 5441 c0 -6 4 -13 10 -16 6 -3 7 1 4 9 -7 18 -14 21 -14 7z"/>
<path d="M2586 5423 c-4 -11 -3 -28 0 -38 7 -16 8 -16 16 4 4 13 4 30 -1 39
-7 13 -9 12 -15 -5z"/>
<path d="M12214 5408 c3 -10 1 -20 -4 -23 -13 -8 -13 -42 -1 -50 5 -3 13 0 17
6 4 8 3 9 -4 5 -14 -9 -15 -5 -3 27 6 15 6 29 -1 38 -8 11 -9 11 -4 -3z"/>
<path d="M2569 5375 c-6 -39 -5 -85 2 -73 4 7 6 24 3 38 -4 20 -3 22 5 10 13
-19 14 0 1 20 -5 8 -10 11 -11 5z"/>
<path d="M2202 5333 c-6 -20 -10 -39 -8 -41 2 -2 7 7 12 20 4 12 14 28 23 35
9 6 13 15 8 19 -4 4 -7 1 -7 -7 0 -11 -2 -11 -8 -1 -6 8 -12 0 -20 -25z"/>
<path d="M12221 5304 c0 -11 3 -14 6 -6 3 7 2 16 -1 19 -3 4 -6 -2 -5 -13z"/>
<path d="M12190 5299 c0 -5 5 -7 10 -4 6 3 10 8 10 11 0 2 -4 4 -10 4 -5 0
-10 -5 -10 -11z"/>
<path d="M12481 5294 c0 -11 3 -14 6 -6 3 7 2 16 -1 19 -3 4 -6 -2 -5 -13z"/>
<path d="M2206 5264 c-3 -9 -4 -19 -1 -22 3 -3 6 1 6 9 1 8 5 1 9 -16 7 -28 8
-28 9 -5 1 35 -14 58 -23 34z"/>
<path d="M12165 5270 c-3 -5 -1 -10 4 -10 6 0 11 5 11 10 0 6 -2 10 -4 10 -3
0 -8 -4 -11 -10z"/>
<path d="M9868 5263 c7 -3 16 -2 19 1 4 3 -2 6 -13 5 -11 0 -14 -3 -6 -6z"/>
<path d="M2171 5222 c-6 -12 -11 -27 -11 -34 0 -7 7 0 15 16 9 16 13 31 11 33
-2 3 -9 -4 -15 -15z"/>
<path d="M12505 5231 c-3 -5 -1 -12 5 -16 5 -3 10 1 10 9 0 18 -6 21 -15 7z"/>
<path d="M2140 5139 c0 -5 5 -7 10 -4 6 3 10 8 10 11 0 2 -4 4 -10 4 -5 0 -10
-5 -10 -11z"/>
<path d="M2130 5102 c0 -13 4 -21 9 -17 5 3 12 -3 14 -12 4 -14 5 -14 6 -2 0
8 -6 24 -14 35 -14 18 -14 18 -15 -4z"/>
<path d="M12430 5069 c0 -5 5 -7 10 -4 6 3 10 8 10 11 0 2 -4 4 -10 4 -5 0
-10 -5 -10 -11z"/>
<path d="M2113 5053 c-3 -10 -8 -21 -10 -25 -2 -5 2 -8 9 -8 7 0 14 11 14 25
2 29 -4 33 -13 8z"/>
<path d="M2135 5010 c-3 -6 1 -7 9 -4 18 7 21 14 7 14 -6 0 -13 -4 -16 -10z"/>
<path d="M2137 4961 c-4 -17 -3 -21 5 -13 5 5 8 16 6 23 -3 8 -7 3 -11 -10z"/>
</g>
</svg>
