<svg version="1.1" id="Layer_1" xmlns="http://www.w3.org/2000/svg" xmlns:xlink="http://www.w3.org/1999/xlink" x="0px" y="0px"
	 width="100%" viewBox="0 0 270 297" enable-background="new 0 0 270 297" xml:space="preserve">
<path fill="#000100" opacity="1.000000" stroke="none" 
	d="
M148.000000,298.000000 
	C98.688202,298.000000 49.876408,298.000000 1.032304,298.000000 
	C1.032304,199.065201 1.032304,100.130402 1.032304,1.097795 
	C90.895020,1.097795 180.790176,1.097795 270.842651,1.097795 
	C270.842651,99.999802 270.842651,198.999878 270.842651,298.000000 
	C230.130569,298.000000 189.315292,298.000000 148.000000,298.000000 
M136.316162,53.138813 
	C133.540970,54.753857 130.765778,56.368904 127.282478,58.046513 
	C124.455658,59.517220 121.628845,60.987923 118.083809,62.671665 
	C113.553238,64.717850 109.022675,66.764038 104.012535,68.872253 
	C103.629837,69.139030 103.247147,69.405807 102.061699,69.769028 
	C98.362206,70.809082 94.662720,71.849136 90.195213,72.955040 
	C86.424614,74.618256 82.654022,76.281471 78.168602,77.949219 
	C75.776756,79.366203 73.384918,80.783188 70.345177,82.323524 
	C67.846954,84.373993 65.348732,86.424461 62.212204,88.770103 
	C59.137550,92.172058 56.062893,95.574013 52.364559,99.269493 
	C48.490833,105.359856 44.617107,111.450218 40.196838,118.016708 
	C28.978313,140.237915 26.068810,163.673126 29.100229,187.976379 
	C29.537973,188.144043 29.975718,188.311707 30.413460,188.479370 
	C31.797480,186.741333 33.181499,185.003281 35.142395,182.994980 
	C39.071499,178.579681 43.000599,174.164368 47.631744,170.235870 
	C47.674217,172.819656 47.716686,175.403458 47.528809,178.846451 
	C47.722435,180.898575 47.916061,182.950714 47.959335,185.882248 
	C48.030746,188.256943 48.102158,190.631638 48.050415,193.811447 
	C48.578259,196.913239 49.106098,200.015030 49.731224,203.929214 
	C50.795696,207.628891 51.860168,211.328552 52.954594,215.804886 
	C56.544140,228.020966 62.768230,238.786331 71.154503,249.805267 
	C72.179886,243.708023 72.995117,238.860413 74.144707,233.476898 
	C74.424927,232.278061 74.705147,231.079239 75.598267,230.198502 
	C77.310394,232.618240 79.022522,235.037994 80.920883,238.093842 
	C83.930420,241.775970 86.939964,245.458099 90.159416,249.771347 
	C93.153877,252.740829 96.148338,255.710327 99.618973,259.154755 
	C104.071632,262.459167 108.524300,265.763611 113.329376,269.655060 
	C123.426331,275.759399 133.994598,280.685883 146.634140,283.368774 
	C145.137009,279.961395 144.048141,277.483154 143.027298,274.258728 
	C140.957199,267.509247 138.887100,260.759796 136.925781,253.191513 
	C136.288330,247.453598 135.650864,241.715683 135.656815,236.179352 
	C153.776917,254.048447 176.395111,261.812012 201.265182,264.879913 
	C194.498688,259.303345 187.732208,253.726761 180.667694,247.541870 
	C177.195648,243.662369 173.723602,239.782852 170.106964,235.214783 
	C167.697571,231.478409 165.288193,227.742035 162.781555,223.300919 
	C161.482056,220.202835 160.182571,217.104736 158.771332,213.267227 
	C157.812546,209.846390 156.853745,206.425552 156.010590,202.178604 
	C155.577805,199.123795 155.145035,196.068985 154.913330,192.114929 
	C154.907669,188.742981 154.901993,185.371017 155.126266,181.248428 
	C155.670715,177.849747 156.215179,174.451080 157.090851,170.375473 
	C157.699356,168.240250 158.307861,166.105042 159.502136,163.516190 
	C164.029022,162.376846 168.555923,161.237503 173.738708,160.225388 
	C174.169922,160.121689 174.601120,160.017990 175.493210,159.982300 
	C175.493210,159.982300 175.948044,159.881516 176.755905,160.054565 
	C177.847839,159.984818 178.939758,159.915054 180.901810,159.954910 
	C184.933151,160.575928 188.964508,161.196945 193.751114,162.065750 
	C201.498230,163.320908 209.245361,164.576065 217.878937,166.047424 
	C223.906387,165.077499 230.089310,164.655609 235.922485,163.000824 
	C243.442535,160.867523 249.437103,156.229996 253.694275,148.600113 
	C256.062744,142.461182 255.337662,140.563950 249.387741,138.386948 
	C245.677780,137.029556 241.851013,135.991455 237.714905,134.218994 
	C232.071640,130.682327 226.428375,127.145645 220.382034,123.014748 
	C217.935486,121.004921 215.488953,118.995087 212.764664,116.365303 
	C209.264221,113.085297 205.763763,109.805283 201.981064,105.946167 
	C199.917297,103.650696 197.853546,101.355232 196.243866,98.472412 
	C197.556595,94.323608 198.869324,90.174797 200.558304,85.355896 
	C200.900436,82.568237 201.242569,79.780579 201.866730,76.121429 
	C201.850449,73.077774 201.834183,70.034111 201.922302,66.113480 
	C201.427444,61.916389 200.932587,57.719296 200.448029,53.609459 
	C192.852661,60.417847 186.025391,66.537727 178.599655,72.894539 
	C175.412460,75.026100 172.225250,77.157661 168.256775,79.237610 
	C165.579926,77.951485 160.364319,78.790550 163.558212,72.557114 
	C164.004807,71.036568 164.451401,69.516029 165.072433,67.333702 
	C165.574997,65.879128 166.077560,64.424553 166.938629,62.245937 
	C167.352661,59.838558 167.766693,57.431179 168.545090,54.343575 
	C168.635986,52.559868 168.726883,50.776165 169.030304,48.179897 
	C168.984421,46.785831 168.938522,45.391762 169.047165,43.171120 
	C168.973923,41.779724 168.900696,40.388325 168.947937,38.139931 
	C168.499603,34.539463 168.051270,30.938999 167.606689,27.368673 
	C160.622635,33.912315 154.268829,39.865440 147.244400,46.004780 
	C143.827850,48.330910 140.411301,50.657043 136.316162,53.138813 
z"/>
<path fill="#ffec18" opacity="1.000000" stroke="none" 
	d="
M180.031693,159.845291 
	C178.939758,159.915054 177.847839,159.984818 176.236115,159.937256 
	C175.483673,159.766022 175.255676,159.797455 175.032333,159.914307 
	C174.601120,160.017990 174.169922,160.121689 173.047302,159.949860 
	C153.438492,157.753372 134.935745,159.524139 116.595993,165.995178 
	C109.481003,169.726776 102.720039,173.361038 95.780121,176.677155 
	C96.040283,171.213394 96.479401,166.067749 96.936752,160.928696 
	C96.954979,160.935287 96.953094,160.968781 97.146179,160.833832 
	C97.584122,160.500259 97.802864,160.276154 98.250427,159.880615 
	C98.998947,159.413162 99.492531,159.091660 100.320877,158.657227 
	C106.769035,156.669205 112.882431,154.794144 119.432266,152.937637 
	C124.903183,152.589554 129.937653,152.222900 135.432465,151.896118 
	C141.588303,152.252899 147.283783,152.569809 153.383545,152.963013 
	C159.847107,154.038177 165.906403,155.037033 172.260742,156.242264 
	C175.047775,157.580856 177.539734,158.713074 180.031693,159.845291 
z"/>
<path fill="#ffec18" opacity="1.000000" stroke="none" 
	d="
M213.042404,116.985260 
	C215.488953,118.995087 217.935486,121.004921 220.241470,123.518356 
	C213.400604,133.348587 206.700302,142.675217 199.603912,151.966705 
	C193.138351,150.288864 187.068878,148.646133 180.999390,146.752213 
	C180.999390,146.333618 180.999390,146.166199 181.115387,145.685883 
	C184.348434,141.130539 187.373398,136.816269 190.609894,132.667007 
	C193.521698,128.934021 196.113037,124.590317 199.862808,121.973358 
	C203.597412,119.366982 208.597305,118.573593 213.042404,116.985260 
z"/>
<path fill="#ffec18" opacity="1.000000" stroke="none" 
	d="
M200.000000,152.001831 
	C206.700302,142.675217 213.400604,133.348587 220.443008,123.815475 
	C226.428375,127.145645 232.071640,130.682327 237.854645,134.886841 
	C233.383636,142.211151 228.899231,148.962570 224.037170,155.430099 
	C223.232147,156.500946 220.688751,156.887268 219.098984,156.636642 
	C212.700607,155.627975 206.361191,154.245178 199.999939,152.750916 
	C199.999893,152.501221 200.000000,152.001831 200.000000,152.001831 
z"/>
<path fill="#ffec18" opacity="1.000000" stroke="none" 
	d="
M180.965714,248.150192 
	C187.732208,253.726761 194.498688,259.303345 201.265182,264.879913 
	C176.395111,261.812012 153.776917,254.048447 135.204529,235.789230 
	C133.843292,234.258041 132.934341,233.116974 131.991364,231.660858 
	C131.889221,230.928909 131.821075,230.512009 132.164703,230.086197 
	C135.701981,231.043610 138.956116,231.717957 141.930161,233.028152 
	C153.261765,238.020264 164.470413,243.292145 175.818954,248.244232 
	C177.248627,248.868073 179.236481,248.212814 180.965714,248.150192 
z"/>
<path fill="#ffec18" opacity="1.000000" stroke="none" 
	d="
M200.000000,153.000610 
	C206.361191,154.245178 212.700607,155.627975 219.098984,156.636642 
	C220.688751,156.887268 223.232147,156.500946 224.037170,155.430099 
	C228.899231,148.962570 233.383636,142.211151 238.035522,135.182373 
	C241.851013,135.991455 245.677780,137.029556 249.387741,138.386948 
	C255.337662,140.563950 256.062744,142.461182 253.062103,148.897247 
	C245.306717,154.524948 237.417755,157.153671 228.404343,157.394241 
	C223.230377,157.532333 218.171661,159.485626 216.992477,165.831207 
	C209.245361,164.576065 201.498230,163.320908 193.405548,161.596252 
	C195.373322,158.418030 197.686661,155.709320 200.000000,153.000610 
z"/>
<path fill="#ffec18" opacity="1.000000" stroke="none" 
	d="
M102.864449,69.672592 
	C103.247147,69.405807 103.629837,69.139030 104.742928,68.887207 
	C108.648476,68.935509 111.823624,68.968857 114.999725,69.464005 
	C115.347931,77.334145 115.695190,84.742477 115.840958,92.409401 
	C115.125938,93.080101 114.601562,93.479477 114.100487,93.906212 
	C104.700745,101.911606 96.812408,111.015968 92.735245,123.308182 
	C91.674850,125.713440 90.819267,127.847382 89.631798,129.794495 
	C88.878288,128.591858 88.151588,127.595757 88.084450,126.557022 
	C87.641731,119.707993 87.340973,112.849792 87.189758,105.732353 
	C88.921402,104.644272 90.457222,103.818420 92.320602,102.849564 
	C94.746284,101.762665 96.761688,100.468323 98.960114,99.949486 
	C103.235031,98.940590 104.296982,96.269814 104.034843,92.301346 
	C103.537056,84.765541 103.243080,77.216270 102.864449,69.672592 
z"/>
<path fill="#ffec18" opacity="1.000000" stroke="none" 
	d="
M34.565514,183.265244 
	C33.181499,185.003281 31.797480,186.741333 30.413460,188.479370 
	C29.975718,188.311707 29.537973,188.144043 29.100229,187.976379 
	C26.068810,163.673126 28.978313,140.237915 40.723297,118.112411 
	C41.824173,119.716850 42.810356,121.200485 42.904079,122.738510 
	C43.396572,130.820724 43.663425,138.916672 44.005325,147.338608 
	C43.997372,148.110397 43.992729,148.551453 43.756275,149.242844 
	C39.932426,158.376572 36.107170,167.178024 32.935085,176.208923 
	C32.259331,178.132782 33.959793,180.891266 34.565514,183.265244 
z"/>
<path fill="#ffec18" opacity="1.000000" stroke="none" 
	d="
M212.903534,116.675285 
	C208.597305,118.573593 203.597412,119.366982 199.862808,121.973358 
	C196.113037,124.590317 193.521698,128.934021 190.609894,132.667007 
	C187.373398,136.816269 184.348434,141.130539 180.710068,145.682388 
	C176.456680,144.662857 172.724594,143.333893 169.339157,141.928497 
	C171.510605,140.323822 173.556915,138.991333 175.115356,137.227737 
	C178.661835,133.214447 181.968781,128.989487 185.691040,124.948006 
	C186.543732,125.318802 187.078430,125.592148 187.613144,125.865486 
	C188.041031,125.482765 188.468933,125.100037 188.896820,124.717308 
	C186.214645,121.268990 183.532455,117.820663 181.020569,114.015869 
	C183.158264,113.204590 185.336945,111.968330 187.055695,112.433090 
	C193.753036,114.244034 198.291595,111.301407 202.263306,106.525269 
	C205.763763,109.805283 209.264221,113.085297 212.903534,116.675285 
z"/>
<path fill="#ffec18" opacity="1.000000" stroke="none" 
	d="
M114.998779,69.002213 
	C111.823624,68.968857 108.648476,68.935509 104.982712,68.856186 
	C109.022675,66.764038 113.553238,64.717850 118.584442,62.941185 
	C122.876366,67.109161 125.684326,67.064430 131.335449,63.010376 
	C132.114426,62.985550 132.559616,62.971218 133.287079,63.174728 
	C143.395889,66.600494 153.222412,69.808411 163.048950,73.016335 
	C160.364319,78.790550 165.579926,77.951485 168.794098,79.541519 
	C171.189758,80.865715 173.048126,81.886017 175.192413,83.087692 
	C176.622910,84.562683 177.767456,85.856300 178.591141,87.124222 
	C177.841415,87.077019 177.412552,87.055504 176.725388,86.792526 
	C171.633102,85.124924 166.799133,83.698769 161.540955,82.207169 
	C155.749512,82.067299 150.382263,81.992874 144.615723,81.894333 
	C143.151215,81.867279 142.085983,81.864334 141.016022,81.428787 
	C140.964142,70.896667 140.139893,70.001823 129.956192,69.045265 
	C129.305618,68.984161 128.645737,69.022148 127.527618,69.011971 
	C123.042961,69.007339 119.020866,69.004776 114.998779,69.002213 
z"/>
<path fill="#ffec18" opacity="1.000000" stroke="none" 
	d="
M180.816711,247.846039 
	C179.236481,248.212814 177.248627,248.868073 175.818954,248.244232 
	C164.470413,243.292145 153.261765,238.020264 141.930161,233.028152 
	C138.956116,231.717957 135.701981,231.043610 131.881592,229.941757 
	C129.105667,226.522324 127.024612,223.238403 124.981049,219.721313 
	C125.018555,219.488129 125.092400,219.021576 125.496429,219.020966 
	C132.691162,221.558990 139.494843,224.063599 146.269196,226.645126 
	C154.276535,229.696518 162.258560,232.814331 170.251556,235.903351 
	C173.723602,239.782852 177.195648,243.662369 180.816711,247.846039 
z"/>
<path fill="#059EE3" opacity="1.000000" stroke="none" 
	d="
M44.008644,147.007858 
	C43.663425,138.916672 43.396572,130.820724 42.904079,122.738510 
	C42.810356,121.200485 41.824173,119.716850 40.996571,117.874344 
	C44.617107,111.450218 48.490833,105.359856 52.829002,99.502518 
	C53.865120,110.159065 54.436790,120.582596 54.933067,131.318390 
	C54.235474,132.750854 53.613266,133.871033 52.719200,135.186600 
	C49.634438,139.257263 46.821541,143.132568 44.008644,147.007858 
z"/>
<path fill="#ffec18" opacity="1.000000" stroke="none" 
	d="
M132.025375,231.975906 
	C132.934341,233.116974 133.843292,234.258041 134.882843,235.688446 
	C135.650864,241.715683 136.288330,247.453598 136.548523,253.693878 
	C132.101944,256.476105 128.032623,258.755981 123.723587,261.027313 
	C123.483864,261.018799 123.004715,260.995117 122.830582,260.708130 
	C119.773918,256.609985 116.891388,252.798813 113.940346,248.651550 
	C113.580772,247.210724 113.289711,246.105972 113.360016,244.970306 
	C119.822701,240.618240 125.924042,236.297073 132.025375,231.975906 
z"/>
<path fill="#086FC8" opacity="1.000000" stroke="none" 
	d="
M80.734650,237.457733 
	C79.022522,235.037994 77.310394,232.618240 75.303238,229.643311 
	C75.353836,226.731506 75.699463,224.374893 76.246414,221.822540 
	C76.957642,221.075439 77.467529,220.524063 78.237526,220.123886 
	C81.528526,218.489105 84.557976,216.700699 87.590660,214.917755 
	C92.077591,212.279831 96.566826,209.645828 101.067261,207.203354 
	C101.079437,207.396545 101.071526,207.783615 101.053833,208.230591 
	C101.687492,212.788818 102.338844,216.900055 102.623604,221.037872 
	C95.082886,226.528870 87.908768,231.993301 80.734650,237.457733 
z"/>
<path fill="#068BD8" opacity="1.000000" stroke="none" 
	d="
M202.122192,106.235718 
	C198.291595,111.301407 193.753036,114.244034 187.055695,112.433090 
	C185.336945,111.968330 183.158264,113.204590 180.693970,113.844391 
	C174.465103,112.319679 168.733139,110.609985 163.032715,108.547760 
	C164.711807,105.799850 166.359344,103.404465 168.357635,101.085434 
	C169.472305,101.464409 170.340637,101.623863 170.983322,102.092667 
	C175.512817,105.396729 179.602615,105.477814 183.639938,101.087273 
	C185.505264,99.058762 188.003281,97.612076 190.527954,95.990021 
	C192.490921,97.072220 194.140350,98.065994 195.789780,99.059761 
	C197.853546,101.355232 199.917297,103.650696 202.122192,106.235718 
z"/>
<path fill="#068BD8" opacity="1.000000" stroke="none" 
	d="
M170.179260,235.559067 
	C162.258560,232.814331 154.276535,229.696518 146.269196,226.645126 
	C139.494843,224.063599 132.691162,221.558990 125.470398,218.584747 
	C125.395477,215.108810 125.750618,212.068512 126.451920,209.105118 
	C131.920441,211.482010 136.983124,213.928421 142.179901,216.045715 
	C149.024399,218.834351 155.974243,221.364426 162.878799,224.005661 
	C165.288193,227.742035 167.697571,231.478409 170.179260,235.559067 
z"/>
<path fill="#ffec18" opacity="1.000000" stroke="none" 
	d="
M80.827766,237.775787 
	C87.908768,231.993301 95.082886,226.528870 102.701233,221.399582 
	C104.428352,224.824646 105.711250,227.914551 107.017044,231.350555 
	C107.356667,232.801315 107.673393,233.905975 107.629501,235.039413 
	C100.653252,238.721939 93.797462,242.080124 89.949509,249.140228 
	C86.939964,245.458099 83.930420,241.775970 80.827766,237.775787 
z"/>
<path fill="#ffec18" opacity="1.000000" stroke="none" 
	d="
M102.463074,69.720810 
	C103.243080,77.216270 103.537056,84.765541 104.034843,92.301346 
	C104.296982,96.269814 103.235031,98.940590 98.960114,99.949486 
	C96.761688,100.468323 94.746284,101.762665 92.322525,102.384964 
	C91.652321,92.338638 91.307777,82.613914 90.963234,72.889191 
	C94.662720,71.849136 98.362206,70.809082 102.463074,69.720810 
z"/>
<path fill="#0782D3" opacity="1.000000" stroke="none" 
	d="
M90.579224,72.922119 
	C91.307777,82.613914 91.652321,92.338638 91.994949,102.527954 
	C90.457222,103.818420 88.921402,104.644272 86.834198,105.762337 
	C84.524597,106.705223 82.766388,107.355904 81.084297,107.629837 
	C81.069763,98.565887 81.048813,89.876701 80.801353,81.193962 
	C80.769989,80.093544 79.551773,79.026955 78.883423,77.944687 
	C82.654022,76.281471 86.424614,74.618256 90.579224,72.922119 
z"/>
<path fill="#0695DE" opacity="1.000000" stroke="none" 
	d="
M55.008461,131.006119 
	C54.436790,120.582596 53.865120,110.159065 53.140842,99.355751 
	C56.062893,95.574013 59.137550,92.172058 62.558895,89.094696 
	C63.270142,96.518379 63.582184,103.620728 64.023491,110.715042 
	C64.216904,113.824333 64.674210,116.917206 65.009415,120.263588 
	C65.007149,120.509644 65.001686,121.002136 64.719666,121.181267 
	C61.294582,124.575638 58.151524,127.790878 55.008461,131.006119 
z"/>
<path fill="#ffec18" opacity="1.000000" stroke="none" 
	d="
M90.054459,249.455780 
	C93.797462,242.080124 100.653252,238.721939 107.706375,235.388672 
	C109.762131,238.806519 111.380394,241.903870 112.998657,245.001221 
	C113.289711,246.105972 113.580772,247.210724 113.595055,248.729156 
	C108.593124,252.321823 103.867966,255.500824 99.142807,258.679810 
	C96.148338,255.710327 93.153877,252.740829 90.054459,249.455780 
z"/>
<path fill="#ffec18" opacity="1.000000" stroke="none" 
	d="
M116.950020,165.897842 
	C134.935745,159.524139 153.438492,157.753372 172.719360,159.886261 
	C168.555923,161.237503 164.029022,162.376846 158.835342,163.762970 
	C153.184219,166.039413 148.199890,168.069092 142.816589,169.933228 
	C136.014313,169.177063 129.595856,168.709717 123.216164,167.926727 
	C121.076675,167.664139 119.035912,166.597153 116.950020,165.897842 
z"/>
<path fill="#068BD8" opacity="1.000000" stroke="none" 
	d="
M78.526016,77.946953 
	C79.551773,79.026955 80.769989,80.093544 80.801353,81.193962 
	C81.048813,89.876701 81.069763,98.565887 80.851135,107.855362 
	C78.695251,109.972237 76.848640,111.486839 74.743927,113.156082 
	C73.654449,113.870659 72.823082,114.430588 72.002228,114.593536 
	C71.672859,103.531105 71.332962,92.865639 70.993073,82.200172 
	C73.384918,80.783188 75.776756,79.366203 78.526016,77.946953 
z"/>
<path fill="#ffec18" opacity="1.000000" stroke="none" 
	d="
M73.810349,234.012787 
	C72.995117,238.860413 72.179886,243.708023 71.154503,249.805267 
	C62.768230,238.786331 56.544140,228.020966 53.383430,215.409485 
	C57.211845,215.337036 60.611427,215.659973 64.032181,216.330566 
	C64.372108,217.783142 64.690865,218.888046 65.007187,220.423019 
	C65.416786,231.456833 65.688133,231.862335 73.810349,234.012787 
z"/>
<path fill="#ffec18" opacity="1.000000" stroke="none" 
	d="
M123.004715,260.995117 
	C123.004715,260.995117 123.483864,261.018799 123.812408,261.355347 
	C127.238831,265.106689 130.478134,268.405823 133.392563,271.970581 
	C136.011734,275.174225 139.016235,276.366180 142.959259,275.004944 
	C144.048141,277.483154 145.137009,279.961395 146.634140,283.368774 
	C133.994598,280.685883 123.426331,275.759399 113.240036,269.024353 
	C116.435364,265.927490 119.720047,263.461304 123.004715,260.995117 
z"/>
<path fill="#0691DC" opacity="1.000000" stroke="none" 
	d="
M70.669121,82.261848 
	C71.332962,92.865639 71.672859,103.531105 71.767395,114.824402 
	C69.351929,116.973999 67.181808,118.495766 65.011688,120.017532 
	C64.674210,116.917206 64.216904,113.824333 64.023491,110.715042 
	C63.582184,103.620728 63.270142,96.518379 62.878044,88.947113 
	C65.348732,86.424461 67.846954,84.373993 70.669121,82.261848 
z"/>
<path fill="#0782D3" opacity="1.000000" stroke="none" 
	d="
M162.830170,223.653290 
	C155.974243,221.364426 149.024399,218.834351 142.179901,216.045715 
	C136.983124,213.928421 131.920441,211.482010 126.414856,208.833160 
	C126.010918,208.302750 125.990211,208.121201 126.146194,207.644608 
	C126.889435,205.567490 127.455986,203.785446 128.375366,202.082062 
	C133.238434,204.150162 137.686569,206.298889 142.274948,208.087814 
	C147.748230,210.221771 153.341690,212.047440 158.883087,214.006653 
	C160.182571,217.104736 161.482056,220.202835 162.830170,223.653290 
z"/>
<path fill="#ffec18" opacity="1.000000" stroke="none" 
	d="
M158.827209,213.636932 
	C153.341690,212.047440 147.748230,210.221771 142.274948,208.087814 
	C137.686569,206.298889 133.238434,204.150162 128.443146,201.739960 
	C129.439026,198.879425 130.719955,196.439713 132.357834,194.079224 
	C134.579041,194.869186 136.443558,195.579346 138.307571,196.290817 
	C144.170135,198.528534 150.032501,200.766708 155.894958,203.004715 
	C156.853745,206.425552 157.812546,209.846390 158.827209,213.636932 
z"/>
<path fill="#0699E0" opacity="1.000000" stroke="none" 
	d="
M34.853954,183.130112 
	C33.959793,180.891266 32.259331,178.132782 32.935085,176.208923 
	C36.107170,167.178024 39.932426,158.376572 43.963844,149.596222 
	C45.211514,156.102112 46.019802,162.504959 46.836761,169.120148 
	C46.845432,169.332474 46.929695,169.749054 46.929699,169.749054 
	C43.000599,174.164368 39.071499,178.579681 34.853954,183.130112 
z"/>
<path fill="#0963C1" opacity="1.000000" stroke="none" 
	d="
M196.016815,98.766083 
	C194.140350,98.065994 192.490921,97.072220 190.359970,95.697685 
	C187.258484,93.217415 184.638519,91.117897 181.819672,88.823425 
	C181.304840,88.430382 180.988876,88.232300 180.509644,88.046204 
	C180.346359,88.058189 180.020950,88.021935 179.861481,87.836838 
	C179.476425,87.415428 179.229645,87.203842 178.974274,87.059570 
	C178.986908,87.102150 178.912003,87.149918 178.912003,87.149918 
	C177.767456,85.856300 176.622910,84.562683 175.253479,82.761169 
	C176.352371,80.836555 177.676147,79.419838 179.297089,78.186562 
	C186.456879,80.922005 193.319458,83.473999 200.182053,86.025993 
	C198.869324,90.174797 197.556595,94.323608 196.016815,98.766083 
z"/>
<path fill="#068BD8" opacity="1.000000" stroke="none" 
	d="
M122.830582,260.708130 
	C119.720047,263.461304 116.435364,265.927490 113.063828,268.730835 
	C108.524300,265.763611 104.071632,262.459167 99.380890,258.917297 
	C103.867966,255.500824 108.593124,252.321823 113.663574,249.065247 
	C116.891388,252.798813 119.773918,256.609985 122.830582,260.708130 
z"/>
<path fill="#086FC8" opacity="1.000000" stroke="none" 
	d="
M199.999939,152.750916 
	C197.686661,155.709320 195.373322,158.418030 193.027908,161.472351 
	C188.964508,161.196945 184.933151,160.575928 180.466751,159.900101 
	C177.539734,158.713074 175.047775,157.580856 172.495514,156.001038 
	C175.289932,152.703430 178.144653,149.853409 180.999390,147.003387 
	C187.068878,148.646133 193.138351,150.288864 199.603912,151.966705 
	C200.000000,152.001831 199.999893,152.501221 199.999939,152.750916 
z"/>
<path fill="#0A529E" opacity="1.000000" stroke="none" 
	d="
M143.215561,170.098770 
	C148.199890,168.069092 153.184219,166.039413 158.542450,163.989777 
	C158.307861,166.105042 157.699356,168.240250 156.574875,170.751694 
	C152.691116,173.404572 149.323334,175.681244 145.629654,178.051453 
	C142.566864,180.448761 139.829987,182.752502 136.661987,185.041473 
	C133.137604,184.986862 130.044312,184.947021 127.016571,184.594910 
	C127.810806,183.230240 128.539490,182.177826 129.577789,181.011276 
	C134.330109,177.297684 138.772842,173.698227 143.215561,170.098770 
z"/>
<path fill="#ffec18" opacity="1.000000" stroke="none" 
	d="
M155.952774,202.591660 
	C150.032501,200.766708 144.170135,198.528534 138.307571,196.290817 
	C136.443558,195.579346 134.579041,194.869186 132.428696,193.737915 
	C133.801575,190.888382 135.460526,188.459366 137.463745,186.107788 
	C143.442764,188.461533 149.077515,190.737854 154.712265,193.014175 
	C155.145035,196.068985 155.577805,199.123795 155.952774,202.591660 
z"/>
<path fill="#ffec18" opacity="1.000000" stroke="none" 
	d="
M217.435699,165.939331 
	C218.171661,159.485626 223.230377,157.532333 228.404343,157.394241 
	C237.417755,157.153671 245.306717,154.524948 252.774399,149.123779 
	C249.437103,156.229996 243.442535,160.867523 235.922485,163.000824 
	C230.089310,164.655609 223.906387,165.077499 217.435699,165.939331 
z"/>
<path fill="#086FC8" opacity="1.000000" stroke="none" 
	d="
M47.280720,169.992462 
	C46.929695,169.749054 46.845432,169.332474 47.118523,168.991898 
	C48.251080,168.087479 49.110542,167.523636 50.207401,167.252991 
	C51.795460,168.047745 53.108063,168.744949 54.503490,169.016357 
	C59.990067,170.083557 65.502708,171.016724 70.974663,172.379532 
	C70.630234,174.505859 70.316818,176.252335 69.811356,178.231430 
	C69.081421,179.309601 68.543526,180.155136 67.719330,180.751328 
	C60.875069,179.663742 54.317116,178.825485 47.759159,177.987244 
	C47.716686,175.403458 47.674217,172.819656 47.280720,169.992462 
z"/>
<path fill="#0782D3" opacity="1.000000" stroke="none" 
	d="
M142.993286,274.631836 
	C139.016235,276.366180 136.011734,275.174225 133.392563,271.970581 
	C130.478134,268.405823 127.238831,265.106689 124.052139,261.363861 
	C128.032623,258.755981 132.101944,256.476105 136.494141,254.103271 
	C138.887100,260.759796 140.957199,267.509247 142.993286,274.631836 
z"/>
<path fill="#ffec18" opacity="1.000000" stroke="none" 
	d="
M200.370178,85.690948 
	C193.319458,83.473999 186.456879,80.922005 179.523422,77.959122 
	C180.304184,76.376144 181.155807,75.204056 182.307907,73.918015 
	C184.070374,72.541939 185.532364,71.279808 187.120575,70.335236 
	C192.026093,72.766182 196.805389,74.879547 201.584686,76.992920 
	C201.242569,79.780579 200.900436,82.568237 200.370178,85.690948 
z"/>
<path fill="#ffec18" opacity="1.000000" stroke="none" 
	d="
M168.180725,55.023796 
	C167.766693,57.431179 167.352661,59.838558 166.422455,62.513912 
	C158.271164,60.185966 150.636063,57.590046 143.193741,54.724571 
	C145.264359,52.342384 147.142197,50.229748 149.349716,48.091553 
	C150.119476,48.038452 150.559525,48.010902 151.126953,48.310841 
	C156.896469,50.766819 162.538589,52.895309 168.180725,55.023796 
z"/>
<path fill="#ffec18" opacity="1.000000" stroke="none" 
	d="
M154.812805,192.564545 
	C149.077515,190.737854 143.442764,188.461533 137.451019,185.864258 
	C137.094040,185.543304 137.093094,185.056259 137.093094,185.056259 
	C139.829987,182.752502 142.566864,180.448761 145.924835,178.239105 
	C149.329376,179.555161 152.112854,180.777115 154.896332,181.999069 
	C154.901993,185.371017 154.907669,188.742981 154.812805,192.564545 
z"/>
<path fill="#ffec18" opacity="1.000000" stroke="none" 
	d="
M143.000946,54.994125 
	C150.636063,57.590046 158.271164,60.185966 166.243195,62.875931 
	C166.077560,64.424553 165.574997,65.879128 164.602905,67.631180 
	C155.087936,65.282661 146.042496,62.636669 137.163361,59.728050 
	C138.224991,58.324295 139.120285,57.183170 140.324799,55.971565 
	C141.422989,55.598770 142.211960,55.296448 143.000946,54.994125 
z"/>
<path fill="#0963C1" opacity="1.000000" stroke="none" 
	d="
M136.997040,59.990677 
	C146.042496,62.636669 155.087936,65.282661 164.515686,67.962067 
	C164.451401,69.516029 164.004807,71.036568 163.303589,72.786728 
	C153.222412,69.808411 143.395889,66.600494 133.462250,62.906792 
	C134.569107,61.610905 135.783066,60.800793 136.997040,59.990677 
z"/>
<path fill="#0782D3" opacity="1.000000" stroke="none" 
	d="
M49.633942,203.116821 
	C49.106098,200.015030 48.578259,196.913239 48.536129,193.409271 
	C54.353432,193.670609 59.685020,194.334137 65.013435,195.396790 
	C65.011856,196.859833 65.013451,197.923782 65.010574,199.384247 
	C64.679405,201.517700 64.352692,203.254593 63.666664,204.843140 
	C58.749546,204.168808 54.191742,203.642807 49.633942,203.116821 
z"/>
<path fill="#068BD8" opacity="1.000000" stroke="none" 
	d="
M49.682583,203.523010 
	C54.191742,203.642807 58.749546,204.168808 63.663033,205.243332 
	C64.018150,206.857269 64.017586,207.922653 64.013840,209.425812 
	C64.010780,211.903336 64.010895,213.943130 64.011009,215.982910 
	C60.611427,215.659973 57.211845,215.337036 53.368454,215.021149 
	C51.860168,211.328552 50.795696,207.628891 49.682583,203.523010 
z"/>
<path fill="#ffec18" opacity="1.000000" stroke="none" 
	d="
M47.643982,178.416840 
	C54.317116,178.825485 60.875069,179.663742 67.707466,181.146866 
	C67.653152,183.861771 67.324394,185.931793 66.612183,187.919113 
	C60.189045,186.891876 54.149364,185.947357 48.109688,185.002838 
	C47.916061,182.950714 47.722435,180.898575 47.643982,178.416840 
z"/>
<path fill="#077DD0" opacity="1.000000" stroke="none" 
	d="
M48.034512,185.442535 
	C54.149364,185.947357 60.189045,186.891876 66.615944,188.167496 
	C67.003166,188.498596 67.008232,188.995438 66.865166,189.325226 
	C66.153603,191.435913 65.585106,193.216782 65.016609,194.997665 
	C59.685020,194.334137 54.353432,193.670609 48.597702,193.006714 
	C48.102158,190.631638 48.030746,188.256943 48.034512,185.442535 
z"/>
<path fill="#0687D6" opacity="1.000000" stroke="none" 
	d="
M186.994354,70.017670 
	C185.532364,71.279808 184.070374,72.541939 181.961075,73.736465 
	C180.608551,73.331779 179.903336,72.994698 179.198120,72.657616 
	C186.025391,66.537727 192.852661,60.417847 200.448029,53.609459 
	C200.932587,57.719296 201.427444,61.916389 201.475067,66.547958 
	C195.885361,65.845871 190.748169,64.733727 186.994354,70.017670 
z"/>
<path fill="#068BD8" opacity="1.000000" stroke="none" 
	d="
M73.977524,233.744843 
	C65.688133,231.862335 65.416786,231.456833 65.425537,220.428482 
	C69.245911,220.675354 72.645493,221.346802 76.045082,222.018265 
	C75.699463,224.374893 75.353836,226.731506 74.996796,229.484268 
	C74.705147,231.079239 74.424927,232.278061 73.977524,233.744843 
z"/>
<path fill="#ffec18" opacity="1.000000" stroke="none" 
	d="
M150.999588,47.983353 
	C150.559525,48.010902 150.119476,48.038452 149.157745,47.830551 
	C148.395721,47.002922 148.155365,46.410748 147.915024,45.818569 
	C154.268829,39.865440 160.622635,33.912315 167.606689,27.368673 
	C168.051270,30.938999 168.499603,34.539463 168.488312,38.565262 
	C164.606354,39.264912 160.519897,36.230167 157.732574,41.172829 
	C156.307892,42.559364 155.151062,43.776257 153.735245,45.156654 
	C152.650711,46.207890 151.825150,47.095619 150.999588,47.983353 
z"/>
<path fill="#ffec18" opacity="1.000000" stroke="none" 
	d="
M187.120575,70.335236 
	C190.748169,64.733727 195.885361,65.845871 201.422882,66.986443 
	C201.834183,70.034111 201.850449,73.077774 201.725708,76.557175 
	C196.805389,74.879547 192.026093,72.766182 187.120575,70.335236 
z"/>
<path fill="#ffec18" opacity="1.000000" stroke="none" 
	d="
M151.126953,48.310837 
	C151.825150,47.095619 152.650711,46.207890 154.108643,45.237396 
	C159.433273,46.433907 164.125534,47.713181 168.817780,48.992458 
	C168.726883,50.776165 168.635986,52.559868 168.362915,54.683685 
	C162.538589,52.895309 156.896469,50.766819 151.126953,48.310837 
z"/>
<path fill="#0963C1" opacity="1.000000" stroke="none" 
	d="
M155.011292,181.623749 
	C152.112854,180.777115 149.329376,179.555161 146.250732,178.145554 
	C149.323334,175.681244 152.691116,173.404572 156.409271,171.090149 
	C156.215179,174.451080 155.670715,177.849747 155.011292,181.623749 
z"/>
<path fill="#0963C1" opacity="1.000000" stroke="none" 
	d="
M131.001663,63.020874 
	C125.684326,67.064430 122.876366,67.109161 118.943558,62.834663 
	C121.628845,60.987923 124.455658,59.517220 127.722397,58.336517 
	C129.108765,60.091301 130.055206,61.556087 131.001663,63.020874 
z"/>
<path fill="#068BD8" opacity="1.000000" stroke="none" 
	d="
M168.924042,48.586178 
	C164.125534,47.713181 159.433273,46.433907 154.367615,45.073891 
	C155.151062,43.776257 156.307892,42.559364 158.065186,41.319237 
	C162.074631,42.196571 165.483627,43.097134 168.892639,43.997696 
	C168.938522,45.391762 168.984421,46.785831 168.924042,48.586178 
z"/>
<path fill="#086FC8" opacity="1.000000" stroke="none" 
	d="
M131.335449,63.010376 
	C130.055206,61.556087 129.108765,60.091301 128.076462,58.305233 
	C130.765778,56.368904 133.540970,54.753857 136.738129,53.380692 
	C138.111908,54.429066 139.063751,55.235558 140.015579,56.042046 
	C139.120285,57.183170 138.224991,58.324295 137.163361,59.728050 
	C135.783066,60.800793 134.569107,61.610905 133.179962,62.688950 
	C132.559616,62.971218 132.114426,62.985550 131.335449,63.010376 
z"/>
<path fill="#ffec18" opacity="1.000000" stroke="none" 
	d="
M178.898895,72.776077 
	C179.903336,72.994698 180.608551,73.331779 181.660599,73.850418 
	C181.155807,75.204056 180.304184,76.376144 179.226227,77.775681 
	C177.676147,79.419838 176.352371,80.836555 174.967529,82.579788 
	C173.048126,81.886017 171.189758,80.865715 169.184723,79.567322 
	C172.225250,77.157661 175.412460,75.026100 178.898895,72.776077 
z"/>
<path fill="#077DD0" opacity="1.000000" stroke="none" 
	d="
M140.324799,55.971569 
	C139.063751,55.235558 138.111908,54.429066 137.077423,53.302872 
	C140.411301,50.657043 143.827850,48.330910 147.579712,45.911674 
	C148.155365,46.410748 148.395721,47.002922 148.828049,47.856102 
	C147.142197,50.229748 145.264359,52.342384 143.193741,54.724571 
	C142.211960,55.296448 141.422989,55.598770 140.324799,55.971569 
z"/>
<path fill="#0691DC" opacity="1.000000" stroke="none" 
	d="
M168.969910,43.584408 
	C165.483627,43.097134 162.074631,42.196571 158.333008,41.149601 
	C160.519897,36.230167 164.606354,39.264912 168.428085,38.993763 
	C168.900696,40.388325 168.973923,41.779724 168.969910,43.584408 
z"/>
<path fill="#ffec18" opacity="1.000000" stroke="none" 
	d="
M175.262772,159.948303 
	C175.255676,159.797455 175.483673,159.766022 175.832184,159.850739 
	C175.948044,159.881516 175.493210,159.982300 175.262772,159.948303 
z"/>
<path fill="#0691DC" opacity="1.000000" stroke="none" 
	d="
M168.006882,101.009087 
	C166.359344,103.404465 164.711807,105.799850 162.652374,108.569611 
	C159.381500,108.260124 156.522522,107.576263 152.460022,106.604530 
	C155.811356,109.671906 158.092514,111.759781 160.061310,114.029152 
	C156.458023,118.533157 153.011292,122.747681 149.919678,127.208321 
	C146.782669,131.734467 143.172501,134.695496 137.187592,134.129913 
	C135.103439,133.932968 132.008957,134.528076 130.873276,135.954025 
	C126.580811,141.343582 122.903412,147.222992 118.995834,152.919083 
	C112.882431,154.794144 106.769035,156.669205 100.358841,158.317841 
	C100.744415,156.812546 101.276428,155.421265 102.134277,154.273529 
	C106.711777,148.149261 111.370735,142.085876 116.251099,136.001038 
	C116.500679,136.000641 116.999870,136.000000 117.392006,135.967239 
	C127.004082,135.083527 133.489014,130.440140 138.453995,122.578949 
	C143.820175,114.082573 150.113464,106.171753 156.411469,98.007385 
	C159.214127,98.341171 161.607681,98.673103 164.252350,99.201218 
	C165.671265,99.934616 166.839081,100.471855 168.006882,101.009087 
z"/>
<path fill="#068BD8" opacity="1.000000" stroke="none" 
	d="
M119.432274,152.937637 
	C122.903412,147.222992 126.580811,141.343582 130.873276,135.954025 
	C132.008957,134.528076 135.103439,133.932968 137.187592,134.129913 
	C143.172501,134.695496 146.782669,131.734467 149.919678,127.208321 
	C153.011292,122.747681 156.458023,118.533157 160.356110,114.181076 
	C165.309357,116.152084 169.655441,118.152679 173.919968,120.487526 
	C169.225952,126.882278 164.613480,132.942780 159.602203,138.967590 
	C155.973633,138.187531 152.774170,137.184113 149.502121,136.801788 
	C147.709930,136.592377 144.945206,136.784622 144.085831,137.912949 
	C140.730164,142.318680 137.959976,147.170380 134.972122,151.856262 
	C129.937653,152.222900 124.903183,152.589554 119.432274,152.937637 
z"/>
<path fill="#0963C1" opacity="1.000000" stroke="none" 
	d="
M70.003403,177.998795 
	C70.316818,176.252335 70.630234,174.505859 71.197258,172.140533 
	C72.299561,170.014404 73.148254,168.507126 74.376656,167.080093 
	C77.792061,167.763611 80.827759,168.366867 84.103943,169.072235 
	C85.899986,167.799042 87.455536,166.423721 89.344177,164.957428 
	C92.091019,163.551666 94.504768,162.236893 96.918518,160.922104 
	C96.479401,166.067749 96.040283,171.213394 95.791550,176.927917 
	C95.987259,177.664032 95.992584,177.831268 95.798294,178.325974 
	C96.041718,182.773590 96.484764,186.893707 96.943604,191.428787 
	C96.985870,193.228821 97.012337,194.613892 96.691330,196.072479 
	C91.893478,198.764236 87.443100,201.382507 82.995728,203.626419 
	C83.012405,202.503693 83.026085,201.755325 83.243744,200.730255 
	C84.633797,197.636047 85.819878,194.818573 87.283562,191.782379 
	C88.347229,189.770706 89.108826,187.966537 89.924400,186.187103 
	C91.698914,182.315506 90.663254,180.270508 86.237785,179.881348 
	C80.813095,179.404343 75.413727,178.639313 70.003403,177.998795 
z"/>
<path fill="#077DD0" opacity="1.000000" stroke="none" 
	d="
M95.997910,177.998505 
	C95.992584,177.831268 95.987259,177.664032 95.970512,177.246048 
	C102.720039,173.361038 109.481003,169.726776 116.595993,165.995178 
	C119.035912,166.597153 121.076675,167.664139 123.216164,167.926727 
	C129.595856,168.709717 136.014313,169.177063 142.816589,169.933228 
	C138.772842,173.698227 134.330109,177.297684 129.174026,180.843567 
	C117.639755,179.859512 106.818832,178.929001 95.997910,177.998505 
z"/>
<path fill="#ffec18" opacity="1.000000" stroke="none" 
	d="
M135.432465,151.896118 
	C137.959976,147.170380 140.730164,142.318680 144.085831,137.912949 
	C144.945206,136.784622 147.709930,136.592377 149.502121,136.801788 
	C152.774170,137.184113 155.973633,138.187531 159.754623,139.150970 
	C160.521439,139.605469 160.756622,139.819336 160.893188,140.322510 
	C158.176392,144.717819 155.577835,148.802277 152.979279,152.886734 
	C147.283783,152.569809 141.588303,152.252899 135.432465,151.896118 
z"/>
<path fill="#ffec18" opacity="1.000000" stroke="none" 
	d="
M153.383545,152.963013 
	C155.577835,148.802277 158.176392,144.717819 161.253571,140.401947 
	C164.152313,140.781982 166.572403,141.393463 168.992508,142.004944 
	C172.724594,143.333893 176.456680,144.662857 180.594086,145.995300 
	C180.999390,146.166199 180.999390,146.333618 180.999390,146.752213 
	C178.144653,149.853409 175.289932,152.703430 172.200439,155.794678 
	C165.906403,155.037033 159.847107,154.038177 153.383545,152.963013 
z"/>
<path fill="#0695DE" opacity="1.000000" stroke="none" 
	d="
M96.936752,160.928696 
	C94.504768,162.236893 92.091019,163.551666 89.415001,164.605560 
	C90.895798,161.376907 92.396614,158.230576 94.427795,155.475220 
	C100.279495,147.537216 105.928558,139.293594 116.001526,136.001434 
	C111.370735,142.085876 106.711777,148.149261 102.134277,154.273529 
	C101.276428,155.421265 100.744415,156.812546 100.024078,158.430801 
	C99.492531,159.091660 98.998947,159.413162 98.041412,159.995026 
	C97.311684,160.442719 97.103561,160.680511 96.953094,160.968781 
	C96.953094,160.968781 96.954979,160.935287 96.936752,160.928696 
z"/>
<path fill="#0963C1" opacity="1.000000" stroke="none" 
	d="
M97.146179,160.833832 
	C97.103561,160.680511 97.311684,160.442719 97.786484,160.140991 
	C97.802864,160.276154 97.584122,160.500259 97.146179,160.833832 
z"/>
<path fill="#086FC8" opacity="1.000000" stroke="none" 
	d="
M113.360016,244.970306 
	C111.380394,241.903870 109.762131,238.806519 108.066994,235.359909 
	C107.673393,233.905975 107.356667,232.801315 107.389183,231.340851 
	C109.827507,229.987595 111.916588,228.990128 114.252991,228.172638 
	C115.398491,229.210205 116.296654,230.067810 117.185188,230.916229 
	C116.804573,222.787781 116.436157,214.919968 116.257309,206.851364 
	C116.903214,206.076065 117.359550,205.501556 117.915680,205.250061 
	C118.677223,206.734039 119.338966,207.894989 120.030106,209.431396 
	C121.687523,213.189407 123.315536,216.571945 124.943558,219.954483 
	C127.024612,223.238403 129.105667,226.522324 131.469849,229.950684 
	C131.821075,230.512009 131.889221,230.928909 131.991364,231.660858 
	C125.924042,236.297073 119.822701,240.618240 113.360016,244.970306 
z"/>
<path fill="#059EE3" opacity="1.000000" stroke="none" 
	d="
M89.963684,129.981323 
	C90.819267,127.847382 91.674850,125.713440 93.072983,123.218262 
	C94.458931,122.342468 95.477882,121.988785 96.119148,121.289001 
	C104.482307,112.162743 114.711716,105.807663 126.353668,100.922226 
	C128.142395,100.568672 129.573074,100.287201 130.918335,100.338547 
	C130.530746,101.259232 130.305939,101.905037 129.915253,102.426582 
	C116.288345,120.618584 102.676125,138.821838 88.953865,156.941742 
	C87.719299,158.571960 85.759293,159.652786 84.102219,160.565369 
	C85.074677,153.427765 86.081100,146.713531 87.270767,139.678375 
	C88.290573,136.232071 89.127129,133.106705 89.963684,129.981323 
z"/>
<path fill="#04ABEC" opacity="1.000000" stroke="none" 
	d="
M125.995636,100.994301 
	C114.711716,105.807663 104.482307,112.162743 96.119148,121.289001 
	C95.477882,121.988785 94.458931,122.342468 93.277786,122.946945 
	C96.812408,111.015968 104.700745,101.911606 114.100487,93.906212 
	C114.601562,93.479477 115.125938,93.080101 116.169571,92.280502 
	C120.796036,89.581062 124.892395,87.269104 129.370941,84.906097 
	C133.509003,83.857155 137.264877,82.859276 141.020752,81.861389 
	C142.085983,81.864334 143.151215,81.867279 144.532501,82.234528 
	C142.877457,84.747330 141.013260,87.007393 138.912735,89.020874 
	C134.675034,93.082962 130.308823,97.010979 125.995636,100.994301 
z"/>
<path fill="#ffec18" opacity="1.000000" stroke="none" 
	d="
M89.631790,129.794495 
	C89.127129,133.106705 88.290573,136.232071 86.908936,139.747925 
	C82.958946,141.495453 79.554047,142.852539 76.119965,143.730652 
	C75.727852,133.168259 75.364937,123.084846 75.002029,113.001434 
	C76.848640,111.486839 78.695251,109.972237 80.775024,108.232109 
	C82.766388,107.355904 84.524597,106.705223 86.638367,106.024559 
	C87.340973,112.849792 87.641731,119.707993 88.084450,126.557022 
	C88.151588,127.595757 88.878288,128.591858 89.631790,129.794495 
z"/>
<path fill="#ffec18" opacity="1.000000" stroke="none" 
	d="
M128.988754,84.957146 
	C124.892395,87.269104 120.796036,89.581062 116.371063,92.021912 
	C115.695190,84.742477 115.347931,77.334145 114.999725,69.464012 
	C119.020866,69.004776 123.042961,69.007339 127.530663,69.457550 
	C128.327103,74.922516 128.657928,79.939835 128.988754,84.957146 
z"/>
<path fill="#ffec18" opacity="1.000000" stroke="none" 
	d="
M49.969997,166.959778 
	C49.110542,167.523636 48.251080,168.087479 47.109856,168.779572 
	C46.019802,162.504959 45.211514,156.102112 44.195656,149.345886 
	C43.992729,148.551453 43.997372,148.110397 44.005329,147.338608 
	C46.821541,143.132568 49.634438,139.257263 52.722137,135.630920 
	C53.681923,144.280975 54.366905,152.682083 54.872368,161.351410 
	C53.118561,163.399704 51.544277,165.179733 49.969997,166.959778 
z"/>
<path fill="#0782D3" opacity="1.000000" stroke="none" 
	d="
M169.339157,141.928497 
	C166.572403,141.393463 164.152313,140.781982 161.371826,140.091080 
	C160.756622,139.819336 160.521439,139.605469 160.153442,139.186661 
	C164.613480,132.942780 169.225952,126.882278 174.291183,120.507797 
	C178.286987,121.746063 181.830032,123.298309 185.373062,124.850555 
	C181.968781,128.989487 178.661835,133.214447 175.115356,137.227737 
	C173.556915,138.991333 171.510605,140.323822 169.339157,141.928497 
z"/>
<path fill="#EAF2FB" opacity="1.000000" stroke="none" 
	d="
M185.691040,124.948006 
	C181.830032,123.298309 178.286987,121.746063 174.372742,120.173538 
	C169.655441,118.152679 165.309357,116.152084 160.668488,113.999573 
	C158.092514,111.759781 155.811356,109.671906 152.460022,106.604530 
	C156.522522,107.576263 159.381500,108.260124 162.620819,108.922134 
	C168.733139,110.609985 174.465103,112.319679 180.523682,114.200867 
	C183.532455,117.820663 186.214645,121.268990 188.896820,124.717308 
	C188.468933,125.100037 188.041031,125.482765 187.613144,125.865486 
	C187.078430,125.592148 186.543732,125.318802 185.691040,124.948006 
z"/>
<path fill="#ffec18" opacity="1.000000" stroke="none" 
	d="
M126.353668,100.922226 
	C130.308823,97.010979 134.675034,93.082962 138.912735,89.020874 
	C141.013260,87.007393 142.877457,84.747330 144.931793,82.258636 
	C150.382263,81.992874 155.749512,82.067299 161.511536,82.540802 
	C160.954041,84.179298 160.099564,85.511162 159.031326,86.640923 
	C155.729477,90.132988 152.346176,93.548027 148.662338,96.994781 
	C147.887146,96.998962 147.444107,97.001350 146.574707,97.005722 
	C141.100128,98.007050 136.051941,99.006386 131.003754,100.005722 
	C129.573074,100.287201 128.142395,100.568672 126.353668,100.922226 
z"/>
<path fill="#059EE3" opacity="1.000000" stroke="none" 
	d="
M148.994507,96.992973 
	C152.346176,93.548027 155.729477,90.132988 159.031326,86.640923 
	C160.099564,85.511162 160.954041,84.179298 161.935730,82.606247 
	C166.799133,83.698769 171.633102,85.124924 176.642792,87.121918 
	C172.546066,91.463524 168.273666,95.234283 164.001251,99.005043 
	C161.607681,98.673103 159.214127,98.341171 156.015564,97.995560 
	C153.138565,97.652245 151.066528,97.322609 148.994507,96.992973 
z"/>
<path fill="#0695DE" opacity="1.000000" stroke="none" 
	d="
M164.252350,99.201218 
	C168.273666,95.234283 172.546066,91.463524 176.901093,87.363373 
	C177.412552,87.055504 177.841415,87.077019 178.591141,87.124222 
	C178.912003,87.149918 178.986908,87.102150 179.099670,87.275375 
	C179.435699,87.704918 179.705200,87.896027 180.020950,88.021935 
	C180.020950,88.021935 180.346359,88.058189 180.710068,88.245605 
	C181.388702,88.628143 181.703629,88.823265 182.018555,89.018387 
	C184.638519,91.117897 187.258484,93.217415 190.046448,95.609268 
	C188.003281,97.612076 185.505264,99.058762 183.639938,101.087273 
	C179.602615,105.477814 175.512817,105.396729 170.983322,102.092667 
	C170.340637,101.623863 169.472305,101.464409 168.357635,101.085434 
	C166.839081,100.471855 165.671265,99.934616 164.252350,99.201218 
z"/>
<path fill="#0963C1" opacity="1.000000" stroke="none" 
	d="
M129.370941,84.906097 
	C128.657928,79.939835 128.327103,74.922516 127.993233,69.459625 
	C128.645737,69.022148 129.305618,68.984161 129.956192,69.045265 
	C140.139893,70.001823 140.964142,70.896667 141.016022,81.428787 
	C137.264877,82.859276 133.509003,83.857155 129.370941,84.906097 
z"/>
<path fill="#ffec18" opacity="1.000000" stroke="none" 
	d="
M124.981056,219.721313 
	C123.315536,216.571945 121.687523,213.189407 120.289108,209.217422 
	C122.335640,208.398544 124.152573,208.169113 125.969498,207.939667 
	C125.990211,208.121201 126.010918,208.302750 126.068695,208.756256 
	C125.750618,212.068512 125.395477,215.108810 125.066368,218.585358 
	C125.092400,219.021576 125.018555,219.488129 124.981056,219.721313 
z"/>
<path fill="#068BD8" opacity="1.000000" stroke="none" 
	d="
M55.051891,161.083176 
	C54.366905,152.682083 53.681923,144.280975 52.993999,135.435547 
	C53.613266,133.871033 54.235474,132.750854 54.933071,131.318390 
	C58.151524,127.790878 61.294582,124.575638 64.719528,121.649673 
	C65.351082,131.992386 65.700745,142.045837 65.860313,152.367935 
	C62.799400,155.135147 59.928577,157.633682 56.802139,160.240601 
	C56.048313,160.593689 55.550102,160.838440 55.051891,161.083176 
z"/>
<path fill="#ffec18" opacity="1.000000" stroke="none" 
	d="
M82.992737,204.000793 
	C87.443100,201.382507 91.893478,198.764236 96.907372,196.351517 
	C98.641876,199.371323 99.812866,202.185577 100.999985,205.334686 
	C101.029106,206.116409 101.042091,206.563293 101.055077,207.010162 
	C96.566826,209.645828 92.077591,212.279831 87.590660,214.917755 
	C84.557976,216.700699 81.528526,218.489105 78.245010,219.717468 
	C78.331085,216.773056 78.669785,214.386276 79.285019,211.782242 
	C80.705284,209.043594 81.849014,206.522202 82.992737,204.000793 
z"/>
<path fill="#059EE3" opacity="1.000000" stroke="none" 
	d="
M101.067261,207.203354 
	C101.042091,206.563293 101.029106,206.116409 101.465088,205.334686 
	C106.631958,205.683929 111.349854,206.368042 116.067741,207.052155 
	C116.436157,214.919968 116.804573,222.787781 117.185188,230.916229 
	C116.296654,230.067810 115.398491,229.210205 114.085159,227.879913 
	C109.470497,220.866028 105.271011,214.324814 101.071526,207.783615 
	C101.071526,207.783615 101.079437,207.396545 101.067261,207.203354 
z"/>
<path fill="#0782D3" opacity="1.000000" stroke="none" 
	d="
M79.008484,211.999496 
	C78.669785,214.386276 78.331085,216.773056 77.984901,219.566254 
	C77.467529,220.524063 76.957642,221.075439 76.246414,221.822540 
	C72.645493,221.346802 69.245911,220.675354 65.427979,219.998428 
	C64.690865,218.888046 64.372108,217.783142 64.032181,216.330566 
	C64.010895,213.943130 64.010780,211.903336 64.385361,209.515091 
	C69.509529,210.110916 74.259003,211.055206 79.008484,211.999496 
z"/>
<path fill="#ffec18" opacity="1.000000" stroke="none" 
	d="
M101.053833,208.230591 
	C105.271011,214.324814 109.470497,220.866028 113.837830,227.699951 
	C111.916588,228.990128 109.827507,229.987595 107.366287,230.994751 
	C105.711250,227.914551 104.428352,224.824646 103.067833,221.373016 
	C102.338844,216.900055 101.687492,212.788818 101.053833,208.230591 
z"/>
<path fill="#0782D3" opacity="1.000000" stroke="none" 
	d="
M66.050400,152.099274 
	C65.700745,142.045837 65.351082,131.992386 65.001556,121.470543 
	C65.001686,121.002136 65.007149,120.509644 65.009415,120.263580 
	C67.181808,118.495766 69.351929,116.973999 71.756882,115.221375 
	C72.823082,114.430588 73.654449,113.870659 74.743927,113.156082 
	C75.364937,123.084846 75.727852,133.168259 76.002068,144.036896 
	C72.963860,147.257034 70.014351,149.691910 66.811378,152.114380 
	C66.388748,152.101059 66.219574,152.100174 66.050400,152.099274 
z"/>
<path fill="#0A5AA5" opacity="1.000000" stroke="none" 
	d="
M126.146194,207.644623 
	C124.152573,208.169113 122.335640,208.398544 120.259712,208.841949 
	C119.338966,207.894989 118.677223,206.734039 117.955658,204.839020 
	C118.919456,200.398285 119.943069,196.691574 121.201752,192.745361 
	C123.274895,189.972946 125.112953,187.440063 126.951012,184.907181 
	C130.044312,184.947021 133.137604,184.986862 136.661987,185.041473 
	C137.093094,185.056259 137.094040,185.543304 137.106750,185.786835 
	C135.460526,188.459366 133.801575,190.888382 132.071762,193.658691 
	C130.719955,196.439713 129.439026,198.879425 128.090302,201.661270 
	C127.455986,203.785446 126.889435,205.567490 126.146194,207.644623 
z"/>
<path fill="#ffec18" opacity="1.000000" stroke="none" 
	d="
M179.861481,87.836838 
	C179.705200,87.896027 179.435699,87.704918 179.087036,87.232803 
	C179.229645,87.203842 179.476425,87.415428 179.861481,87.836838 
z"/>
<path fill="#ffec18" opacity="1.000000" stroke="none" 
	d="
M181.819672,88.823425 
	C181.703629,88.823265 181.388702,88.628143 180.873352,88.233612 
	C180.988876,88.232300 181.304840,88.430382 181.819672,88.823425 
z"/>
<path fill="#0687D6" opacity="1.000000" stroke="none" 
	d="
M127.016571,184.594910 
	C125.112953,187.440063 123.274895,189.972946 120.821335,192.592712 
	C112.446495,192.124344 104.687157,191.569092 96.927811,191.013840 
	C96.484764,186.893707 96.041718,182.773590 95.798294,178.325989 
	C106.818832,178.929001 117.639755,179.859512 128.864441,180.957733 
	C128.539490,182.177826 127.810806,183.230240 127.016571,184.594910 
z"/>
<path fill="#ffec18" opacity="1.000000" stroke="none" 
	d="
M69.811363,178.231430 
	C75.413727,178.639313 80.813095,179.404343 86.237785,179.881348 
	C90.663254,180.270508 91.698914,182.315506 89.924400,186.187103 
	C89.108826,187.966537 88.347229,189.770706 86.921204,191.632568 
	C79.856903,190.799454 73.432564,189.897446 67.008232,188.995422 
	C67.008232,188.995438 67.003166,188.498596 66.999405,188.250214 
	C67.324394,185.931793 67.653152,183.861771 67.993774,181.396194 
	C68.543526,180.155136 69.081421,179.309601 69.811363,178.231430 
z"/>
<path fill="#ffec18" opacity="1.000000" stroke="none" 
	d="
M54.872368,161.351410 
	C55.550102,160.838440 56.048313,160.593689 56.970894,160.548416 
	C58.590466,161.199005 59.753815,161.784332 60.986637,162.077011 
	C65.318817,163.105560 69.674881,164.033508 74.018585,165.333038 
	C74.009178,166.110901 74.003067,166.555374 73.996948,166.999847 
	C73.148254,168.507126 72.299561,170.014404 71.228271,171.760681 
	C65.502708,171.016724 59.990067,170.083557 54.503490,169.016357 
	C53.108063,168.744949 51.795460,168.047745 50.207397,167.252991 
	C51.544277,165.179733 53.118561,163.399704 54.872368,161.351410 
z"/>
<path fill="#ffec18" opacity="1.000000" stroke="none" 
	d="
M66.865166,189.325226 
	C73.432564,189.897446 79.856903,190.799454 86.643600,191.851273 
	C85.819878,194.818573 84.633797,197.636047 82.803749,200.727631 
	C76.444870,200.330399 70.729958,199.659058 65.015045,198.987717 
	C65.013451,197.923782 65.011856,196.859833 65.013435,195.396790 
	C65.585106,193.216782 66.153603,191.435913 66.865166,189.325226 
z"/>
<path fill="#ffec18" opacity="1.000000" stroke="none" 
	d="
M65.010574,199.384247 
	C70.729958,199.659058 76.444870,200.330399 82.599777,201.004364 
	C83.026085,201.755325 83.012405,202.503693 82.995735,203.626419 
	C81.849014,206.522202 80.705284,209.043594 79.285019,211.782242 
	C74.259003,211.055206 69.509529,210.110916 64.388535,209.077332 
	C64.017586,207.922653 64.018150,206.857269 64.022354,205.391693 
	C64.352692,203.254593 64.679405,201.517700 65.010574,199.384247 
z"/>
<path fill="#0699E0" opacity="1.000000" stroke="none" 
	d="
M130.918335,100.338547 
	C136.051941,99.006386 141.100128,98.007050 146.459381,97.316910 
	C136.846909,110.417412 126.923386,123.208702 116.999863,136.000000 
	C116.999870,136.000000 116.500679,136.000641 116.251099,136.001038 
	C105.928558,139.293594 100.279495,147.537216 94.427795,155.475220 
	C92.396614,158.230576 90.895798,161.376907 89.081909,164.696533 
	C87.455536,166.423721 85.899986,167.799042 84.137299,168.631409 
	C83.998833,165.721893 84.067513,163.355316 84.136185,160.988754 
	C85.759293,159.652786 87.719299,158.571960 88.953865,156.941742 
	C102.676125,138.821838 116.288345,120.618584 129.915253,102.426582 
	C130.305939,101.905037 130.530746,101.259232 130.918335,100.338547 
z"/>
<path fill="#0695DE" opacity="1.000000" stroke="none" 
	d="
M117.391998,135.967239 
	C126.923386,123.208702 136.846909,110.417412 146.885757,97.314926 
	C147.444107,97.001350 147.887146,96.998962 148.662338,96.994781 
	C151.066528,97.322609 153.138565,97.652245 155.606476,97.993698 
	C150.113464,106.171753 143.820175,114.082573 138.453995,122.578949 
	C133.489014,130.440140 127.004082,135.083527 117.391998,135.967239 
z"/>
<path fill="#ffec18" opacity="1.000000" stroke="none" 
	d="
M84.102219,160.565369 
	C84.067513,163.355316 83.998833,165.721893 83.896805,168.529297 
	C80.827759,168.366867 77.792061,167.763611 74.376663,167.080093 
	C74.003067,166.555374 74.009178,166.110901 74.246536,165.084991 
	C74.909988,163.816071 75.392731,163.154846 75.766388,162.436874 
	C78.618317,156.957077 78.129517,156.194794 71.915192,154.805344 
	C70.185257,154.418579 68.675568,153.046738 67.064842,152.126801 
	C70.014351,149.691910 72.963860,147.257034 76.031250,144.515884 
	C79.554047,142.852539 82.958946,141.495453 86.725677,140.068848 
	C86.081100,146.713531 85.074677,153.427765 84.102219,160.565369 
z"/>
<path fill="#ffec18" opacity="1.000000" stroke="none" 
	d="
M96.943604,191.428787 
	C104.687157,191.569092 112.446495,192.124344 120.586258,192.832245 
	C119.943069,196.691574 118.919456,200.398285 117.855865,204.516022 
	C117.359550,205.501556 116.903214,206.076065 116.257309,206.851364 
	C111.349854,206.368042 106.631958,205.683929 101.448959,204.999832 
	C99.812866,202.185577 98.641876,199.371323 97.254845,196.278015 
	C97.012337,194.613892 96.985870,193.228821 96.943604,191.428787 
z"/>
<path fill="#0963C1" opacity="1.000000" stroke="none" 
	d="
M66.811378,152.114380 
	C68.675568,153.046738 70.185257,154.418579 71.915192,154.805344 
	C78.129517,156.194794 78.618317,156.957077 75.766388,162.436874 
	C75.392731,163.154846 74.909988,163.816071 74.249832,164.751617 
	C69.674881,164.033508 65.318817,163.105560 60.986637,162.077011 
	C59.753815,161.784332 58.590466,161.199005 57.226509,160.440063 
	C59.928577,157.633682 62.799400,155.135147 65.860306,152.367935 
	C66.219574,152.100174 66.388748,152.101059 66.811378,152.114380 
z"/>
</svg>