<svg
        xmlns="http://www.w3.org/2000/svg"
        width="187.51"
        height="200"
        viewBox="0 0 187.51 200"
      >
        <defs>
          <style>
            .f6e390ba-1090-4ded-aea9-435d2daa37ba {
              fill: #343333;
            }
          </style>
        </defs>
        <g id="f5c14de5-6493-449c-aba8-0d85b362f6e7" data-name="Layer 2">
          <g id="fe593e16-0eb4-46ca-b784-4d4880ee97df" data-name="Layer 1">
            <path
              class="f6e390ba-1090-4ded-aea9-435d2daa37ba"
              d="M184.44,75.3c-12.79-34.87-56.1-47.61-77-39.54C109.72,24.32,114.4,14,124.79,3.65c-2-1-4.86-2.44-7.16-3.65-5.17,3.11-12.18,12.92-14.25,21a83.34,83.34,0,0,0-2.31,13.69c-14-12.5-52-19.33-78.2,1.74-27.84,22.34-28,73-12.55,118C19.1,180,48.4,192.25,74.24,189.71c19.68,8.69,44.84,19.65,71-3.83C175.3,158.91,195.5,105.44,184.44,75.3Z"
            />
          </g>
        </g>
      </svg>