<?xml version="1.0" standalone="no"?>
<!DOCTYPE svg PUBLIC "-//W3C//DTD SVG 20010904//EN"
 "http://www.w3.org/TR/2001/REC-SVG-20010904/DTD/svg10.dtd">
<svg version="1.0" xmlns="http://www.w3.org/2000/svg"
 width="948.000000pt" height="638.000000pt" viewBox="0 0 948.000000 638.000000"
 preserveAspectRatio="xMidYMid meet">

<g transform="translate(0.000000,638.000000) scale(0.100000,-0.100000)"
fill="" stroke="none">
<path fill="teal" d="M2700 5809 c-291 -29 -591 -133 -813 -283 -118 -79 -147 -110 -147
-155 0 -53 20 -74 99 -106 39 -15 71 -31 71 -34 0 -3 -25 -26 -55 -51 -235
-191 -365 -536 -365 -966 0 -72 5 -145 11 -163 15 -41 59 -64 107 -56 l37 6
28 -83 c67 -196 182 -382 321 -522 234 -234 542 -371 915 -405 63 -6 115 -12
116 -13 1 -2 16 -33 33 -70 83 -182 226 -326 437 -443 l51 -28 -51 -77 c-82
-124 -134 -270 -156 -439 -13 -99 -6 -304 15 -398 l14 -63 -129 0 -129 0 0
308 c0 179 -4 322 -10 344 -6 20 -22 46 -37 58 -24 19 -39 20 -248 20 -217 0
-222 0 -243 -23 -30 -32 -42 -70 -42 -133 l0 -54 -174 0 c-170 0 -176 -1 -203
-24 l-28 -24 -3 -236 -3 -236 -103 0 c-112 0 -145 -12 -189 -71 -24 -33 -26
-113 -3 -156 31 -61 69 -77 188 -82 l108 -3 0 -220 c0 -232 6 -264 49 -288 11
-6 92 -10 190 -10 l171 0 0 -47 c0 -68 17 -119 47 -143 24 -19 39 -20 243 -20
200 0 219 2 242 19 43 34 48 76 48 405 l0 306 203 0 203 0 31 -33 c21 -22 39
-60 58 -122 63 -208 235 -510 321 -565 65 -41 176 -65 304 -65 89 0 111 4 147
23 89 47 122 126 130 312 l5 125 252 0 251 0 1 -110 c2 -184 42 -282 133 -327
40 -20 61 -23 156 -22 172 1 282 37 350 116 85 99 206 333 265 512 24 73 40
106 64 127 l31 28 188 1 187 0 0 -315 c0 -339 3 -365 51 -399 20 -14 56 -16
237 -16 127 0 221 4 233 10 29 16 49 64 56 135 l6 65 163 0 c101 0 173 4 188
11 49 23 56 57 56 293 l0 216 93 0 c77 0 100 4 137 22 108 56 108 216 0 270
-26 14 -60 18 -132 18 l-98 0 0 215 c0 229 -7 272 -48 294 -13 7 -88 11 -190
11 l-169 0 -6 65 c-7 71 -27 119 -56 135 -29 15 -451 13 -472 -3 -9 -7 -23
-26 -32 -44 -15 -28 -17 -74 -17 -353 l0 -320 -116 0 c-115 0 -116 0 -111 23
36 146 41 381 13 517 -33 157 -93 294 -176 406 l-39 51 89 53 c188 111 328
250 403 400 17 36 36 68 40 71 5 3 48 9 97 12 169 12 399 76 554 154 307 154
547 434 663 771 l28 83 37 -6 c48 -8 92 15 107 56 14 40 14 268 0 379 -42 338
-163 596 -351 747 -32 25 -58 49 -58 53 0 4 32 19 70 34 78 31 100 54 100 106
0 44 -38 84 -158 163 -372 248 -954 352 -1373 246 -318 -80 -600 -324 -773
-667 -30 -59 -41 -72 -54 -67 -66 26 -206 67 -298 87 -96 20 -136 23 -329 23
-247 -1 -336 -14 -529 -81 -55 -19 -110 -37 -121 -40 -17 -4 -28 11 -70 93
-175 342 -454 577 -780 657 -137 34 -365 44 -555 25z m495 -119 c203 -40 369
-133 522 -293 50 -52 115 -133 146 -179 53 -80 127 -218 127 -236 0 -5 -21
-18 -47 -29 -27 -12 -86 -45 -132 -76 l-83 -54 -59 57 c-126 124 -280 211
-454 256 -81 21 -125 26 -230 27 -184 1 -305 -27 -465 -109 -270 -138 -457
-389 -521 -699 -18 -85 -15 -294 5 -382 95 -429 437 -734 875 -783 52 -6 96
-12 98 -13 1 -2 5 -22 9 -46 l7 -43 -74 7 c-184 17 -384 72 -531 146 -310 156
-507 390 -622 740 -49 149 -61 162 -122 140 -20 -7 -39 -10 -42 -6 -12 12 -4
257 12 364 45 296 157 505 349 650 65 49 77 67 77 108 0 40 -22 66 -72 87 -24
10 -60 25 -81 35 l-38 16 73 51 c239 165 516 259 833 284 137 11 332 2 440
-20z m3694 -1 c265 -44 517 -146 698 -284 l42 -32 -37 -16 c-20 -9 -54 -22
-76 -29 -50 -17 -76 -51 -76 -98 0 -41 8 -50 119 -135 149 -114 267 -350 307
-615 15 -106 24 -354 12 -365 -4 -4 -22 -1 -42 6 -61 22 -78 6 -111 -106 -155
-526 -568 -858 -1143 -919 l-54 -5 7 42 c4 23 9 45 11 48 2 3 36 9 76 12 91 8
228 47 311 88 290 145 483 397 548 714 16 78 16 284 0 360 -86 412 -386 713
-796 796 -83 17 -294 14 -381 -5 -182 -39 -347 -127 -487 -259 l-48 -45 -83
52 c-45 28 -105 62 -134 75 -29 14 -52 29 -52 34 0 23 98 193 155 269 164 218
369 359 603 414 154 37 414 38 631 3z m-3793 -640 c174 -24 346 -106 472 -224
l75 -71 -72 -63 c-80 -71 -203 -214 -279 -324 -192 -278 -312 -656 -312 -984
l0 -96 -77 6 c-367 29 -687 296 -783 652 -31 113 -37 275 -15 390 60 323 286
579 602 684 120 40 248 50 389 30z m1919 -14 c50 -9 123 -24 163 -35 72 -20
265 -91 260 -95 -2 -2 -34 3 -73 11 -172 33 -343 47 -580 47 -291 0 -432 -15
-720 -77 -30 -7 -30 -7 5 12 108 60 353 130 525 151 103 13 306 6 420 -14z
m1706 1 c415 -114 686 -481 666 -901 -6 -133 -34 -240 -89 -352 -123 -248
-357 -424 -636 -479 -119 -23 -112 -27 -112 69 -1 242 -68 520 -185 763 -103
212 -223 375 -406 547 l-100 95 64 58 c114 104 292 189 449 213 84 13 280 5
349 -13z m-1486 -515 c354 -55 695 -173 944 -326 55 -34 62 -43 100 -125 148
-319 212 -770 131 -930 -88 -174 -266 -335 -489 -442 -536 -256 -1523 -301
-2140 -99 -323 106 -550 280 -665 509 -78 154 -23 621 108 924 25 57 193 181
362 266 192 96 483 183 739 221 196 29 199 29 500 26 215 -2 298 -7 410 -24z
m686 -2198 c102 -155 148 -318 149 -528 0 -340 -96 -568 -278 -657 -60 -30
-73 -32 -166 -33 -112 0 -171 15 -250 65 -52 33 -69 64 -53 95 5 11 51 63 101
115 134 141 187 261 185 420 -2 134 -11 139 -47 24 -41 -131 -101 -249 -158
-313 l-46 -51 -593 0 -593 0 -47 52 c-54 61 -122 197 -161 322 -22 73 -29 85
-37 70 -6 -11 -10 -62 -10 -114 2 -170 53 -279 209 -441 46 -48 84 -96 84
-106 0 -48 -121 -117 -237 -135 -80 -12 -183 2 -244 33 -173 88 -272 325 -272
654 0 208 46 372 147 524 l47 71 35 -15 c19 -8 56 -32 82 -54 45 -38 159 -111
173 -111 3 0 9 19 13 41 6 40 8 41 39 36 18 -3 73 -13 122 -21 314 -55 765
-59 1120 -10 110 15 291 49 319 60 11 4 16 -6 21 -40 4 -26 11 -49 17 -52 13
-8 131 65 203 126 32 27 63 50 67 50 4 0 31 -35 59 -77z m-660 -1211 c48 -48
136 -96 215 -116 76 -20 225 -21 287 -2 26 8 47 12 47 10 0 -17 -60 -156 -105
-243 -82 -158 -82 -158 -195 -177 -125 -21 -263 -16 -310 12 -19 11 -46 36
-59 55 -22 32 -23 40 -18 151 4 93 2 121 -10 138 -9 13 -12 31 -8 47 6 25 5
25 -42 19 -121 -15 -441 -17 -540 -4 l-103 14 0 -33 c0 -19 -6 -44 -14 -56
-10 -18 -11 -41 -3 -118 9 -91 9 -99 -12 -142 -14 -28 -37 -55 -59 -69 -33
-21 -49 -23 -162 -23 -69 0 -155 6 -192 14 l-68 13 -43 72 c-49 82 -99 185
-133 272 l-23 62 47 -15 c67 -22 222 -21 296 1 87 26 166 68 211 114 l40 40
459 1 458 1 39 -38z"/>
<path fill="orange" d="M4657 3931 c-183 -74 -337 -326 -337 -550 1 -218 117 -361 328 -402
61 -11 62 -12 62 -45 0 -26 -16 -52 -81 -131 -44 -53 -76 -99 -71 -101 6 -2
50 23 99 54 48 31 93 57 98 57 6 0 52 -26 103 -58 51 -31 96 -55 99 -52 5 6
-5 20 -106 142 -31 38 -41 58 -41 85 l0 36 71 16 c95 23 150 51 204 104 109
109 139 278 83 464 -86 282 -321 457 -511 381z"/>
<path fill="red" d="M3724 3926 c-3 -8 -3 -20 1 -26 9 -15 188 -119 284 -166 44 -21 81
-41 81 -44 0 -3 -28 -13 -63 -23 -210 -61 -227 -67 -227 -87 0 -11 6 -20 13
-20 24 0 422 81 445 90 37 16 26 58 -23 92 -54 37 -203 102 -339 148 -151 51
-165 54 -172 36z"/>
<path fill="red" d="M5695 3911 c-121 -37 -263 -93 -345 -137 -104 -54 -130 -85 -95 -114
14 -11 416 -99 458 -100 10 0 17 7 17 19 0 15 -16 24 -72 41 -40 12 -106 31
-145 43 -40 12 -73 24 -73 27 0 3 43 27 95 53 145 72 277 156 273 175 -5 24
-16 23 -113 -7z"/>
<path fill="orange" d="M6732 2925 c-93 -28 -198 -78 -205 -97 -8 -24 13 -48 41 -48 79 0
248 -67 334 -133 99 -76 170 -96 233 -66 95 46 102 215 13 295 -56 52 -107 68
-223 71 -94 3 -122 -1 -193 -22z m320 -73 c56 -28 88 -74 88 -129 0 -48 -29
-83 -69 -83 -16 0 -50 15 -77 33 -27 18 -71 48 -97 66 -26 18 -85 48 -130 67
-45 18 -77 34 -72 34 6 1 42 10 80 20 96 27 213 23 277 -8z"/>
<path fill="orange" d="M2550 2931 c-149 -46 -223 -169 -174 -291 42 -104 151 -113 270 -24
91 69 206 122 309 143 74 15 91 21 93 38 2 10 -5 26 -15 35 -26 23 -135 67
-221 89 -77 19 -213 24 -262 10z m274 -88 l60 -18 -73 -29 c-66 -26 -105 -49
-235 -139 -77 -53 -142 -26 -140 60 1 68 53 122 137 144 48 12 184 2 251 -18z"/>
<path fill="orange" d="M6502 2704 c-8 -15 -2 -33 28 -81 36 -61 56 -123 79 -247 12 -65 30
-92 77 -112 79 -33 174 48 174 149 0 87 -99 204 -222 265 -88 43 -123 50 -136
26z m195 -151 c56 -45 86 -95 86 -146 0 -44 -28 -77 -64 -77 -25 0 -35 22 -48
106 -6 39 -17 90 -26 113 -8 24 -15 45 -15 48 0 7 22 -7 67 -44z"/>
<path fill="orange" d="M2980 2686 c-162 -67 -260 -175 -260 -286 0 -60 18 -100 59 -129 42
-30 83 -36 120 -17 44 23 61 54 72 133 13 92 44 183 80 232 32 45 35 61 17 79
-16 16 -24 15 -88 -12z m-51 -152 c-10 -31 -21 -79 -25 -107 -9 -78 -22 -107
-50 -107 -13 0 -33 10 -44 23 -30 31 -22 96 17 145 25 31 107 102 117 102 2 0
-5 -25 -15 -56z"/>
</g>
</svg>
