<?xml version="1.0" standalone="no"?>
<!DOCTYPE svg PUBLIC "-//W3C//DTD SVG 20010904//EN"
 "http://www.w3.org/TR/2001/REC-SVG-20010904/DTD/svg10.dtd">
<svg version="1.0" xmlns="http://www.w3.org/2000/svg"
 width="683.000000pt" height="938.000000pt" viewBox="0 0 683.000000 938.000000"
 preserveAspectRatio="xMidYMid meet">

<g transform="translate(0.000000,938.000000) scale(0.100000,-0.100000)"
fill="#000000" stroke="none">
<path fill="orange" d="M3095 9309 c-38 -5 -108 -13 -155 -19 -47 -6 -98 -10 -114 -11 -16 0
-37 -4 -48 -10 -11 -6 -30 -13 -42 -14 -77 -12 -105 -19 -133 -31 -17 -8 -44
-14 -60 -14 -16 0 -33 -3 -37 -7 -3 -4 -12 -8 -19 -9 -7 -2 -25 -7 -42 -13
-16 -6 -73 -25 -125 -42 -52 -17 -99 -34 -105 -38 -5 -4 -32 -16 -60 -26 -27
-10 -54 -22 -60 -26 -5 -5 -16 -9 -25 -9 -8 0 -40 -13 -70 -30 -30 -16 -63
-29 -72 -30 -10 0 -18 -4 -18 -8 0 -5 -16 -14 -35 -22 -19 -8 -35 -18 -35 -24
0 -5 -3 -6 -7 -3 -3 4 -13 1 -22 -7 -9 -8 -20 -16 -26 -17 -36 -8 -45 -12 -45
-20 0 -5 -6 -9 -12 -9 -7 0 -31 -14 -52 -30 -22 -17 -45 -30 -52 -30 -7 0 -18
-8 -23 -17 -6 -10 -11 -14 -11 -9 0 4 -15 -3 -34 -18 -19 -14 -37 -26 -41 -26
-3 0 -18 -11 -32 -24 -15 -14 -30 -23 -34 -20 -5 2 -12 -3 -18 -13 -5 -10 -28
-29 -50 -43 -23 -14 -43 -32 -46 -40 -3 -8 -13 -20 -23 -25 -52 -29 -82 -51
-82 -62 0 -7 -6 -13 -12 -13 -7 0 -34 -19 -60 -43 -25 -23 -78 -71 -117 -106
-39 -36 -71 -71 -71 -78 0 -7 -7 -13 -15 -13 -8 0 -15 -7 -15 -15 0 -8 -10
-20 -22 -26 -13 -7 -42 -33 -66 -58 -23 -25 -55 -59 -70 -76 -34 -37 -122
-153 -122 -161 0 -4 -20 -35 -45 -71 -25 -35 -45 -70 -45 -78 0 -7 -4 -15 -8
-17 -12 -4 -82 -121 -82 -136 0 -6 -4 -12 -10 -12 -5 0 -10 -8 -10 -17 0 -10
-9 -29 -20 -43 -11 -14 -20 -33 -20 -42 0 -9 -4 -19 -10 -23 -5 -3 -7 -12 -3
-20 3 -8 1 -15 -5 -15 -6 0 -13 -18 -17 -40 -4 -22 -11 -40 -16 -40 -5 0 -9
-7 -9 -16 0 -9 -6 -30 -13 -47 -41 -94 -99 -332 -113 -461 -17 -149 -21 -210
-19 -276 2 -41 3 -92 4 -112 1 -34 7 -41 66 -83 79 -57 115 -98 115 -133 0
-15 4 -42 9 -60 6 -21 6 -43 1 -58 -9 -22 -15 -24 -69 -23 -32 1 -63 -1 -68
-4 -14 -9 20 -198 62 -342 39 -134 36 -131 162 -196 86 -44 93 -53 124 -154 7
-22 22 -56 34 -75 12 -19 32 -57 44 -85 13 -27 28 -56 34 -63 13 -17 102 -237
128 -319 11 -34 24 -65 29 -68 6 -3 10 -23 10 -44 0 -39 23 -130 42 -165 44
-82 73 -427 59 -695 -4 -85 0 -91 70 -91 25 0 60 -7 78 -16 17 -8 44 -13 59
-10 24 4 265 49 572 107 63 11 127 23 143 26 32 6 34 -5 16 -86 -8 -41 -8 -56
4 -79 11 -23 12 -44 5 -92 -4 -35 -7 -65 -5 -66 2 -2 13 -1 26 3 16 4 21 11
18 24 -3 10 1 23 8 29 8 6 12 17 9 25 -3 7 -1 16 5 20 6 3 11 19 11 36 0 16 5
29 10 29 6 0 10 7 10 17 0 15 -1 15 -18 0 -23 -21 -42 -22 -42 -2 0 8 7 15 15
15 8 0 15 4 15 9 0 5 14 23 32 40 l32 31 -26 0 c-42 0 -43 14 -23 235 9 100
11 109 27 145 8 19 21 55 29 80 8 25 20 44 27 43 15 -4 15 10 0 25 -9 9 -9 12
3 12 7 -1 27 -18 44 -38 39 -51 125 -91 204 -97 48 -3 51 -5 51 -23 0 -9 -10
-29 -22 -42 -46 -52 -72 -94 -60 -98 16 -5 15 -59 0 -65 -7 -2 -10 -8 -6 -12
5 -5 17 2 28 15 11 13 26 20 35 16 21 -8 19 -36 -2 -37 -15 0 -14 -3 5 -16 29
-20 28 -36 -2 -53 -21 -11 -24 -18 -19 -49 4 -20 10 -39 15 -42 4 -3 8 -26 7
-52 -2 -33 -9 -53 -27 -72 -13 -14 -21 -29 -17 -33 4 -4 10 -1 12 6 6 17 30
15 37 -3 6 -16 1 -18 -69 -44 -17 -7 -37 -21 -44 -33 -12 -19 -11 -23 5 -36
18 -13 18 -14 -5 -30 -39 -28 -111 -102 -111 -115 0 -8 -3 -7 -9 2 -12 19 -43
6 -39 -16 2 -12 -4 -19 -19 -21 -22 -3 -33 -22 -14 -22 30 0 -26 -72 -78 -99
-30 -16 -26 -5 14 42 19 22 33 42 31 45 -7 7 -55 -32 -56 -44 0 -13 -35 -25
-44 -16 -3 3 -6 19 -6 35 0 26 3 29 25 25 13 -3 22 -1 19 3 -3 5 1 9 8 9 7 0
27 11 43 25 l30 25 -59 -3 c-40 -1 -60 2 -63 11 -3 6 2 12 9 12 16 0 68 51 68
67 0 16 -38 23 -66 13 -16 -6 -24 -17 -24 -33 0 -13 -5 -28 -11 -34 -14 -14
-18 -53 -8 -68 12 -18 21 -105 10 -105 -6 0 -8 -46 -5 -122 6 -193 10 -225 31
-252 17 -22 19 -33 11 -87 -5 -41 -5 -66 2 -73 5 -5 10 -20 10 -32 0 -12 7
-24 15 -28 8 -3 15 -18 15 -33 0 -37 -30 -145 -46 -163 -7 -8 -29 -46 -50 -85
-20 -38 -53 -101 -74 -140 -20 -38 -56 -105 -79 -148 -22 -42 -41 -85 -41 -95
0 -10 -8 -27 -17 -38 -24 -27 -79 -136 -75 -150 1 -6 -5 -17 -13 -24 -8 -7
-15 -21 -15 -30 0 -10 -4 -20 -9 -22 -13 -5 -71 -125 -71 -146 0 -11 -7 -25
-15 -32 -8 -7 -28 -40 -44 -74 -16 -34 -36 -68 -45 -75 -9 -7 -16 -20 -16 -28
0 -20 -51 -123 -62 -123 -4 0 -8 -7 -8 -15 0 -8 -18 -44 -40 -80 -22 -36 -37
-65 -34 -65 4 0 -1 -11 -10 -25 -28 -43 -61 -107 -80 -160 -11 -27 -22 -52
-25 -55 -18 -16 -79 -139 -106 -216 -12 -34 -29 -70 -38 -79 -21 -20 -24 -105
-4 -106 6 0 3 -5 -8 -10 -30 -15 -58 -68 -44 -85 8 -10 6 -20 -10 -42 -11 -16
-26 -50 -33 -75 -7 -30 -15 -42 -20 -34 -5 8 -8 6 -8 -8 0 -11 -13 -47 -29
-80 -16 -33 -25 -63 -20 -66 5 -3 2 -14 -6 -25 -8 -10 -15 -27 -15 -36 0 -10
-7 -18 -15 -18 -8 0 -15 -4 -15 -10 0 -6 59 -10 156 -10 120 0 159 3 169 14
14 13 30 64 42 131 3 17 14 38 24 48 11 10 19 27 19 38 0 10 4 27 9 37 14 25
39 120 46 172 9 70 57 243 72 261 7 8 13 24 13 35 0 27 22 85 44 119 10 16 20
36 21 44 3 34 37 131 45 131 5 0 12 17 16 38 4 20 11 43 17 50 5 7 7 15 3 19
-3 3 1 14 9 23 9 10 23 46 31 81 17 70 26 95 55 151 10 20 19 46 19 56 0 11 9
31 21 45 11 15 22 36 24 47 2 11 11 30 19 42 9 12 16 31 16 40 0 10 4 26 9 36
46 92 71 149 71 162 0 8 9 30 20 48 11 18 20 40 20 49 0 14 48 124 89 203 10
19 22 50 26 69 8 39 61 149 81 169 8 7 14 21 14 31 0 29 30 81 47 81 12 0 14
-11 10 -67 -3 -38 -12 -88 -21 -113 -9 -25 -16 -53 -16 -63 0 -9 -4 -25 -10
-35 -11 -19 -66 -146 -75 -172 -1 -3 -9 -22 -18 -42 -10 -21 -17 -45 -17 -54
0 -10 -7 -25 -16 -35 -23 -25 -70 -147 -84 -215 -6 -32 -20 -77 -30 -99 -15
-33 -65 -188 -95 -292 -3 -13 -11 -23 -16 -23 -5 0 -9 -20 -9 -44 0 -26 -6
-48 -15 -56 -8 -7 -12 -17 -9 -22 6 -10 3 -21 -34 -96 -12 -23 -27 -71 -33
-105 -6 -34 -15 -71 -19 -82 -4 -11 -18 -65 -31 -120 -12 -55 -27 -108 -31
-118 -5 -10 -11 -28 -13 -39 -3 -11 -14 -57 -25 -102 -18 -72 -30 -105 -61
-168 -5 -10 -9 -29 -9 -43 0 -14 -4 -25 -10 -25 -5 0 -13 -12 -16 -27 -4 -16
-10 -30 -13 -33 -4 -3 -12 -32 -19 -64 -6 -34 -21 -69 -34 -83 -12 -12 -18
-26 -14 -30 4 -4 11 -1 16 7 7 10 10 11 10 3 0 -10 550 -13 2716 -13 l2717 0
-8 68 c-10 92 -9 108 4 178 6 34 12 118 13 188 3 120 4 127 24 132 26 7 22 33
-7 60 -12 11 -19 30 -19 55 0 21 -5 41 -10 44 -6 4 -8 10 -5 15 9 15 -26 41
-46 35 -15 -5 -19 -1 -19 19 0 14 -5 26 -11 26 -6 0 -9 10 -7 23 5 33 29 27
50 -14 15 -29 28 -39 61 -48 24 -5 54 -20 68 -32 l24 -21 3 71 c2 56 -1 76
-15 96 -10 13 -22 25 -28 25 -5 0 -26 14 -45 30 -19 17 -38 30 -43 30 -13 0
-40 25 -82 74 -13 15 -39 60 -65 114 -17 35 -24 41 -35 32 -11 -9 -22 -8 -49
5 -20 10 -36 20 -36 24 0 3 -16 26 -35 50 -28 35 -36 40 -41 26 -4 -9 2 -35
14 -58 11 -23 23 -57 27 -74 4 -18 11 -33 16 -33 5 0 9 -21 9 -47 0 -31 7 -59
20 -78 10 -16 15 -32 10 -35 -5 -3 -3 -26 6 -55 9 -30 13 -67 10 -92 -3 -23
-1 -45 4 -48 14 -9 12 -99 -2 -113 -9 -9 -8 -12 5 -12 21 0 22 -14 2 -30 -9
-7 -15 -25 -13 -39 4 -35 -14 -40 -30 -7 -7 14 -17 26 -23 26 -5 0 -9 9 -9 20
0 11 -4 20 -9 20 -5 0 -9 6 -8 13 1 33 -4 47 -18 47 -8 0 -15 -6 -16 -12 0 -7
-5 -2 -10 12 -7 17 -7 26 0 28 6 2 11 23 11 47 0 34 -6 50 -25 70 -14 14 -30
25 -35 25 -17 0 -11 18 8 23 11 3 8 5 -9 6 -31 1 -54 25 -63 66 -4 17 -14 38
-23 47 -13 15 -17 15 -29 3 -8 -7 -14 -25 -14 -40 0 -15 -4 -24 -10 -20 -6 4
-8 10 -5 15 3 5 1 12 -5 15 -6 4 -10 21 -8 39 1 18 -3 46 -9 62 -13 32 -28
102 -26 122 0 6 -3 12 -8 12 -5 0 -9 7 -9 15 0 8 -4 23 -10 33 -5 9 -20 55
-34 102 -13 47 -38 123 -56 170 -60 163 -72 201 -66 215 3 8 2 15 -3 15 -4 0
-27 42 -51 93 -113 243 -129 271 -196 342 -37 39 -80 87 -95 108 -77 106 -189
213 -279 267 -14 8 -40 24 -59 35 -154 92 -288 205 -243 205 9 0 27 66 37 137
5 31 1 61 -16 110 -19 58 -20 68 -7 77 30 22 40 55 28 91 -6 19 -8 44 -5 56 8
25 -13 82 -29 76 -6 -3 -12 9 -13 29 -1 20 4 35 13 38 24 9 16 33 -31 80 -46
48 -71 57 -81 31 -4 -10 -13 -13 -25 -10 -39 13 2 -49 49 -74 25 -13 29 -39 7
-47 -8 -4 -15 -14 -15 -24 0 -10 -6 -21 -12 -23 -7 -3 -3 -6 10 -6 30 -1 28
-27 -3 -35 -34 -9 -31 -29 6 -60 25 -22 38 -25 65 -20 20 4 34 2 34 -4 0 -28
-83 -29 -117 -2 -14 11 -38 20 -52 20 -17 0 -42 13 -66 36 -22 20 -41 31 -43
25 -2 -6 -8 -11 -14 -11 -6 0 -6 6 2 15 10 11 9 18 -3 30 -9 8 -23 15 -33 15
-13 0 -14 -3 -4 -15 8 -9 9 -15 2 -15 -6 0 -13 4 -16 9 -3 5 -15 7 -26 4 -14
-4 -20 0 -20 12 0 18 -29 76 -44 86 -5 4 1 10 13 14 11 3 21 9 21 13 -2 27
-81 84 -88 63 -7 -22 -42 10 -52 49 -10 35 -14 40 -41 40 -27 0 -29 2 -23 26
5 20 4 25 -5 20 -16 -10 -41 12 -41 35 0 19 -34 44 -49 34 -5 -3 -7 4 -4 15 3
13 0 22 -11 25 -49 15 -52 18 -33 22 21 5 23 23 2 23 -32 0 -108 64 -111 94
-1 6 -2 17 -3 25 -1 8 -7 11 -17 7 -11 -4 -19 3 -27 24 -6 16 -15 30 -19 30
-5 0 -6 10 -3 23 4 16 0 29 -15 42 -12 11 -18 25 -15 36 4 12 -1 20 -15 24
-12 4 -25 18 -30 31 -5 13 -14 24 -20 24 -6 0 -10 8 -8 17 2 10 -2 18 -9 18
-18 0 -29 15 -16 23 8 5 -7 17 -37 31 -28 13 -62 34 -75 47 -14 13 -37 27 -50
30 -14 3 -25 10 -25 14 0 4 42 -1 93 -12 179 -39 504 -38 572 1 36 20 97 108
120 171 9 25 28 69 41 98 13 29 24 56 24 60 0 4 9 15 19 24 18 15 19 14 25
-15 4 -18 7 -39 7 -47 1 -8 7 -22 14 -30 20 -26 85 -283 85 -338 0 -17 4 -34
10 -37 16 -10 42 -111 42 -162 0 -34 5 -52 19 -64 15 -13 16 -18 6 -22 -21 -8
-20 -104 0 -116 25 -13 8 -44 -21 -39 -19 4 -22 1 -18 -14 2 -10 12 -18 22
-18 9 0 29 -9 44 -21 27 -21 34 -12 16 22 -8 15 -7 19 5 19 8 0 16 -9 17 -20
0 -11 1 -26 2 -32 1 -19 19 -29 27 -16 4 6 4 18 -1 27 -14 29 -30 87 -30 109
0 12 -9 39 -21 61 -24 47 -22 77 6 75 11 -1 72 -12 135 -24 74 -14 133 -20
165 -16 28 3 91 -1 140 -8 92 -14 391 -14 509 0 67 7 100 33 109 87 16 93 29
157 42 202 32 118 55 247 61 335 4 52 12 106 19 120 7 14 16 52 19 85 9 81 36
226 46 245 5 9 1 31 -11 55 -25 54 -24 67 10 99 32 31 51 90 51 160 0 43 -2
46 -25 46 -14 0 -28 -6 -31 -14 -8 -21 -31 -28 -109 -32 -38 -2 -90 -8 -115
-13 -78 -17 -230 -34 -237 -28 -14 14 48 177 66 177 6 0 12 -4 15 -9 9 -15
179 2 201 19 6 5 21 10 35 12 l25 4 -25 11 c-34 14 -54 39 -46 58 9 24 136 15
138 -10 4 -42 9 -44 41 -24 40 24 47 24 47 -1 0 -34 26 -22 48 23 11 23 34 86
50 140 27 87 28 98 14 106 -15 8 -14 17 7 88 51 170 60 213 88 429 l5 42 -53
-2 c-44 -1 -53 2 -50 14 2 8 5 111 7 228 l3 214 30 46 c55 87 72 134 60 175
-5 20 -9 43 -8 49 4 19 -11 123 -28 198 -8 36 -18 84 -23 107 -5 23 -16 58
-25 78 -8 21 -15 44 -15 51 0 7 -13 43 -30 79 -16 36 -30 68 -30 71 0 7 -27
70 -41 96 -5 10 -9 25 -9 33 0 8 -4 15 -10 15 -5 0 -10 5 -10 12 0 6 -6 19
-14 27 -7 9 -24 36 -37 61 -13 25 -36 61 -51 81 -16 20 -28 41 -28 46 0 5 -13
23 -30 41 -16 18 -30 36 -30 39 0 3 -15 24 -32 47 -18 22 -37 47 -43 55 -5 7
-31 36 -57 64 -27 28 -48 54 -48 59 0 5 -4 7 -9 3 -6 -3 -15 5 -22 17 -7 13
-15 25 -19 28 -22 16 -86 68 -102 83 -10 9 -22 17 -27 17 -5 0 -21 14 -34 30
-14 17 -29 30 -32 30 -4 0 -43 25 -87 55 -44 30 -83 55 -87 55 -4 0 -25 13
-47 29 -21 16 -97 61 -169 101 -71 40 -137 79 -146 86 -8 8 -23 14 -32 14 -9
0 -17 5 -17 10 0 6 -6 10 -14 10 -8 0 -27 6 -43 14 -130 64 -304 136 -329 136
-5 0 -15 5 -22 12 -6 6 -21 13 -31 15 -18 2 -121 35 -161 50 -8 4 -21 5 -28 4
-8 -1 -28 4 -45 13 -18 8 -61 20 -97 26 -36 6 -78 15 -95 20 -36 10 -148 30
-195 34 -19 2 -62 8 -95 14 -79 14 -53 12 -355 16 -146 2 -296 -1 -335 -5z
m336 -292 c14 -9 45 -18 70 -18 37 -2 50 -8 80 -40 27 -28 42 -36 57 -32 25 6
120 -24 144 -46 9 -9 20 -33 23 -53 6 -31 4 -38 -9 -38 -9 0 -16 7 -16 15 0 8
-2 15 -4 15 -2 0 -12 3 -20 6 -22 8 -10 -25 15 -46 14 -11 20 -33 24 -79 2
-35 7 -66 10 -69 8 -8 25 20 19 30 -3 4 1 8 9 8 8 0 17 9 20 20 3 11 10 20 16
20 16 0 24 -45 12 -68 -6 -12 -11 -28 -11 -37 0 -18 20 -15 74 11 31 15 45 7
46 -23 0 -7 6 -13 14 -13 8 0 20 -20 27 -45 9 -31 19 -45 31 -45 12 0 16 5 12
18 -3 9 6 0 19 -22 24 -37 26 -37 36 -17 20 36 31 23 31 -36 1 -64 10 -82 57
-106 18 -10 36 -23 40 -30 20 -34 107 -80 162 -86 36 -4 55 -11 54 -19 -2 -7
0 -12 3 -12 9 0 49 22 54 31 5 7 185 69 202 69 4 0 8 -7 8 -16 0 -8 5 -12 10
-9 6 3 10 -4 10 -17 0 -16 15 -34 54 -60 30 -21 60 -38 66 -38 7 0 24 -8 38
-18 28 -20 161 -85 175 -86 4 -1 11 -6 15 -12 4 -6 41 -34 82 -62 41 -28 89
-65 107 -81 17 -16 34 -27 36 -25 2 2 9 -7 16 -19 7 -13 30 -32 52 -41 21 -10
39 -23 39 -29 0 -7 19 -33 43 -59 23 -25 58 -65 77 -88 19 -23 42 -50 50 -59
8 -10 24 -33 34 -52 11 -19 24 -38 28 -44 36 -44 97 -156 123 -225 21 -53 28
-71 54 -130 10 -25 20 -48 21 -52 0 -4 7 -29 15 -55 7 -27 18 -79 24 -118 6
-38 15 -84 20 -102 5 -17 7 -34 3 -37 -3 -3 2 -6 11 -6 10 0 17 -4 17 -9 0 -5
10 -11 22 -13 13 -2 28 -14 35 -28 13 -27 27 -137 25 -187 -1 -18 2 -43 8 -57
6 -18 6 -26 -1 -26 -6 0 -7 -5 -4 -10 4 -6 15 -8 25 -5 12 4 19 -1 23 -16 8
-29 -9 -59 -33 -59 -10 0 -32 -11 -48 -24 -23 -21 -31 -38 -41 -98 -7 -40 -23
-100 -36 -133 -13 -33 -36 -98 -51 -145 -28 -86 -72 -150 -104 -150 -31 0
-124 -110 -135 -160 -4 -17 -12 -33 -18 -37 -6 -4 -50 -6 -97 -4 -62 1 -101
-3 -145 -17 -33 -11 -105 -27 -160 -37 -69 -11 -122 -28 -169 -51 -38 -19 -70
-33 -72 -31 -7 6 98 335 137 432 31 78 38 97 44 136 4 24 11 51 16 60 4 9 18
52 29 95 12 43 35 107 51 141 44 93 82 252 83 354 1 47 6 92 12 100 16 19 18
144 3 204 -6 28 -15 79 -20 115 -17 137 -30 193 -49 220 -11 15 -20 33 -20 39
0 6 -4 11 -10 11 -9 0 -60 101 -60 120 0 6 -4 10 -8 10 -5 0 -15 18 -22 41 -8
23 -25 48 -39 57 -53 34 -90 76 -93 105 -2 17 -11 35 -23 41 -26 15 -44 38
-45 57 0 23 -108 129 -131 129 -5 0 -12 7 -15 15 -4 8 -12 15 -19 15 -7 0 -23
8 -36 19 -35 28 -35 28 -58 7 -11 -10 -27 -16 -34 -13 -8 3 -28 -3 -46 -14
-25 -15 -31 -25 -31 -51 1 -54 20 -121 44 -153 26 -35 76 -146 76 -168 0 -19
39 -96 63 -121 9 -11 17 -30 17 -43 0 -13 5 -23 11 -23 6 0 8 -7 5 -16 -4 -10
12 -53 39 -106 25 -49 45 -95 45 -103 0 -8 4 -15 10 -15 5 0 13 -18 16 -40 4
-25 12 -40 21 -40 8 0 12 -4 9 -9 -3 -5 3 -20 14 -34 11 -14 20 -35 20 -46 0
-12 11 -44 25 -73 14 -28 25 -61 25 -72 0 -12 7 -34 15 -50 8 -15 15 -37 15
-47 0 -10 4 -21 10 -24 5 -3 7 -18 4 -33 -2 -15 2 -63 10 -107 8 -44 12 -83
10 -87 -2 -3 3 -34 12 -68 12 -48 13 -64 4 -70 -7 -4 -14 -43 -17 -94 -3 -48
-10 -89 -14 -92 -5 -3 -9 -14 -9 -26 0 -11 -9 -33 -20 -48 -11 -16 -17 -35
-14 -44 3 -9 2 -16 -3 -16 -8 0 -15 -21 -43 -125 -43 -158 -41 -153 -80 -237
-7 -14 -9 -31 -6 -37 5 -7 1 -8 -10 -4 -13 5 -15 2 -10 -14 4 -12 2 -31 -3
-44 -5 -13 -15 -44 -22 -69 -7 -25 -22 -65 -34 -90 -12 -25 -27 -65 -34 -90
-43 -146 -54 -173 -90 -207 -20 -18 -47 -37 -61 -40 -14 -3 -34 -12 -45 -19
-11 -7 -38 -16 -60 -19 -59 -10 -145 -37 -140 -45 7 -12 -189 -50 -290 -56
-55 -3 -118 -10 -140 -15 -60 -13 -67 -11 -45 11 11 11 24 20 29 20 17 0 24
22 10 31 -11 7 -9 9 7 9 12 0 27 7 34 15 7 8 22 15 33 15 16 0 18 3 10 11 -9
9 -8 15 2 25 7 8 16 14 19 14 4 0 25 14 48 30 40 29 96 50 148 55 14 2 32 5
40 8 8 2 30 8 48 12 23 5 31 12 28 22 -3 8 3 17 17 23 l22 9 -22 0 c-16 1 -21
6 -17 16 4 8 1 15 -5 15 -6 0 -11 11 -11 24 0 17 -9 27 -30 36 -16 7 -30 16
-30 21 0 41 -192 -22 -281 -92 -20 -16 -43 -29 -51 -29 -8 0 -51 -27 -96 -60
-45 -33 -85 -60 -90 -60 -8 0 -48 -35 -122 -106 -14 -13 -31 -24 -37 -24 -7 0
-17 -8 -22 -17 -6 -10 -11 -14 -11 -9 0 4 -15 -3 -34 -18 -19 -14 -41 -26 -49
-26 -23 0 -28 -12 -12 -30 14 -16 14 -18 1 -23 -9 -4 -13 -13 -10 -22 3 -8 1
-15 -5 -15 -6 0 -11 4 -11 9 0 5 -27 8 -59 7 -51 -1 -63 3 -84 24 -37 37 -57
52 -57 43 0 -4 -9 3 -20 17 -11 14 -20 19 -20 13 0 -7 -5 -13 -11 -13 -5 0 -8
4 -4 9 6 11 -12 24 -38 28 -27 4 -77 32 -77 43 0 6 -5 10 -11 10 -6 0 -45 23
-87 50 -42 28 -83 50 -91 50 -8 0 -22 6 -30 13 -9 8 -32 19 -51 27 -19 7 -54
21 -78 31 -23 11 -66 26 -95 33 -74 20 -107 34 -107 46 0 5 -18 10 -39 10 -22
0 -41 5 -43 11 -2 7 -17 8 -41 4 -30 -6 -37 -11 -37 -31 0 -19 -5 -24 -23 -24
-13 0 -32 -9 -41 -19 -10 -11 -28 -22 -41 -25 -14 -4 -31 -20 -40 -40 -9 -18
-25 -38 -37 -43 -22 -9 -108 2 -140 18 -10 5 -31 9 -48 9 -43 0 -64 27 -84
106 -28 113 -78 268 -93 285 -7 8 -13 23 -13 33 0 9 -9 27 -20 39 -11 12 -18
27 -16 34 3 7 2 13 -2 13 -11 0 -34 58 -28 69 3 5 -3 20 -14 34 -11 14 -20 35
-20 46 0 12 -7 24 -15 27 -8 4 -15 14 -15 25 0 10 -6 22 -13 26 -7 4 -18 22
-25 38 -6 17 -17 44 -23 60 -7 17 -14 38 -16 48 -2 10 -14 42 -27 70 -13 29
-27 72 -31 97 -4 25 -11 50 -16 56 -5 6 -16 51 -25 100 -8 49 -23 107 -31 129
-13 31 -16 73 -15 190 1 83 5 167 8 187 3 20 1 45 -4 55 -7 13 -6 26 4 43 7
14 13 50 14 81 0 43 4 58 16 63 11 4 14 13 10 30 -3 14 -2 27 3 30 5 3 7 14 4
24 -2 10 3 24 11 31 9 8 16 24 16 37 0 12 10 30 22 38 18 13 22 26 23 73 0 32
4 64 9 71 4 7 6 25 4 41 -1 16 4 35 14 44 9 10 14 25 11 37 -3 11 0 20 6 20 8
0 8 5 -1 19 -15 24 5 77 24 65 8 -5 9 -2 5 10 -7 16 -11 35 -23 93 -2 13 -16
25 -35 32 -21 7 -30 16 -27 28 3 15 15 19 66 21 60 3 62 4 62 31 0 15 6 36 14
46 12 16 11 23 -5 49 -10 16 -16 33 -13 38 3 4 25 8 50 8 36 0 44 3 44 19 0
10 -7 24 -15 31 -29 24 -16 37 41 43 31 3 61 10 67 16 6 6 16 6 27 -1 29 -18
52 -3 44 29 -9 39 -13 43 -34 43 -24 0 -36 18 -22 32 8 8 15 8 25 -1 12 -9 16
-8 21 5 4 11 14 14 34 9 32 -7 46 5 56 48 10 41 44 76 67 70 22 -6 52 28 56
62 6 54 17 87 34 99 10 7 16 16 12 20 -4 4 5 2 20 -3 16 -6 29 -11 31 -11 1 0
2 10 3 21 3 29 10 34 28 19 14 -11 17 -10 22 8 6 23 18 28 28 12 9 -15 34 0
28 17 -4 9 -2 14 3 10 27 -16 57 54 55 131 -1 40 20 42 37 3 10 -23 21 -30 50
-34 42 -5 60 5 45 25 -12 16 -16 81 -8 120 8 34 28 36 105 8 35 -13 56 -16 60
-10 4 6 14 8 23 4 14 -5 17 0 17 25 0 29 2 31 39 31 22 0 44 -6 51 -15 7 -8
18 -15 26 -15 18 0 35 35 28 55 -7 18 9 36 77 82 40 26 53 30 93 26 34 -4 47
-2 51 9 5 11 24 15 77 16 39 1 72 3 74 5 9 9 112 -11 135 -26z m499 -266 c0
-6 -4 -13 -10 -16 -5 -3 -10 1 -10 9 0 9 5 16 10 16 6 0 10 -4 10 -9z m-2530
-1330 c6 -12 7 -29 1 -43 -4 -13 -12 -45 -16 -73 -4 -27 -13 -62 -21 -77 -21
-40 -57 -342 -49 -408 10 -78 14 -131 19 -245 4 -92 11 -128 53 -270 27 -90
65 -188 113 -290 26 -55 57 -126 69 -157 23 -65 75 -163 102 -193 10 -11 23
-42 30 -70 15 -62 94 -232 122 -263 l21 -23 -39 16 c-21 9 -50 14 -64 12 -14
-3 -59 4 -101 15 -170 45 -304 59 -343 34 -25 -16 -118 -6 -166 18 -14 7 -42
16 -62 20 -57 10 -142 116 -109 136 8 5 3 25 -14 65 -14 31 -26 68 -26 81 0
15 -19 44 -50 76 -36 39 -54 68 -66 108 -13 46 -24 62 -65 93 -27 21 -49 43
-49 48 0 5 16 9 35 9 32 0 35 2 35 30 0 28 17 53 53 75 12 8 14 19 8 50 -3 22
-2 57 3 78 8 27 7 43 -2 57 -17 28 -15 75 7 156 11 38 25 101 31 140 6 38 14
78 19 89 23 54 31 77 31 92 0 23 50 133 77 170 13 17 23 35 23 39 0 4 6 15 14
23 8 9 17 29 20 44 2 15 25 53 50 85 25 32 46 64 46 70 0 7 8 16 18 19 22 9
34 22 52 58 17 37 42 58 98 87 23 12 42 25 42 30 0 16 40 7 50 -11z m4690
-916 c0 -30 -4 -55 -9 -55 -11 0 -18 43 -12 83 6 48 21 29 21 -28z m10 -916
c0 -6 -4 -7 -10 -4 -5 3 -10 11 -10 16 0 6 5 7 10 4 6 -3 10 -11 10 -16z
m-490 -163 c-4 -17 -13 -43 -20 -58 -11 -23 -15 -25 -32 -15 -25 16 -15 63 21
97 30 29 41 21 31 -24z m-3767 -252 c11 -4 13 -14 7 -42 -14 -64 -11 -120 7
-127 17 -6 67 -11 438 -46 312 -28 422 -46 404 -63 -2 -3 -78 4 -168 14 -90
10 -310 29 -490 41 -188 13 -329 28 -333 34 -12 17 -9 83 6 119 23 55 83 88
129 70z m3055 -99 c3 -27 -64 -221 -74 -215 -5 3 -7 10 -6 15 27 76 8 108 -57
100 l-46 -5 46 15 c37 12 48 21 54 42 14 59 77 95 83 48z m-250 -112 c-10 -2
-26 -2 -35 0 -10 3 -2 5 17 5 19 0 27 -2 18 -5z m-75 -10 c-7 -2 -19 -2 -25 0
-7 3 -2 5 12 5 14 0 19 -2 13 -5z m-1926 -9 c-3 -3 -12 -4 -19 -1 -8 3 -5 6 6
6 11 1 17 -2 13 -5z m1600 -30 c-3 -3 -12 -4 -19 -1 -8 3 -5 6 6 6 11 1 17 -2
13 -5z m-77 -71 c-8 -3 -18 -10 -21 -15 -7 -10 -148 -17 -154 -8 -2 4 1 7 8 8
7 1 28 5 47 10 37 11 145 14 120 5z m310 -13 c50 -50 -3 -292 -85 -383 -44
-50 -92 -60 -280 -61 -169 -1 -356 22 -371 45 -3 5 -15 9 -27 9 -18 0 -19 2
-7 10 11 7 6 9 -20 8 -21 -2 -34 1 -33 8 1 6 -6 11 -15 11 -40 0 -53 4 -47 13
3 5 0 7 -8 4 -14 -5 -93 73 -83 83 3 3 12 -2 21 -11 21 -21 31 -21 14 1 -13
15 -12 15 17 0 17 -9 35 -13 39 -9 4 4 4 -4 1 -18 -5 -16 -4 -20 2 -12 10 14
9 15 210 -50 52 -16 105 -30 118 -31 14 -1 29 -8 33 -16 7 -11 13 -9 30 8 26
26 28 61 3 61 -22 0 -102 38 -102 48 0 4 5 14 10 22 9 13 11 13 20 0 8 -11 9
-9 5 11 -6 22 -2 28 25 39 17 7 36 20 43 29 7 9 28 25 47 35 19 11 46 30 60
43 19 17 37 23 72 23 35 0 54 6 76 25 17 14 33 25 37 25 4 0 21 7 39 15 26 12
81 27 129 34 4 1 16 -8 27 -19z m-2317 -40 c-3 -11 -7 -20 -9 -20 -2 0 -4 9
-4 20 0 11 4 20 9 20 5 0 7 -9 4 -20z m1906 -61 c-9 -17 -177 -75 -187 -65 -3
4 4 16 16 29 12 13 22 29 22 35 0 7 6 12 13 12 8 0 7 3 -3 10 -20 13 99 18
127 5 16 -7 19 -14 12 -26z m-1782 11 c22 0 33 -5 33 -15 0 -17 30 -35 59 -35
12 0 21 -4 21 -9 0 -11 47 -29 85 -33 24 -2 30 -7 28 -25 -2 -15 3 -23 12 -23
8 0 15 -4 15 -10 0 -5 9 -10 20 -10 14 0 19 -6 17 -21 -1 -17 6 -24 32 -33 18
-7 39 -20 46 -29 7 -9 24 -17 39 -17 28 0 33 -9 15 -27 -8 -8 -8 -13 0 -17 6
-4 11 0 11 8 0 17 9 20 34 10 30 -12 18 -34 -19 -34 -39 0 -40 -2 -22 -30 10
-17 9 -22 -3 -30 -11 -8 -17 -4 -24 15 -13 32 -32 26 -29 -9 1 -14 -2 -26 -8
-26 -5 0 -9 5 -9 10 0 15 -37 12 -54 -5 -19 -19 -93 -20 -143 -1 -21 8 -46 17
-57 20 -17 6 -17 8 -1 32 9 14 15 28 12 30 -8 8 -49 -35 -42 -45 3 -6 -1 -11
-9 -11 -9 0 -16 4 -16 10 0 5 -7 7 -15 3 -27 -10 -102 82 -121 146 -8 31 -20
64 -25 73 -5 10 -9 31 -9 48 0 26 4 30 30 32 52 2 55 3 62 13 4 5 3 12 -1 15
-5 3 -12 16 -16 30 -6 20 -5 23 6 13 7 -7 28 -13 46 -13z m491 -16 c12 -4 22
-13 22 -20 0 -8 -2 -14 -4 -14 -9 0 -76 31 -76 35 0 7 30 6 58 -1z m-113 -58
c24 -10 35 -22 35 -35 0 -12 -6 -21 -12 -21 -21 1 -48 26 -48 44 0 13 -5 16
-20 11 -11 -4 -20 -2 -20 4 0 15 24 14 65 -3z m-87 -17 c-2 -6 -8 -10 -13 -10
-5 0 -11 4 -13 10 -2 6 4 11 13 11 9 0 15 -5 13 -11z m912 -91 c10 -18 24 -38
29 -45 6 -7 11 -16 11 -20 0 -5 14 -14 30 -21 33 -15 41 -37 10 -29 -20 5 -26
-8 -12 -29 11 -18 50 -35 54 -24 6 17 79 -100 85 -136 5 -31 2 -40 -18 -55
-13 -10 -29 -19 -36 -19 -17 0 -85 -47 -104 -72 -16 -20 -16 -20 -27 11 -21
59 -58 77 -94 44 -17 -15 -19 -15 -38 2 -19 18 -24 18 -83 3 -34 -8 -69 -18
-77 -21 -22 -9 -49 33 -43 66 3 15 32 55 65 90 32 34 68 80 80 102 11 22 34
53 52 69 17 16 31 32 31 36 0 11 50 80 58 80 4 0 16 -15 27 -32z m-191 -62
c-2 -2 -17 -6 -34 -10 -22 -5 -26 -4 -15 4 14 9 59 15 49 6z m-79 -36 c-20
-13 -60 -13 -60 0 0 6 17 10 38 10 27 0 33 -3 22 -10z m-30 -20 c33 -7 25 -14
-12 -11 -10 1 -18 -3 -18 -9 0 -7 -6 -10 -14 -7 -8 3 -16 2 -18 -4 -2 -5 -21
-12 -43 -14 -32 -4 -35 -3 -15 4 24 9 24 9 3 10 -13 1 -23 5 -23 10 0 15 21
25 29 14 3 -5 14 -12 24 -16 14 -5 16 -3 8 12 -13 23 -3 34 24 26 11 -4 36
-10 55 -15z m-317 -17 c-7 -2 -19 -2 -25 0 -7 3 -2 5 12 5 14 0 19 -2 13 -5z
m-53 -7 c0 -9 -30 -14 -35 -6 -4 6 3 10 14 10 12 0 21 -2 21 -4z m207 -10 c-3
-8 -1 -17 6 -19 18 -6 -58 -20 -80 -14 -10 3 -5 5 14 6 21 1 36 8 43 21 12 23
25 27 17 6z m-154 -3 c-7 -2 -21 -2 -30 0 -10 3 -4 5 12 5 17 0 24 -2 18 -5z
m-108 -23 c-3 -5 -10 -10 -16 -10 -5 0 -9 5 -9 10 0 6 7 10 16 10 8 0 12 -4 9
-10z m155 -20 c-8 -5 -33 -9 -55 -8 l-40 1 45 7 c25 4 50 8 55 8 6 1 3 -3 -5
-8z m-417 -272 c-13 -6 -23 -17 -23 -25 0 -7 -7 -13 -15 -13 -19 0 -19 6 3 29
9 11 26 19 37 19 18 1 18 0 -2 -10z m-1147 -13 c-22 -16 -76 -20 -76 -6 0 13
19 19 60 20 33 0 34 -1 16 -14z m1084 -6 c0 -11 -4 -17 -10 -14 -5 3 -10 13
-10 21 0 8 5 14 10 14 6 0 10 -9 10 -21z m1374 -19 c4 -21 11 -30 26 -30 28 0
26 -37 -2 -61 -28 -22 -38 -24 -38 -5 0 8 -5 27 -12 43 -13 31 -18 64 -11 76
10 17 31 5 37 -23z m-94 -42 c0 -22 -13 -23 -30 -3 -9 10 -9 15 -1 15 6 0 11
8 11 18 0 14 2 15 10 2 5 -8 10 -23 10 -32z m-2359 12 c24 0 5 -23 -33 -40
-60 -27 -90 -26 -86 2 2 16 14 26 43 34 22 7 46 11 53 8 8 -2 18 -4 23 -4z
m1084 -10 c-3 -5 -13 -10 -21 -10 -8 0 -14 5 -14 10 0 6 9 10 21 10 11 0 17
-4 14 -10z m2565 -704 c0 -9 -8 -12 -25 -8 -14 2 -25 8 -25 13 0 5 11 9 25 9
14 0 25 -6 25 -14z m-60 -24 c0 -13 -12 -22 -22 -16 -10 6 -1 24 13 24 5 0 9
-4 9 -8z m-107 -49 c2 -5 1 -19 -4 -33 -4 -14 -7 -20 -8 -14 -1 6 -11 16 -23
22 -13 6 -17 11 -10 11 7 1 10 6 7 11 -3 6 3 10 14 10 11 0 22 -3 24 -7z
m-2816 -9 c-3 -3 -12 -4 -19 -1 -8 3 -5 6 6 6 11 1 17 -2 13 -5z m1936 -93 c9
-21 16 -47 14 -59 -4 -30 -28 -54 -49 -49 -11 3 -18 0 -18 -10 0 -8 -6 -13
-12 -10 -7 2 -12 16 -10 31 2 14 -1 34 -7 43 -7 13 -2 27 21 55 16 21 33 38
36 38 4 0 15 -18 25 -39z m1225 -588 c134 -134 234 -240 323 -339 10 -12 19
-25 19 -29 0 -4 11 -16 25 -27 27 -21 65 -87 65 -113 0 -8 5 -15 10 -15 6 0
10 -7 10 -16 0 -8 -4 -13 -9 -10 -5 4 -11 0 -14 -6 -6 -21 4 -48 19 -48 8 0
14 -4 14 -10 0 -16 -25 -11 -53 10 -14 11 -27 20 -30 20 -2 0 -5 -28 -6 -62
-3 -96 -27 -137 -60 -105 -11 10 -14 10 -18 0 -3 -7 -21 -13 -40 -13 -35 0
-35 1 -19 19 12 14 14 21 6 26 -21 13 -33 -13 -36 -77 -2 -35 -3 -66 -4 -70 0
-15 -20 -8 -20 7 0 8 -4 15 -10 15 -12 0 -12 0 0 -37 8 -23 7 -36 -5 -59 -15
-30 -21 -79 -7 -71 7 5 9 -107 2 -128 -5 -16 -8 -29 -9 -42 -2 -26 -19 -11
-56 48 -22 35 -42 58 -50 56 -15 -6 -36 58 -40 120 -2 24 -12 54 -24 69 -12
15 -21 37 -21 49 0 13 -6 25 -14 28 -14 6 -43 79 -55 142 -10 48 -39 152 -51
180 -5 11 -9 35 -9 54 0 19 -6 40 -14 48 -10 11 -11 29 -5 85 5 39 6 78 3 86
-3 7 0 22 5 33 8 14 6 32 -6 68 -16 44 -16 55 -3 122 8 41 13 85 12 99 -3 27
3 50 12 50 3 0 77 -71 163 -157z m-3072 -448 c-4 -19 -18 -57 -31 -84 -26 -50
-32 -76 -16 -67 5 4 7 -4 3 -16 -3 -13 -11 -26 -18 -31 -7 -4 -11 -14 -8 -22
4 -8 1 -15 -6 -15 -8 0 -10 -9 -6 -24 3 -14 2 -27 -3 -31 -5 -3 -12 3 -14 12
-3 10 -5 0 -5 -22 0 -22 -7 -53 -16 -70 -9 -16 -16 -36 -16 -42 0 -7 -5 -13
-11 -13 -6 0 -9 7 -5 15 3 9 0 15 -10 15 -24 0 -12 43 61 225 39 98 90 205 98
205 5 0 6 -16 3 -35z m3609 -203 c5 -13 3 -14 -6 -5 -6 6 -18 9 -25 6 -8 -3
-14 1 -14 10 0 20 36 11 45 -11z m15 -60 c0 -13 -12 -22 -22 -16 -10 6 -1 24
13 24 5 0 9 -4 9 -8z m-3833 -244 c-3 -8 -6 -5 -6 6 -1 11 2 17 5 13 3 -3 4
-12 1 -19z m3499 -203 c9 -8 12 -20 8 -26 -5 -9 -11 -6 -21 6 -23 33 -14 47
13 20z m-36 -125 c0 -5 -4 -10 -10 -10 -5 0 -10 5 -10 10 0 6 5 10 10 10 6 0
10 -4 10 -10z m1100 -204 c0 -3 -4 -8 -10 -11 -5 -3 -10 -1 -10 4 0 6 5 11 10
11 6 0 10 -2 10 -4z"/>
<!-- <path  d="M3360 8852 c0 -5 -11 -15 -25 -22 -38 -20 -30 -54 13 -58 38 -4 45
19 10 36 -18 8 -19 11 -5 11 10 1 17 9 17 21 0 11 -2 20 -5 20 -3 0 -5 -4 -5
-8z"/>
<path d="M3276 8841 c-4 -7 -5 -15 -2 -18 9 -9 19 4 14 18 -4 11 -6 11 -12 0z"/>
<path d="M4451 8132 c-18 -35 -21 -70 -7 -81 17 -14 43 14 52 56 5 25 2 31
-15 36 -14 3 -24 -1 -30 -11z"/>
<path d="M6040 6380 c0 -5 7 -10 15 -10 8 0 15 5 15 10 0 6 -7 10 -15 10 -8 0
-15 -4 -15 -10z"/>
<path d="M3352 6104 c-11 -12 -9 -14 8 -14 11 0 20 4 20 9 0 17 -15 19 -28 5z"/>
<path d="M2545 5906 c-12 -8 -16 -19 -12 -30 8 -20 26 -17 41 7 16 24 -5 41
-29 23z"/>
<path d="M2604 5886 c-8 -20 -1 -29 20 -24 13 3 13 6 1 22 -13 17 -15 18 -21
2z"/> -->
<!-- <path  d="M2677 5883 c-4 -3 -7 -15 -7 -25 0 -10 -7 -18 -15 -18 -8 0 -15 -6
-15 -14 0 -18 62 -34 68 -17 6 17 32 -14 32 -38 0 -24 15 -28 24 -6 3 8 1 15
-5 15 -6 0 -7 5 -4 10 11 19 72 6 95 -21 10 -11 164 -57 177 -52 18 7 17 39
-2 47 -8 3 -14 11 -13 17 4 18 -62 30 -69 13 -7 -19 -20 -18 -51 5 -52 36
-103 61 -126 61 -13 0 -26 7 -30 15 -5 15 -47 21 -59 8z"/>
<path d="M2827 5873 c-9 -9 41 -33 69 -33 13 0 24 5 24 10 0 6 -9 10 -20 10
-11 0 -20 5 -20 10 0 11 -43 14 -53 3z"/>
<path d="M3815 5870 c-3 -5 -4 -10 -1 -10 2 0 12 -3 20 -6 12 -5 15 -2 10 10
-7 18 -20 21 -29 6z"/>
<path d="M3600 5776 c0 -22 3 -27 11 -19 8 8 8 16 0 30 -9 16 -10 14 -11 -11z"/>
<path d="M3838 5782 c-16 -2 -28 -8 -28 -13 0 -5 -11 -9 -25 -9 -34 0 -33 -31
2 -47 36 -17 82 -16 89 1 3 7 2 26 -3 42 -7 24 -13 28 -35 26z"/>
<path d="M3910 5765 c-6 -8 -9 -19 -5 -25 7 -11 34 15 35 33 0 12 -17 8 -30
-8z"/> -->
<!-- <path d="M2893 5703 c9 -2 17 -11 17 -19 0 -16 16 -19 25 -3 9 14 4 18 -31 23
-16 2 -21 1 -11 -1z"/>
<path d="M2780 5690 c0 -5 9 -10 20 -10 11 0 20 5 20 10 0 6 -9 10 -20 10 -11
0 -20 -4 -20 -10z"/>
<path d="M3097 5689 c8 -8 16 -8 30 0 16 9 14 10 -11 11 -22 0 -27 -3 -19 -11z"/>
<path d="M3227 5679 c-12 -13 -15 -27 -11 -44 8 -31 18 -38 44 -30 27 9 26 25
-1 18 -19 -5 -21 -3 -16 20 4 14 10 32 13 41 8 21 -7 19 -29 -5z"/>
<path d="M2320 5666 c0 -9 5 -16 10 -16 6 0 10 4 10 9 0 6 -4 13 -10 16 -5 3
-10 -1 -10 -9z"/>
<path d="M3645 5670 c-4 -6 -3 -16 3 -22 6 -6 12 -6 17 2 4 6 3 16 -3 22 -6 6
-12 6 -17 -2z"/>
<path d="M3595 5661 c-3 -5 -1 -12 5 -16 5 -3 10 1 10 9 0 18 -6 21 -15 7z"/>
<path d="M2877 5644 c-13 -13 -7 -24 14 -24 11 0 19 5 17 12 -5 14 -22 21 -31
12z"/> -->
<!-- <path d="M2935 5630 c-3 -5 1 -10 9 -10 12 0 16 -10 16 -40 0 -29 4 -40 15
-40 11 0 15 11 15 36 0 47 -37 84 -55 54z"/>
<path d="M2300 5479 c0 -47 19 -59 91 -56 35 2 70 6 77 10 23 15 12 27 -27 27
-25 0 -41 5 -45 15 -3 9 -19 15 -41 15 -19 0 -35 5 -35 10 0 6 -4 10 -10 10
-5 0 -10 -14 -10 -31z"/>
<path d="M2845 5450 c3 -5 13 -10 21 -10 8 0 14 5 14 10 0 6 -9 10 -21 10 -11
0 -17 -4 -14 -10z"/>
<path d="M4248 4953 c7 -3 16 -2 19 1 4 3 -2 6 -13 5 -11 0 -14 -3 -6 -6z"/>
<path d="M3908 4413 c6 -2 18 -2 25 0 6 3 1 5 -13 5 -14 0 -19 -2 -12 -5z"/>
<path d="M2195 4650 c3 -5 8 -10 11 -10 2 0 4 5 4 10 0 6 -5 10 -11 10 -5 0
-7 -4 -4 -10z"/> -->
<!-- <path d="M2645 4460 c3 -5 8 -10 11 -10 2 0 4 5 4 10 0 6 -5 10 -11 10 -5 0
-7 -4 -4 -10z"/>
<path d="M2280 4006 c0 -10 9 -16 21 -16 24 0 21 23 -4 28 -10 2 -17 -3 -17
-12z"/>
<path d="M2160 3864 c0 -8 5 -12 10 -9 6 3 10 10 10 16 0 5 -4 9 -10 9 -5 0
-10 -7 -10 -16z"/>
<path d="M2331 3826 c-8 -10 -9 -16 -1 -21 6 -4 9 -12 8 -18 -2 -7 2 -14 7
-17 6 -3 11 12 13 33 3 38 -7 47 -27 23z"/>
<path d="M4824 3762 c-16 -10 -26 -72 -12 -72 16 0 37 32 38 58 0 23 -7 27
-26 14z"/>
<path d="M4931 3728 c-1 -16 -2 -31 -3 -35 -2 -5 7 -9 20 -11 12 -2 22 1 22 7
0 6 -4 11 -8 11 -5 0 -13 12 -19 28 l-11 27 -1 -27z"/> -->
<!-- <path d="M4589 3608 c-11 -44 -8 -54 23 -68 18 -7 36 -15 41 -18 4 -2 7 1 7 6
0 9 -69 87 -71 80z"/>
<path d="M2231 3587 c-6 -8 -8 -17 -4 -20 7 -8 33 11 33 24 0 13 -16 11 -29
-4z"/>
<path d="M4750 3583 c0 -5 11 -13 25 -20 27 -12 33 -5 13 15 -13 13 -38 16
-38 5z"/> -->
<!-- <path d="M4675 3530 c-4 -6 0 -23 8 -38 17 -36 12 -52 -19 -52 -30 0 -32 -26
-3 -33 12 -3 31 -2 42 2 15 6 25 3 34 -8 11 -14 12 -14 13 5 0 11 -7 29 -15
40 -18 24 -19 34 -2 34 16 0 55 -40 71 -71 16 -32 40 -38 31 -8 -4 13 -12 30
-18 38 -6 7 -11 23 -12 34 0 15 -12 25 -47 37 -26 9 -51 19 -55 23 -9 10 -21
9 -28 -3z"/> -->

<path fill="red" d="M1815 2468 c-27 -17 -52 -33 -55 -37 -3 -4 -29 -15 -58 -24 -41 -13
-59 -14 -74 -6 -20 11 -98 6 -133 -7 -22 -9 -18 -24 5 -24 24 0 26 -22 4 -55
-9 -13 -13 -29 -9 -35 14 -22 -7 -69 -39 -90 -43 -26 -54 -25 -66 5 -9 23 -30
35 -30 17 0 -4 -21 -14 -47 -21 -72 -21 -136 -69 -213 -160 -25 -29 -62 -70
-82 -91 -21 -21 -38 -41 -38 -45 0 -4 -10 -21 -22 -38 -21 -29 -38 -59 -74
-126 -7 -13 -16 -27 -21 -30 -11 -8 -32 -42 -39 -63 -4 -10 -10 -18 -15 -18
-5 0 -9 -7 -9 -16 0 -9 -9 -27 -20 -41 -11 -14 -20 -31 -20 -38 0 -6 -9 -20
-20 -30 -11 -10 -20 -22 -20 -26 0 -13 -47 -79 -70 -99 -11 -10 -20 -22 -18
-26 2 -9 -80 -94 -91 -94 -8 0 -41 -38 -41 -48 0 -17 -130 -142 -148 -142 -11
0 -22 -8 -25 -19 -2 -11 -21 -24 -43 -31 -22 -7 -43 -19 -49 -25 -5 -7 -41
-20 -80 -30 -38 -9 -89 -22 -112 -28 l-43 -10 0 -459 0 -458 265 0 c170 0 265
4 265 10 0 6 -5 10 -11 10 -7 0 -5 10 5 25 9 13 16 31 16 40 0 8 5 15 10 15 6
0 10 11 10 25 0 16 -6 25 -15 25 -8 0 -15 7 -15 15 0 10 10 15 34 15 27 0 36
5 42 23 4 12 15 28 25 34 10 8 15 20 12 33 -3 13 2 26 16 37 13 11 30 48 42
93 12 41 27 82 35 91 8 8 14 21 14 27 0 7 5 11 12 10 11 -3 53 101 60 146 2
12 10 21 18 21 8 0 16 9 18 20 7 46 36 129 51 144 21 22 54 109 54 143 0 17 5
28 13 28 8 0 17 12 20 28 8 28 39 90 55 107 5 5 9 19 9 32 0 18 6 23 25 23 14
0 25 4 25 9 0 18 52 71 69 71 18 0 59 40 103 100 14 19 38 48 53 64 15 16 41
54 58 85 17 31 41 74 54 96 12 22 42 78 65 125 24 47 46 87 49 90 3 3 11 19
16 35 6 17 14 38 18 47 7 17 5 17 -21 3 -16 -8 -34 -15 -41 -15 -15 0 -33 32
-33 58 0 20 39 62 57 62 6 0 18 12 28 26 17 26 33 28 78 9 10 -4 17 -3 17 3 0
6 16 38 35 71 38 65 42 81 21 81 -7 0 -16 -13 -19 -29 -6 -30 -37 -52 -37 -26
0 20 22 67 42 89 10 11 18 23 18 28 0 14 -30 9 -36 -7 -6 -15 -34 -21 -34 -7
0 4 8 18 17 32 16 22 16 23 -1 17 -10 -4 -15 -3 -11 3 10 16 37 12 51 -7 12
-17 13 -17 14 3 0 13 20 38 51 65 76 65 89 78 89 89 0 15 -10 12 -65 -22z"/>
<!-- <path d="M920 1979 c0 -5 5 -7 10 -4 6 3 10 8 10 11 0 2 -4 4 -10 4 -5 0 -10
-5 -10 -11z"/>
<path d="M673 1929 c14 -8 22 -8 30 0 8 8 3 11 -18 11 -26 -1 -28 -2 -12 -11z"/>
<path d="M270 1525 c-7 -8 -16 -13 -20 -10 -4 2 -15 -4 -25 -15 -10 -11 -29
-20 -42 -20 -14 0 -23 -6 -23 -15 0 -8 -9 -15 -20 -15 -11 0 -20 -5 -20 -10 0
-6 -12 -15 -26 -20 -14 -6 -41 -22 -60 -36 -33 -26 -34 -28 -34 -100 0 -72 1
-73 18 -56 11 9 32 26 47 37 16 11 33 25 39 30 43 40 106 85 120 85 9 0 16 3
16 8 0 4 18 16 40 26 22 11 40 25 40 33 0 7 6 13 14 13 15 0 29 27 21 40 -4 7
-62 40 -70 40 -2 0 -8 -7 -15 -15z"/>
<path d="M6110 1333 c0 -4 5 -15 10 -23 8 -13 10 -13 10 2 0 9 -4 20 -10 23
-5 3 -10 3 -10 -2z"/>
<path d="M6150 1150 c0 -5 5 -10 11 -10 5 0 7 5 4 10 -3 6 -8 10 -11 10 -2 0
-4 -4 -4 -10z"/>
<path d="M6172 1121 c-9 -5 -7 -12 8 -26 19 -18 20 -18 20 3 0 25 -11 34 -28
23z"/> -->
<!-- <path d="M6288 973 c7 -3 16 -2 19 1 4 3 -2 6 -13 5 -11 0 -14 -3 -6 -6z"/> -->
</g>
</svg>
