<?xml version="1.0" standalone="no"?>
<!DOCTYPE svg PUBLIC "-//W3C//DTD SVG 20010904//EN"
 "http://www.w3.org/TR/2001/REC-SVG-20010904/DTD/svg10.dtd">
<svg version="1.0" xmlns="http://www.w3.org/2000/svg"
 width="400.000000pt" height="302.000000pt" viewBox="0 0 400.000000 302.000000"
 preserveAspectRatio="xMidYMid meet">

<g transform="translate(0.000000,302.000000) scale(0.100000,-0.100000)"
fill="#000000" stroke="none">
<path fill="red" d="M578 2899 c-21 -11 -38 -24 -38 -30 0 -8 -6 -7 -16 2 -14 11 -19 10
-38 -11 -12 -14 -31 -30 -42 -36 -10 -6 -21 -24 -22 -40 -2 -16 -11 -37 -20
-47 -13 -15 -14 -21 -4 -35 16 -22 34 -64 29 -68 -2 -2 -27 -8 -55 -14 -77
-14 -128 -44 -141 -81 -17 -49 -14 -174 4 -189 23 -19 40 -6 79 64 35 62 76
106 100 106 7 0 11 -38 11 -118 0 -106 2 -122 26 -167 35 -68 95 -105 184
-113 86 -6 130 13 172 76 44 66 57 114 57 214 1 49 4 88 8 88 14 0 61 -66 94
-132 38 -74 71 -101 99 -78 34 28 11 153 -45 239 -34 54 -83 81 -146 81 -42 0
-56 24 -27 45 12 8 23 31 27 55 5 33 2 47 -19 81 -15 23 -40 46 -59 54 -19 8
-36 21 -39 30 -4 9 -19 15 -41 15 -21 0 -36 6 -40 15 -7 20 -52 17 -98 -6z
m88 -10 c12 -14 25 -18 41 -14 17 4 30 -1 47 -20 13 -14 30 -25 38 -25 19 0
38 -20 38 -41 0 -9 10 -23 22 -31 19 -13 21 -18 10 -30 -7 -9 -10 -22 -7 -30
7 -18 -11 -34 -47 -43 -21 -5 -30 -2 -39 14 -10 15 -16 17 -27 9 -10 -9 -19
-9 -34 1 -15 9 -23 10 -31 2 -15 -15 -54 -14 -60 2 -3 9 -8 9 -21 -2 -14 -12
-21 -12 -37 -3 -16 10 -21 10 -25 -3 -7 -18 -30 -20 -38 -2 -3 8 -8 7 -16 -5
-16 -25 -39 -22 -50 6 -5 13 -14 27 -20 31 -8 5 -7 12 4 23 8 10 16 31 18 47
2 22 9 31 26 33 14 2 22 10 22 23 0 23 27 36 43 20 16 -16 25 -14 32 10 4 12
14 19 23 17 9 -2 25 5 34 14 23 23 31 23 54 -3z m-58 -281 c27 -27 -2 -78 -45
-78 -29 0 -48 41 -33 71 12 22 59 26 78 7z m132 -8 c24 -24 25 -43 4 -64 -18
-19 -55 -21 -72 -4 -17 17 -15 54 4 72 21 21 40 20 64 -4z m-210 -366 c0 -8
-4 -14 -10 -14 -5 0 -10 9 -10 21 0 11 5 17 10 14 6 -3 10 -13 10 -21z m226
-22 c-8 -9 -19 -13 -22 -9 -10 9 16 38 28 31 6 -4 4 -13 -6 -22z"/>
<path d="M545 2589 c-5 -14 -1 -27 10 -38 15 -15 17 -15 31 4 19 26 14 49 -13
53 -15 2 -23 -4 -28 -19z"/>
<path d="M685 2589 c-4 -5 -4 -21 -1 -35 7 -27 40 -33 50 -8 13 33 -31 72 -49
43z"/>
<path fill="yellow" d="M1504 2905 c-17 -8 -36 -21 -44 -29 -9 -12 -16 -13 -26 -5 -10 8 -19
5 -37 -15 -13 -14 -29 -26 -35 -26 -15 0 -32 -33 -32 -64 0 -14 -4 -28 -10
-31 -15 -9 -12 -45 5 -51 8 -4 15 -17 15 -30 0 -20 -7 -24 -61 -35 -110 -22
-147 -66 -148 -179 -1 -58 18 -100 44 -100 8 0 28 27 46 61 37 69 80 119 102
119 13 0 15 -17 14 -102 -3 -168 40 -252 147 -283 180 -54 281 37 295 267 l6
103 31 -33 c17 -18 45 -63 64 -101 33 -70 64 -97 96 -84 28 11 16 135 -21 207
-38 74 -80 108 -146 114 -58 5 -70 21 -39 52 11 11 18 25 15 30 -3 5 0 19 6
33 9 20 7 30 -18 65 -15 22 -41 46 -58 53 -16 7 -38 21 -48 31 -10 10 -31 18
-46 18 -16 0 -31 7 -35 15 -7 18 -40 18 -82 0z m75 -16 c13 -14 26 -19 40 -14
15 4 27 -1 43 -18 13 -13 35 -27 50 -30 16 -4 30 -18 37 -34 6 -16 16 -36 23
-46 9 -11 9 -20 3 -25 -5 -4 -10 -18 -10 -32 0 -19 -7 -26 -34 -34 -29 -8 -36
-7 -51 11 -12 16 -21 18 -34 11 -11 -6 -22 -6 -31 2 -11 9 -19 8 -37 -4 -20
-14 -23 -14 -40 1 -15 13 -20 14 -34 2 -12 -10 -20 -10 -34 -1 -14 9 -19 8
-24 -3 -6 -17 -36 -21 -36 -5 0 6 -4 10 -10 10 -5 0 -10 -7 -10 -15 0 -8 -9
-15 -20 -15 -13 0 -20 7 -20 20 0 11 -7 23 -15 26 -19 8 -19 28 0 44 8 6 13
22 12 33 -1 14 6 25 21 32 12 5 22 15 22 21 0 6 7 17 16 25 12 10 20 10 35 1
25 -16 26 -16 32 9 4 15 11 20 23 15 11 -4 22 1 31 14 18 25 27 25 52 -1z
m-49 -289 c14 -27 -3 -58 -35 -66 -42 -11 -67 24 -49 70 9 24 71 21 84 -4z
m124 -2 c20 -28 20 -43 0 -62 -20 -21 -70 -21 -78 0 -10 27 -7 52 10 68 22 22
50 20 68 -6z m-214 -358 c0 -11 -4 -20 -10 -20 -5 0 -10 9 -10 20 0 11 5 20
10 20 6 0 10 -9 10 -20z m226 -28 c-8 -9 -19 -13 -22 -9 -10 9 16 38 28 31 6
-4 4 -13 -6 -22z"/>
<path d="M1467 2604 c-11 -11 -8 -52 3 -59 17 -10 41 16 38 39 -3 21 -28 33
-41 20z"/>
<path d="M1595 2589 c-4 -5 -4 -21 -1 -35 7 -27 40 -33 50 -8 13 33 -31 72
-49 43z"/>
<path fill="green" d="M2408 2899 c-21 -11 -38 -24 -38 -30 0 -8 -6 -7 -16 2 -14 11 -19 10
-38 -11 -12 -14 -31 -30 -42 -36 -10 -6 -21 -24 -22 -40 -2 -16 -11 -37 -20
-47 -13 -15 -14 -21 -4 -35 16 -22 34 -64 29 -68 -2 -2 -27 -8 -55 -14 -77
-14 -128 -44 -141 -81 -16 -45 -14 -161 3 -184 19 -27 42 -13 70 43 30 60 87
122 111 122 14 0 16 -6 11 -35 -12 -62 -8 -152 8 -210 29 -97 114 -155 230
-155 71 0 117 33 157 112 26 52 32 76 37 166 l7 104 26 -21 c15 -11 45 -57 69
-101 44 -87 76 -114 105 -90 31 26 12 145 -38 228 -35 59 -89 92 -149 92 -45
0 -69 24 -39 40 12 6 21 20 21 31 0 11 5 29 11 40 14 27 -34 103 -76 120 -16
7 -36 21 -43 31 -7 10 -26 18 -41 18 -16 0 -34 7 -41 15 -16 19 -46 17 -92 -6z
m86 -10 c10 -15 20 -19 35 -14 15 4 27 -1 45 -19 13 -14 30 -26 38 -26 16 0
33 -17 55 -54 24 -42 27 -50 15 -54 -7 -2 -10 -13 -6 -28 5 -19 1 -26 -21 -34
-39 -15 -56 -12 -62 10 -6 23 -14 25 -31 8 -8 -8 -15 -8 -26 1 -12 10 -20 9
-39 -4 -23 -14 -26 -14 -40 0 -14 13 -20 13 -36 3 -16 -10 -23 -10 -32 -1 -10
10 -15 8 -25 -5 -11 -14 -16 -15 -33 -5 -15 10 -20 9 -25 -2 -8 -23 -36 -18
-46 9 -5 13 -14 27 -20 31 -8 5 -7 12 4 23 8 10 16 31 18 47 2 22 9 31 26 33
12 2 22 9 22 16 0 23 29 41 42 28 17 -17 26 -15 33 9 4 12 14 19 23 17 9 -2
25 5 34 14 23 23 34 23 52 -3z m-56 -281 c27 -27 -2 -78 -45 -78 -29 0 -48 41
-33 71 12 22 59 26 78 7z m126 -4 c19 -18 21 -55 4 -72 -7 -7 -25 -12 -40 -12
-22 0 -31 6 -39 26 -19 53 37 96 75 58z m-204 -369 c0 -8 -4 -17 -10 -20 -6
-4 -10 5 -10 20 0 15 4 24 10 20 6 -3 10 -12 10 -20z m228 -12 c-2 -10 -11
-19 -21 -21 -16 -3 -17 -1 -7 17 13 25 33 28 28 4z"/>
<path d="M2375 2590 c-6 -20 9 -50 26 -50 14 0 29 37 23 54 -9 23 -41 20 -49
-4z"/>
<path d="M2511 2586 c-15 -18 2 -56 25 -56 19 0 30 29 17 48 -14 22 -28 25
-42 8z"/>
<path fill="blue" d="M3334 2905 c-17 -8 -36 -21 -44 -29 -9 -12 -16 -13 -26 -5 -10 8 -19
5 -39 -15 -14 -14 -30 -26 -36 -26 -10 0 -20 -21 -40 -89 -12 -39 -11 -45 4
-56 9 -7 17 -22 17 -33 0 -18 -10 -23 -61 -33 -110 -22 -147 -66 -148 -179 -1
-58 18 -100 44 -100 8 0 29 28 47 61 35 67 81 119 105 119 12 0 14 -12 8 -73
-11 -118 16 -219 72 -271 56 -52 179 -72 245 -40 73 35 121 143 122 277 0 48
3 87 7 87 15 0 61 -65 95 -132 21 -42 44 -73 59 -80 74 -33 75 107 2 230 -36
59 -89 92 -150 92 -45 0 -60 24 -30 45 12 8 23 31 27 55 5 35 2 47 -24 85 -16
24 -40 47 -53 51 -12 3 -30 15 -40 25 -10 11 -29 19 -43 19 -14 0 -32 7 -40
15 -18 18 -39 18 -80 0z m70 -16 c11 -16 21 -20 41 -15 20 5 31 1 49 -19 13
-14 30 -25 38 -25 19 0 38 -20 38 -41 0 -9 10 -23 22 -31 20 -13 21 -18 9 -32
-7 -8 -11 -22 -8 -30 7 -19 -12 -34 -50 -42 -26 -5 -32 -2 -38 15 -6 18 -9 20
-22 10 -11 -10 -19 -10 -34 -1 -16 10 -24 10 -41 -2 -20 -14 -24 -14 -40 1
-15 13 -20 14 -34 2 -12 -10 -20 -10 -34 -1 -14 9 -19 8 -24 -3 -6 -17 -36
-21 -36 -5 0 6 -4 10 -10 10 -5 0 -10 -7 -10 -15 0 -8 -9 -15 -20 -15 -13 0
-20 7 -20 20 0 11 -7 23 -15 26 -19 8 -19 28 0 44 9 7 14 19 11 27 -8 21 4 43
25 43 10 0 19 6 19 14 0 25 29 41 51 28 25 -16 26 -16 32 9 4 15 11 20 23 15
11 -4 22 1 31 14 18 25 28 25 47 -1z m-51 -284 c20 -19 11 -49 -18 -65 -42
-23 -73 5 -61 55 5 19 13 25 35 25 16 0 36 -7 44 -15z m128 -6 c21 -21 19 -56
-5 -71 -49 -33 -102 35 -60 76 21 21 40 20 65 -5z m-211 -359 c0 -11 -4 -20
-10 -20 -5 0 -10 9 -10 20 0 11 5 20 10 20 6 0 10 -9 10 -20z m226 -28 c-8 -9
-19 -13 -22 -9 -10 9 16 38 28 31 6 -4 4 -13 -6 -22z"/>
<path d="M3297 2604 c-11 -11 -8 -52 3 -59 17 -10 41 16 38 39 -3 21 -28 33
-41 20z"/>
<path d="M3425 2589 c-10 -16 4 -59 19 -59 22 0 34 23 25 48 -9 23 -33 30 -44
11z"/>
<path fill="pink" d="M593 1981 c-18 -10 -39 -23 -46 -29 -7 -6 -22 -9 -34 -6 -14 4 -25
-1 -34 -14 -8 -10 -24 -24 -36 -31 -17 -9 -23 -21 -23 -46 0 -19 -4 -35 -9
-35 -22 0 -21 -40 1 -70 27 -37 19 -45 -53 -55 -100 -14 -139 -65 -139 -183 0
-116 37 -124 95 -20 35 63 81 108 108 108 5 0 6 -23 2 -52 -17 -124 5 -227 59
-282 79 -79 247 -88 304 -17 52 66 88 192 78 273 -5 39 -4 48 8 48 17 0 61
-60 100 -138 28 -56 58 -76 90 -60 29 16 17 114 -26 197 -38 75 -82 111 -138
111 -20 0 -45 7 -56 15 -19 15 -19 15 2 32 13 11 24 35 28 60 5 35 2 48 -20
80 -14 21 -33 42 -42 47 -9 4 -34 20 -54 33 -21 14 -44 23 -52 20 -8 -3 -22 3
-32 14 -21 23 -39 23 -81 0z m77 -20 c8 -16 17 -19 46 -14 29 5 36 3 40 -14 3
-11 19 -23 37 -29 22 -6 33 -16 35 -32 2 -12 12 -28 23 -35 21 -13 26 -37 8
-37 -7 0 -9 -10 -5 -25 6 -23 2 -28 -30 -41 -27 -11 -39 -12 -50 -3 -7 6 -11
16 -8 21 4 6 -5 8 -24 3 -17 -3 -33 -2 -37 4 -4 7 -15 5 -32 -6 -18 -12 -29
-14 -41 -6 -19 11 -77 10 -105 -2 -9 -4 -23 -2 -30 3 -9 8 -16 6 -25 -9 -11
-17 -16 -18 -28 -9 -8 7 -14 19 -14 26 0 8 -4 14 -10 14 -13 0 -13 33 -1 46 5
5 11 23 13 39 2 22 8 30 22 30 10 0 22 10 27 22 11 30 30 39 44 20 15 -21 25
-22 25 -3 0 22 24 38 38 24 9 -9 12 -8 12 4 0 31 54 38 70 9z m-66 -274 c24
-18 17 -45 -17 -70 -25 -19 -29 -20 -43 -5 -9 9 -16 28 -16 43 0 42 40 59 76
32z m146 -17 c14 -26 5 -57 -21 -71 -42 -22 -78 14 -65 67 5 20 13 24 41 24
24 0 37 -6 45 -20z m-220 -356 c0 -8 -4 -14 -10 -14 -5 0 -10 9 -10 21 0 11 5
17 10 14 6 -3 10 -13 10 -21z m226 -22 c-8 -9 -19 -13 -22 -9 -10 9 16 38 28
31 6 -4 4 -13 -6 -22z"/>
<path d="M550 1675 c-14 -16 -4 -55 14 -55 16 0 36 21 36 37 0 21 -36 35 -50
18z"/>
<path d="M687 1663 c-12 -11 -8 -40 7 -52 11 -9 18 -8 30 4 19 20 20 27 4 43
-13 13 -31 16 -41 5z"/>
<path fill="brown" d="M1520 1985 c-7 -8 -21 -15 -32 -15 -10 0 -21 -7 -24 -15 -4 -9 -14
-13 -28 -10 -27 7 -106 -63 -106 -94 0 -12 -7 -32 -15 -45 -14 -21 -13 -24 5
-41 11 -10 20 -26 20 -36 0 -18 -10 -22 -100 -43 -75 -17 -110 -71 -110 -169
0 -114 41 -129 94 -33 33 59 85 116 106 116 5 0 8 -46 7 -102 -4 -199 62 -285
223 -295 91 -6 133 19 180 107 32 61 34 71 35 162 0 67 4 98 12 98 17 0 61
-56 94 -121 31 -62 66 -93 93 -83 22 8 22 109 -1 166 -40 102 -92 148 -166
148 -20 0 -43 7 -52 16 -15 15 -14 18 5 31 11 8 20 25 20 38 0 13 5 27 10 30
21 13 5 48 -46 99 -32 32 -109 76 -132 76 -11 0 -25 7 -32 15 -7 8 -20 15 -30
15 -10 0 -23 -7 -30 -15z m60 -24 c8 -16 17 -19 44 -14 28 4 35 2 41 -16 4
-13 15 -21 27 -21 25 0 58 -27 58 -48 0 -8 7 -20 17 -27 11 -8 14 -18 8 -31
-4 -10 -7 -26 -6 -35 2 -18 -14 -34 -46 -43 -15 -5 -28 -1 -42 13 -12 12 -27
18 -36 15 -8 -4 -21 -1 -29 5 -10 8 -16 8 -26 -4 -13 -16 -42 -20 -54 -8 -10
10 -86 11 -86 1 0 -13 -40 -9 -40 5 0 6 -9 1 -19 -12 -19 -25 -41 -22 -41 6 0
9 -8 22 -17 28 -17 13 -17 14 1 34 10 11 16 26 13 33 -7 20 13 50 29 44 8 -3
14 1 14 9 0 7 7 21 16 30 15 15 18 15 35 -1 18 -16 19 -15 29 10 7 20 15 26
29 21 12 -3 21 0 25 10 8 21 43 19 56 -4z m-53 -288 c14 -20 13 -24 -11 -48
-29 -29 -39 -31 -60 -9 -19 19 -21 55 -4 72 19 19 59 10 75 -15z m132 -5 c11
-30 3 -56 -21 -69 -41 -22 -77 15 -64 67 5 20 13 24 42 24 27 0 37 -5 43 -22z
m-219 -348 c0 -11 -4 -20 -10 -20 -5 0 -10 9 -10 20 0 11 5 20 10 20 6 0 10
-9 10 -20z m226 -28 c-8 -9 -19 -13 -22 -9 -10 9 16 38 28 31 6 -4 4 -13 -6
-22z"/>
<path d="M1471 1680 c-7 -4 -11 -18 -9 -31 5 -35 42 -33 46 2 3 28 -16 43 -37
29z"/>
<path d="M1597 1663 c-12 -11 -8 -40 6 -52 10 -8 18 -7 32 2 14 11 16 17 6 35
-12 22 -31 28 -44 15z"/>
<path fill="orange" d="M2423 1981 c-18 -10 -39 -23 -46 -29 -7 -6 -22 -9 -34 -6 -14 4 -25
-1 -34 -14 -8 -10 -24 -24 -36 -31 -14 -7 -23 -21 -23 -36 0 -13 -8 -37 -17
-55 -17 -28 -17 -32 -2 -43 9 -7 19 -22 23 -34 6 -19 3 -23 -21 -28 -83 -18
-138 -42 -157 -68 -25 -34 -36 -177 -16 -202 24 -29 45 -15 85 57 35 63 81
108 108 108 5 0 5 -24 1 -52 -25 -175 29 -297 148 -333 122 -36 193 -8 247 97
29 58 34 79 39 162 3 70 8 96 18 96 15 0 60 -63 98 -138 28 -56 58 -76 90 -60
43 23 -11 214 -78 277 -17 16 -42 25 -86 30 -68 8 -91 27 -59 49 10 7 19 22
19 33 0 10 5 27 11 37 9 14 5 27 -20 64 -18 26 -41 50 -52 53 -11 4 -32 18
-46 31 -15 14 -36 24 -48 22 -12 -1 -30 5 -39 15 -21 21 -32 21 -73 -2z m74
-19 c8 -14 20 -18 41 -14 23 3 33 -1 41 -17 7 -12 19 -21 28 -21 21 0 53 -29
53 -48 0 -8 7 -20 17 -27 11 -8 14 -18 8 -31 -4 -10 -8 -28 -9 -39 -1 -11 -13
-26 -30 -34 -27 -13 -31 -12 -47 8 -13 16 -24 21 -40 16 -13 -5 -25 -2 -29 6
-6 9 -12 9 -25 -4 -18 -19 -41 -22 -49 -8 -7 10 -72 8 -99 -4 -9 -4 -23 -2
-30 3 -9 8 -16 6 -25 -9 -17 -26 -30 -24 -38 6 -3 14 -10 25 -15 25 -12 0 -11
37 1 45 6 3 10 19 10 36 0 26 9 34 33 30 4 -1 12 10 17 23 13 34 28 41 51 20
16 -14 19 -15 19 -2 0 24 24 40 38 26 9 -9 12 -8 12 4 0 30 49 37 67 10z m-63
-275 c24 -18 17 -45 -17 -70 -24 -18 -29 -19 -41 -7 -49 52 1 119 58 77z m134
-9 c27 -27 0 -88 -38 -88 -31 0 -52 42 -39 78 9 25 56 31 77 10z m-208 -364
c0 -8 -4 -14 -10 -14 -5 0 -10 9 -10 21 0 11 5 17 10 14 6 -3 10 -13 10 -21z
m230 -9 c0 -16 -27 -32 -37 -21 -7 7 16 36 28 36 5 0 9 -7 9 -15z"/>
<path d="M2382 1678 c-17 -17 -15 -48 3 -54 18 -7 45 12 45 32 0 20 -34 36
-48 22z"/>
<path d="M2506 1654 c-9 -22 17 -49 39 -40 10 3 15 15 13 28 -4 29 -42 37 -52
12z"/>
<path fill="Magenta" d="M3350 1985 c-7 -8 -20 -15 -30 -15 -10 0 -23 -6 -30 -14 -6 -8 -18
-12 -26 -9 -7 3 -28 -7 -45 -21 -17 -14 -34 -26 -39 -26 -5 0 -12 -17 -16 -37
-4 -21 -13 -47 -20 -58 -12 -16 -11 -22 5 -40 43 -48 37 -57 -44 -71 -101 -17
-145 -70 -145 -174 0 -117 40 -133 94 -36 33 58 85 116 106 116 4 0 7 -46 6
-102 -2 -167 34 -237 143 -278 90 -35 167 -24 217 32 54 58 92 191 79 275 -5
34 -3 43 9 43 18 0 49 -43 92 -125 34 -66 66 -90 97 -73 50 27 -16 234 -92
285 -20 14 -49 23 -71 23 -20 0 -45 7 -56 15 -19 15 -19 15 2 32 13 11 24 35
28 60 5 35 2 48 -20 80 -14 21 -41 46 -60 56 -19 9 -34 22 -34 27 0 5 -18 13
-40 16 -22 4 -45 13 -51 20 -15 18 -43 18 -59 -1z m60 -24 c8 -16 17 -19 44
-14 27 4 35 2 40 -14 3 -10 21 -23 39 -28 22 -7 33 -17 35 -32 2 -13 13 -29
24 -37 17 -12 19 -18 9 -30 -7 -8 -10 -24 -6 -36 5 -17 0 -23 -31 -36 -36 -15
-39 -15 -55 4 -10 14 -24 19 -37 16 -11 -3 -23 -1 -26 5 -5 7 -15 6 -31 -5
-15 -10 -32 -13 -42 -9 -25 11 -93 13 -93 3 0 -13 -40 -9 -40 5 0 6 -9 1 -19
-12 -19 -25 -41 -22 -41 6 0 9 -8 22 -17 28 -17 13 -17 14 0 33 10 11 15 26
11 36 -8 20 14 49 33 42 7 -3 13 1 13 9 0 7 7 21 16 30 15 15 18 15 36 -1 18
-17 19 -17 25 4 5 21 14 26 39 23 7 -1 14 5 18 14 8 21 43 19 56 -4z m-55
-281 c16 -18 16 -21 2 -44 -23 -34 -57 -43 -74 -20 -42 57 25 116 72 64z m134
-12 c11 -30 3 -56 -21 -69 -41 -22 -77 15 -64 67 5 20 13 24 42 24 27 0 37 -5
43 -22z m-219 -349 c0 -11 -4 -17 -10 -14 -5 3 -10 13 -10 21 0 8 5 14 10 14
6 0 10 -9 10 -21z m234 -8 c6 -10 -22 -37 -29 -29 -8 7 5 38 15 38 5 0 11 -4
14 -9z"/>
<path d="M3294 1676 c-10 -26 1 -51 21 -51 37 0 29 64 -8 65 -4 0 -10 -6 -13
-14z"/>
<path d="M3427 1663 c-12 -11 -8 -40 7 -52 11 -9 18 -8 30 4 19 20 20 27 4 43
-13 13 -31 16 -41 5z"/>
<path fill="aqua" d="M604 1065 c-10 -8 -27 -15 -37 -15 -10 0 -20 -6 -23 -14 -3 -8 -14
-11 -28 -9 -15 3 -29 -2 -37 -14 -8 -10 -23 -23 -34 -29 -11 -6 -22 -26 -26
-45 -3 -19 -12 -44 -19 -56 -12 -19 -12 -24 2 -40 8 -10 19 -28 22 -39 6 -19
2 -22 -41 -29 -74 -10 -133 -42 -149 -81 -20 -48 -19 -168 2 -189 23 -23 34
-15 65 41 37 67 87 124 108 124 16 0 18 -9 13 -97 -3 -83 -1 -107 18 -155 35
-95 106 -138 224 -138 75 0 107 18 149 86 41 64 62 162 52 236 -4 27 -3 48 2
48 18 0 58 -51 93 -118 40 -76 77 -105 105 -82 43 36 -19 233 -88 282 -16 12
-51 23 -78 26 -59 6 -82 26 -52 47 13 9 23 31 27 59 6 37 3 50 -19 82 -15 22
-38 45 -53 53 -15 7 -35 22 -45 32 -10 11 -31 19 -46 19 -16 0 -34 7 -41 15
-16 19 -41 19 -66 0z m68 -24 c9 -15 19 -18 45 -14 29 5 35 2 40 -16 3 -13 13
-21 27 -21 26 0 46 -18 46 -41 0 -9 10 -23 23 -32 19 -13 20 -18 10 -36 -7
-11 -10 -26 -7 -34 6 -17 -12 -33 -48 -42 -21 -5 -30 -2 -39 13 -10 16 -17 18
-32 11 -14 -8 -22 -7 -31 6 -11 15 -13 15 -25 1 -16 -19 -42 -21 -58 -5 -8 8
-17 8 -33 -1 -16 -8 -25 -9 -33 -1 -8 8 -16 6 -29 -6 -17 -15 -20 -15 -28 -3
-8 13 -11 12 -23 -4 -17 -23 -47 -15 -47 13 0 11 -6 21 -12 23 -10 4 -10 10 0
32 6 15 12 38 12 52 0 14 7 27 18 31 9 3 27 18 39 32 20 25 23 25 39 9 17 -16
18 -16 29 5 6 12 17 22 25 22 8 0 21 6 28 13 20 18 50 15 64 -7z m-54 -309 c3
-22 -31 -52 -59 -52 -19 0 -41 44 -32 66 15 41 84 31 91 -14z m128 13 c15 -23
15 -27 0 -50 -36 -55 -105 -10 -78 50 8 17 20 25 37 25 15 0 31 -9 41 -25z
m-216 -350 c0 -8 -4 -17 -10 -20 -6 -4 -10 5 -10 20 0 15 4 24 10 20 6 -3 10
-12 10 -20z m234 -19 c-7 -19 -34 -29 -34 -12 0 16 10 26 26 26 8 0 11 -6 8
-14z"/>
<path d="M544 745 c-9 -23 3 -45 25 -45 20 0 37 32 26 50 -9 15 -45 12 -51 -5z"/>
<path d="M685 739 c-10 -16 4 -59 19 -59 25 0 39 26 26 49 -12 23 -35 28 -45
10z"/>
<path fill="teal" d="M1520 1065 c-7 -8 -21 -15 -32 -15 -10 0 -21 -7 -24 -15 -4 -10 -13
-13 -25 -10 -18 6 -31 -2 -96 -56 -7 -5 -13 -21 -13 -35 0 -13 -7 -35 -16 -48
-14 -22 -14 -26 5 -43 10 -10 21 -27 23 -37 2 -16 -8 -22 -65 -36 -83 -21
-116 -44 -134 -95 -18 -51 -13 -150 10 -172 21 -21 40 -7 72 57 27 54 77 110
97 110 12 0 15 -20 14 -107 -1 -97 2 -114 25 -164 37 -79 92 -111 198 -117 72
-4 78 -2 117 26 66 48 96 121 102 243 3 54 8 99 13 99 13 0 54 -60 88 -128 32
-63 65 -90 95 -79 23 9 21 104 -3 167 -38 100 -96 150 -174 150 -49 0 -77 32
-37 43 14 3 20 14 20 31 0 15 5 35 12 46 10 16 8 26 -18 62 -17 24 -45 50 -61
59 -17 8 -38 23 -48 32 -9 9 -29 17 -44 17 -16 0 -34 7 -41 15 -7 8 -20 15
-30 15 -10 0 -23 -7 -30 -15z m60 -24 c8 -16 17 -19 44 -14 28 4 35 2 41 -16
4 -13 15 -21 27 -21 25 0 58 -27 58 -48 0 -8 7 -20 17 -27 11 -8 14 -18 8 -31
-4 -10 -7 -26 -6 -35 2 -20 -16 -35 -51 -44 -21 -5 -30 -2 -39 13 -10 16 -17
18 -32 11 -12 -7 -23 -7 -32 1 -10 8 -19 8 -34 -2 -17 -10 -25 -10 -42 0 -16
10 -24 10 -35 1 -11 -9 -17 -9 -29 1 -13 11 -18 10 -30 -6 -11 -15 -16 -17
-26 -6 -17 16 -29 15 -29 -3 0 -8 -9 -15 -20 -15 -13 0 -20 7 -20 20 0 11 -7
23 -15 26 -19 8 -19 28 1 45 9 7 13 21 10 35 -6 24 16 50 34 39 5 -3 10 0 10
7 0 8 6 23 14 33 14 19 15 19 35 1 20 -18 21 -18 31 8 7 20 15 26 29 21 12 -3
21 0 25 10 8 21 43 19 56 -4z m-68 -273 c26 -22 28 -45 4 -67 -12 -12 -30 -21
-39 -21 -22 0 -40 36 -33 65 5 20 15 27 47 34 3 0 12 -5 21 -11z m144 -19 c17
-19 17 -23 3 -47 -28 -50 -89 -34 -89 23 0 46 53 61 86 24z m-216 -356 c0 -20
-3 -24 -11 -16 -7 7 -9 19 -6 27 10 24 17 19 17 -11z m234 -17 c-7 -19 -34
-29 -34 -12 0 16 10 26 26 26 8 0 11 -6 8 -14z"/>
<path d="M1467 754 c-4 -4 -7 -18 -7 -31 0 -20 5 -24 23 -21 16 2 22 10 22 28
0 24 -23 39 -38 24z"/>
<path d="M1595 740 c-10 -17 3 -60 19 -60 23 0 41 29 29 48 -13 21 -39 27 -48
12z"/>
<path fill="salmon" d="M2434 1065 c-10 -8 -26 -15 -35 -15 -9 0 -19 -6 -22 -14 -3 -8 -15
-12 -30 -9 -16 3 -29 -1 -38 -14 -8 -10 -23 -23 -34 -29 -11 -6 -22 -26 -26
-45 -3 -19 -12 -44 -19 -56 -12 -19 -12 -24 2 -40 8 -10 19 -28 22 -39 6 -19
2 -22 -41 -29 -80 -11 -132 -39 -148 -79 -21 -49 -20 -170 1 -191 24 -23 35
-15 72 51 34 62 83 114 106 114 10 0 12 -19 8 -94 -5 -104 11 -175 54 -225 54
-64 198 -94 266 -54 44 25 94 101 107 163 6 28 11 82 11 120 0 39 4 70 8 70
17 0 57 -53 92 -118 40 -76 77 -105 105 -82 43 36 -19 233 -88 282 -19 13 -51
23 -84 26 -38 3 -56 10 -63 22 -7 14 -5 19 10 23 14 3 20 14 20 31 0 15 5 34
11 44 9 15 6 26 -16 61 -16 23 -42 49 -59 58 -17 9 -39 24 -49 34 -10 11 -28
19 -41 19 -13 0 -29 7 -36 15 -16 19 -41 19 -66 0z m65 -23 c7 -14 18 -17 40
-14 22 3 32 -1 40 -17 7 -12 19 -21 28 -21 21 0 53 -29 53 -48 0 -8 7 -20 17
-27 11 -8 14 -18 8 -31 -4 -10 -7 -28 -6 -40 1 -15 -7 -25 -28 -34 -35 -14
-61 -8 -61 15 0 18 -12 19 -28 3 -8 -8 -15 -8 -27 2 -12 10 -19 10 -27 2 -16
-16 -55 -15 -61 1 -3 9 -9 9 -27 -1 -16 -10 -25 -11 -33 -3 -8 8 -16 6 -29 -6
-17 -15 -20 -15 -28 -3 -8 13 -11 12 -23 -4 -17 -23 -47 -15 -47 13 0 10 -7
22 -16 25 -15 6 -15 8 -1 24 8 9 17 33 19 52 2 27 8 36 26 38 12 2 22 9 22 16
0 8 7 19 16 26 12 11 18 10 31 -3 15 -15 17 -15 28 6 6 12 17 21 24 19 7 -1
19 4 27 13 21 20 51 19 63 -3z m-51 -310 c3 -22 -31 -52 -59 -52 -19 0 -41 44
-32 66 15 41 84 31 91 -14z m116 22 c34 -34 8 -88 -39 -82 -21 2 -31 10 -35
28 -14 56 36 93 74 54z m-204 -359 c0 -8 -4 -17 -10 -20 -6 -4 -10 5 -10 20 0
15 4 24 10 20 6 -3 10 -12 10 -20z m228 -17 c-3 -7 -12 -14 -21 -16 -12 -2
-15 1 -11 12 7 19 38 22 32 4z"/>
<path d="M2374 745 c-9 -23 3 -45 25 -45 20 0 37 32 26 50 -9 15 -45 12 -51
-5z"/>
<path d="M2511 736 c-9 -11 -10 -20 -1 -35 21 -40 57 -20 46 25 -7 27 -27 31
-45 10z"/>
<path fill="lime" d="M3350 1065 c-7 -8 -21 -15 -32 -15 -10 0 -21 -7 -24 -15 -4 -10 -13
-13 -25 -10 -18 6 -31 -2 -96 -56 -7 -5 -13 -21 -13 -35 0 -13 -7 -36 -16 -49
-15 -22 -14 -25 5 -42 12 -9 21 -27 21 -39 0 -18 -9 -23 -62 -34 -109 -21
-148 -71 -148 -188 0 -53 27 -102 48 -88 7 4 30 38 52 76 40 68 71 100 98 100
11 0 12 -16 7 -78 -8 -89 11 -183 46 -231 34 -46 93 -73 170 -79 87 -6 121 8
160 64 47 68 62 120 62 217 1 48 4 87 7 87 14 0 60 -59 85 -110 46 -92 85
-121 115 -85 34 42 -29 231 -92 276 -16 12 -52 23 -83 26 -59 6 -79 27 -46 49
11 8 21 31 25 58 6 37 3 50 -19 82 -15 22 -38 45 -53 53 -15 7 -35 22 -45 32
-10 11 -31 19 -46 19 -16 0 -34 7 -41 15 -7 8 -20 15 -30 15 -10 0 -23 -7 -30
-15z m60 -24 c8 -16 17 -19 46 -14 29 5 36 3 40 -14 3 -11 19 -23 37 -29 20
-5 33 -17 35 -29 2 -11 14 -28 25 -37 19 -15 20 -20 10 -37 -7 -11 -10 -26 -7
-34 6 -17 -12 -33 -48 -42 -21 -5 -30 -2 -39 13 -10 16 -17 18 -32 11 -12 -7
-23 -7 -32 1 -10 8 -19 8 -34 -2 -17 -10 -25 -10 -42 0 -16 10 -24 10 -35 1
-11 -9 -17 -9 -29 1 -13 11 -18 10 -29 -6 -12 -16 -16 -16 -31 -4 -15 12 -18
12 -26 -3 -14 -24 -39 -21 -39 3 0 11 -7 23 -15 26 -19 8 -19 28 1 45 8 7 13
21 11 30 -6 23 16 54 31 45 7 -4 12 -1 12 6 0 8 6 23 14 33 14 19 15 19 35 1
20 -18 21 -18 31 8 7 20 15 26 29 21 12 -3 21 0 25 10 8 21 43 19 56 -4z m-50
-291 c12 -22 -22 -70 -50 -70 -41 0 -52 84 -12 92 27 6 52 -3 62 -22z m126 -5
c15 -23 15 -27 0 -50 -30 -46 -86 -25 -86 32 0 46 59 59 86 18z m-216 -352 c0
-20 -3 -24 -11 -16 -7 7 -9 19 -6 27 10 24 17 19 17 -11z m230 -18 c0 -8 -7
-15 -15 -15 -16 0 -20 12 -8 23 11 12 23 8 23 -8z"/>
<path d="M3297 754 c-4 -4 -7 -18 -7 -31 0 -20 5 -24 23 -21 16 2 22 10 22 28
0 24 -23 39 -38 24z"/>
<path d="M3425 739 c-10 -16 4 -59 19 -59 22 0 34 23 25 48 -9 23 -33 30 -44
11z"/>
<!-- <path d="M2702 120 c0 -25 3 -35 5 -22 2 12 11 22 18 22 7 0 16 -10 18 -22 4
-16 5 -13 4 7 -1 19 -7 30 -17 30 -8 0 -18 7 -22 15 -4 8 -6 -5 -6 -30z"/>
<path d="M2843 120 c0 -25 2 -35 4 -22 2 12 2 32 0 45 -2 12 -4 2 -4 -23z"/> -->
<!-- <path d="M2873 120 c0 -25 2 -35 4 -22 2 12 2 32 0 45 -2 12 -4 2 -4 -23z"/>
<path d="M2973 120 c0 -25 2 -35 4 -22 2 12 2 32 0 45 -2 12 -4 2 -4 -23z"/>
<path d="M3123 120 c0 -25 2 -35 4 -22 2 12 2 32 0 45 -2 12 -4 2 -4 -23z"/> -->
<!-- <path d="M3223 120 c0 -25 2 -35 4 -22 6 28 33 29 33 0 0 -12 3 -19 6 -15 12
12 -6 59 -21 53 -8 -3 -16 2 -18 12 -3 9 -5 -3 -4 -28z"/>
<path d="M3030 126 c0 -32 10 -56 22 -56 6 0 6 6 -2 15 -6 8 -9 23 -5 34 3 10
1 22 -5 26 -6 4 -10 -4 -10 -19z"/>
<path d="M3077 144 c-7 -8 2 -55 13 -67 4 -4 6 8 6 27 -2 37 -8 50 -19 40z"/> -->
<!-- <path d="M2774 126 c-9 -24 0 -51 19 -54 9 -2 17 2 17 8 0 6 -4 9 -9 5 -5 -3
-12 -1 -15 4 -3 5 4 11 16 14 18 5 19 8 8 21 -16 20 -29 20 -36 2z m26 -6 c0
-5 -2 -10 -4 -10 -3 0 -8 5 -11 10 -3 6 -1 10 4 10 6 0 11 -4 11 -10z"/>
<path d="M2913 133 c-21 -8 -15 -22 7 -16 13 4 20 0 20 -9 0 -22 -12 -29 -27
-17 -9 8 -13 8 -13 1 0 -16 16 -23 34 -16 34 13 13 69 -21 57z"/>
<path d="M3163 133 c-18 -7 -16 -50 3 -57 21 -8 24 -8 24 5 0 5 -4 8 -9 4 -5
-3 -12 -1 -15 4 -3 5 3 11 14 14 11 3 20 10 20 15 0 12 -21 20 -37 15z m17
-13 c0 -5 -5 -10 -11 -10 -5 0 -7 5 -4 10 3 6 8 10 11 10 2 0 4 -4 4 -10z"/> -->
<!-- <path d="M3297 134 c-13 -14 -7 -22 13 -17 13 4 20 0 20 -9 0 -22 -12 -29 -27
-17 -9 8 -13 8 -13 1 0 -16 16 -23 35 -16 10 4 15 16 13 33 -3 25 -26 39 -41
25z"/>
<path d="M3435 129 c-4 -6 -2 -16 4 -22 14 -14 15 -30 1 -22 -5 3 -10 1 -10
-4 0 -16 16 -13 30 4 10 12 9 16 -5 21 -12 5 -13 9 -5 14 8 5 9 10 2 14 -6 3
-14 1 -17 -5z"/>
<path d="M3510 125 c14 -16 13 -17 -8 -11 -18 6 -22 4 -22 -12 0 -23 29 -37
44 -22 8 8 6 9 -5 5 -10 -4 -20 -2 -24 4 -3 7 3 11 15 11 25 0 25 30 0 38 -13
5 -13 3 0 -13z"/>
<path d="M3592 131 c-19 -12 -11 -55 11 -59 9 -2 17 1 17 7 0 6 -6 10 -12 9
-7 -2 -13 6 -13 17 0 11 6 19 13 17 8 -1 11 2 7 8 -7 12 -7 12 -23 1z"/>
<path d="M3647 133 c-13 -13 -7 -21 13 -16 13 4 20 0 20 -9 0 -22 -12 -29 -27
-17 -9 8 -13 8 -13 1 0 -16 16 -23 34 -16 21 8 21 50 0 58 -19 7 -19 7 -27 -1z"/> -->
<!-- <path d="M3723 133 c-7 -3 -12 -19 -12 -36 2 -31 2 -31 6 -4 5 33 30 36 36 5
l4 -23 2 23 c0 12 8 22 16 22 9 0 15 -10 16 -22 1 -19 2 -20 6 -4 3 10 0 23
-6 29 -11 11 -49 17 -68 10z"/>
<path d="M3002 105 c0 -16 2 -22 5 -12 2 9 2 23 0 30 -3 6 -5 -1 -5 -18z"/>
<path d="M3360 107 c0 -14 5 -29 10 -32 7 -4 8 3 4 22 -9 38 -14 42 -14 10z"/> -->
<!-- <path d="M3398 105 c-3 -14 -1 -25 3 -25 5 0 9 11 9 25 0 14 -2 25 -4 25 -2 0
-6 -11 -8 -25z"/> -->
</g>
</svg>
